<?xml version="1.0" standalone="no"?>
<!DOCTYPE svg PUBLIC "-//W3C//DTD SVG 1.1//EN" "http://www.w3.org/Graphics/SVG/1.1/DTD/svg11.dtd" >
<svg>
<metadata>
Created by FontForge 20110222 at Mon Mar  7 08:17:13 2011
 By www-data
D-Studio; Dubina Nikolay; Moskow; 1998
</metadata>
<defs>
<font id="Scrawl" horiz-adv-x="545" >
  <font-face 
    font-family="Scrawl"
    font-weight="400"
    font-stretch="normal"
    units-per-em="1000"
    panose-1="3 11 5 0 0 0 0 0 0 0"
    ascent="800"
    descent="-200"
    x-height="464"
    cap-height="738"
    bbox="20 -673 1065 1038"
    underline-thickness="10"
    underline-position="-127"
    unicode-range="U+0020-201D"
  />
    <missing-glyph />
    <glyph glyph-name="space" unicode=" " horiz-adv-x="500" 
 />
    <glyph glyph-name="exclam" unicode="!" horiz-adv-x="341" 
d="M21 103q6 19 30.5 35t55.5 26.5t65 16.5t60 6q89 0 89 -59v-11q0 -28 -20.5 -51t-45.5 -36q-46 -23 -112 -23v110q-17 -5 -30 -10t-25 -12.5t-25 -19t-29 -27.5q-8 8 -11 20t-3 22q0 11 1 13zM198 854q0 -22 -10 -71t-21.5 -103t-21.5 -103t-10 -71q0 -103 76 -157
q-76 0 -107 44q-25 35 -25 105q0 16 2 43.5t7.5 60.5t13.5 68t20 67q2 7 14 39t35 91q21 12 27 12q-2 -6 -7.5 -14.5t-5.5 -9.5q0 -3 4 -3q1 0 9 2z" />
    <glyph glyph-name="quotedbl" unicode="&#x22;" horiz-adv-x="278" 
d="M42 839h14l26 -28q13 -13 13 -62v-32t-1.5 -44t-4 -49t-7.5 -45q-62 26 -62 125q0 16 2.5 34t5.5 37q1 4 4.5 20t9.5 44zM258 621l-25 26q-9 9 -18.5 28.5t-17.5 41.5t-13.5 42t-5.5 29q0 23 55 37q13 -59 19 -109.5t6 -94.5z" />
    <glyph glyph-name="numbersign" unicode="#" horiz-adv-x="655" 
d="M428 574h2l41 -151q6 -21 20.5 -32t36.5 -16t49.5 -6t57.5 -1l-88 -25q-63 -18 -63 -57q0 -30 19.5 -37t43.5 -7h30q5 0 14.5 -1.5t17.5 -3.5t12.5 -3.5t-0.5 -1.5h-1q-11 0 -30.5 -2t-40 -7t-38.5 -13t-27 -20q-7 -8 -13 -35t-14 -73q-2 -12 -9 -27t-14.5 -25t-13 -10
t-5.5 19q0 13 2 38t2 37q0 27 -7.5 43t-21 24.5t-31 10.5t-38.5 2q-31 0 -54 -9t-40 -25q-30 -28 -43 -92q-17 10 -27 23l-27 32q-14 16 -44 19.5t-53 7.5q15 16 35 30t37.5 31t30 37.5t12.5 50.5q0 46 -44 78q-67 49 -84 73h9q9 0 23.5 -2t29 -5t27 -5t16.5 -2
q13 0 22.5 11t18 23.5t15.5 23.5t16 11l14 -13h14q0 -96 89 -96q34 0 88 14q-9 63 -9 95q0 39 9 82q10 7 15 7t7 -6t4 -14zM417 314q-7 10 -22 16.5t-33.5 11t-39 6.5t-37.5 2q-37 0 -60.5 -19t-23.5 -45q0 -24 19.5 -39t45.5 -15q10 0 31.5 2t45 5t44.5 5t32 2v40
q0 23 -2 28z" />
    <glyph glyph-name="dollar" unicode="$" horiz-adv-x="671" 
d="M21 300v14q-1 1 -1 4q0 22 31 45.5t70.5 44t76.5 37t50 24.5q38 24 46 63q36 160 42 176q10 26 24.5 52.5t32.5 47.5t39.5 34t45.5 13q66 0 122 -96q51 -87 51 -173v-14q0 -28 -18 -60.5t-47 -65.5q-40 -45 -61 -71.5t-25 -33.5q20 -5 45.5 -10.5t48.5 -14t39 -22
t16 -35.5q0 -65 -101 -123q-57 -34 -158 -68q45 -73 123 -94q-45 -13 -71 -13q-23 0 -54 13q-8 4 -17 19t-19 31.5t-21 30t-23 13.5h-36h-18q-46 0 -68 40.5t-22 95.5q0 30 8 68q-32 0 -76 9.5t-75 18.5zM376 532h32q10 0 30.5 5.5t42.5 12.5t42 14t31 10q26 7 38.5 17
t12.5 29q0 13 -11.5 40t-29 54t-39 47.5t-41.5 20.5q-26 0 -46 -24.5t-34.5 -59.5t-22 -72.5t-7.5 -62.5v-15.5t2 -15.5zM582 505l-15 13h-27q-6 0 -10.5 1t-6.5 1q-10 0 -25 -4.5t-40 -10.5q-48 -12 -75.5 -31t-27.5 -64q0 -28 7 -56q70 9 130 48q63 42 90 103zM226 423
q-30 -7 -51 -14t-33 -15q-37 -22 -52 -66q21 -8 40.5 -12t39.5 -4q102 0 102 98q0 18 -3.5 25t-8.5 7q-8 0 -17 -9t-17 -10zM362 286l-13 -14v-13l13 -13q-2 -16 -3 -33t-1 -34q0 -31 16 -44t40 -13q20 0 46 12t51.5 30.5t48 40.5t34.5 41q-86 40 -232 40zM240 108h6
q14 0 22 3t18 19q10 14 14.5 32.5t4.5 37.5q0 61 -49 61q-32 0 -52.5 -23.5t-20.5 -57.5q0 -63 57 -72z" />
    <glyph glyph-name="percent" unicode="%" horiz-adv-x="873" 
d="M143 628q7 32 20 44q23 13 47 31t29 61q7 68 63 106q50 33 121 33h17q43 0 66 -19t23 -46q0 -18 -17 -74q5 -1 21 -1q42 0 96 23l101 46q0 -62 -61 -130q-6 -7 -21 -21.5t-33.5 -32.5t-39 -38.5t-36.5 -39.5q-13 -15 -96 -120l-72 -90l-74 -90q-8 -10 -30.5 -39
t-46.5 -61.5t-43.5 -58.5t-21.5 -30q-38 -61 -38 -107q0 -24 13 -56q-17 -9 -37 -19.5t-37 -10.5q-5 0 -14 1t-22 3q6 32 18 64.5t31 65.5q13 26 34 56t46 64q5 8 27.5 36.5t62.5 80.5l354 464q-79 0 -161 -38q-26 -12 -64 -30.5t-91 -42.5q-80 -38 -162 -38q13 6 20 27
t8 27zM417 710l26 28l41 54q3 4 3 12.5v11.5q0 22 -11.5 31t-32.5 9q-13 0 -31.5 -5t-38 -12.5t-37 -16.5t-29.5 -17q11 -4 33 -8.5t35 -4.5v-30q0 -21 9.5 -28.5t32.5 -23.5zM239 682l-36 -24q-10 -7 -17.5 -14.5t-14.5 -15.5q29 -6 46 -6q56 0 104 60q-12 6 -26.5 18
t-28.5 23q0 -13 -11.5 -26t-15.5 -15zM853 205v-7q0 -43 -94 -96q-46 -26 -88.5 -41t-91.5 -37q-26 -11 -42.5 -15.5t-30.5 -4.5q-28 0 -52 13t-24 43q0 8 7 24t16 33.5t18 34t13 25.5q25 52 59 71q9 5 29 11t44.5 11t52.5 8.5t54 3.5q121 0 130 -77zM799 190l-28 28
q-14 14 -60 14h-25h-23q-68 0 -110 -51q-27 -34 -54 -113q26 -8 57 -8q34 0 68.5 10t67 28t60 41.5t47.5 50.5z" />
    <glyph glyph-name="ampersand" unicode="&#x26;" horiz-adv-x="550" 
d="M421 123l-13 -15q-7 -10 -20 -10q-12 0 -26 7l-36 18q-11 5 -27.5 20.5t-35 32t-38 29.5t-37.5 13q-54 0 -80 -9q-38 -13 -38 -44q0 -25 23 -57q64 -88 201 -88q31 0 58 6q8 3 17 9.5t19 12.5t19 9.5t15 1.5h6q5 0 20 7l-2 -2q-4 -2 -12 -10q-15 -12 -40 -22t-53 -17
t-57.5 -11t-53.5 -4q-62 0 -126 44q-67 49 -80 106q-2 9 -3 18.5t-1 19.5q0 17 11 30.5t33 17.5q20 4 42 7t40 10t30 21t12 40q0 59 6.5 105t18.5 79q34 89 126 130q25 10 40 16.5t21 9.5q40 14 65 14q30 0 47.5 -18.5t17.5 -62.5q0 -41 -19.5 -87t-60.5 -86
q-6 -6 -35.5 -28t-62 -50t-58.5 -55.5t-26 -44.5q0 -19 14 -35.5t36.5 -31t49.5 -26t53 -20.5zM244 300h17q9 0 23.5 8t30.5 20t33 26t32 28q16 14 33.5 37.5t32.5 50t24.5 53.5t9.5 47q0 26 -14 42t-41 16q-26 0 -53.5 -15t-59.5 -39q-88 -66 -88 -170q0 -50 20 -104z" />
    <glyph glyph-name="quotesingle" unicode="'" horiz-adv-x="179" 
d="M23 587v27q-3 12 -3 23q0 24 12.5 55.5t32.5 61t45 51.5t49 27q0 -29 -10 -64.5t-31 -73.5q-21 -39 -45.5 -66t-49.5 -41z" />
    <glyph glyph-name="parenleft" unicode="(" horiz-adv-x="322" 
d="M228 21l-28 -19q-16 5 -31 13.5l-45 25.5q-55 31 -79.5 92t-24.5 129q0 21 3 40.5t7 38.5q14 55 39.5 112t62.5 119q92 152 170 166q-6 -37 -25 -78.5t-53 -85.5q-19 -25 -47.5 -61.5t-65.5 -86.5q-30 -40 -44 -84t-14 -88v-20q0 -24 11.5 -59t31.5 -68t46 -56.5
t54 -23.5q14 0 19 1.5t13 -7.5z" />
    <glyph glyph-name="parenright" unicode=")" horiz-adv-x="390" 
d="M24 846l28 -41q133 -127 213 -244q27 -40 45 -74.5t29 -63.5q31 -91 31 -164q0 -183 -195 -354q12 18 26.5 41t37.5 55q73 101 73 163q0 38 3 67t3 49q0 46 -6 88q-13 78 -88 170q-20 24 -38 47t-38 43q-14 15 -36 37t-50 52q-42 45 -42 96q0 9 1 17t3 16z" />
    <glyph glyph-name="asterisk" unicode="*" horiz-adv-x="655" 
d="M287 355l-8 13q0 1 -4 13t-9 27.5t-9.5 31t-5.5 24.5q-2 22 5.5 39.5t20.5 29t29 17.5t31 6q13 0 30 -4.5t33.5 -11t30 -12.5t19.5 -9q16 -5 31.5 -8.5t30.5 -3.5q-3 -20 -17.5 -49.5t-31.5 -58.5t-30.5 -53.5t-13.5 -35.5q0 -10 25.5 -17.5t60.5 -12.5t71.5 -8.5
t58.5 -5.5q-10 -3 -25 -9t-32 -12.5t-34.5 -13.5t-31.5 -13q27 -24 54.5 -48t54.5 -47q-100 11 -191 54q-29 14 -43.5 23t-13.5 9q-14 -5 -19.5 -9t-9 -8.5t-8 -11t-15.5 -16.5q-20 -18 -34.5 -29t-28.5 -17t-31 -8t-43 -2l69 151q-23 5 -56.5 13.5t-77.5 20.5
q-77 22 -99 75q39 0 93 -12q138 -30 168 -30q5 0 10 1t6 1h14q-24 30 -24 27zM293 410q21 -38 49 -38q27 0 45 26.5t18 53.5q0 22 -15 38.5t-41 16.5t-44 -22t-18 -48q0 -15 6 -27z" />
    <glyph glyph-name="plus" unicode="+" horiz-adv-x="437" 
d="M184 515l13 -10v-13q10 -12 10 -25v-25q0 -38 69 -50l141 -10q-23 -3 -56 -7.5t-76 -12.5q-82 -15 -88 -76q-6 -58 -9.5 -90t-3.5 -34q0 -24 4 -40l5 -20q0 -1 -9.5 -7.5t-26.5 -12.5q-10 23 -15 50t-5 47q0 8 1 25t2 35.5t2 35.5t1 25q0 60 -41 84q-37 21 -57.5 34.5
t-24.5 17.5q7 0 20 -2t25.5 -4.5t23 -4.5t13.5 -2q33 0 48.5 28t33.5 64z" />
    <glyph glyph-name="comma" unicode="," horiz-adv-x="196" 
d="M61 -95q19 19 40.5 40t21.5 49q0 4 -3.5 17.5t-7 29.5t-7 31t-3.5 23q0 19 2 26t7 9t13 2t19 4q33 -80 33 -133q0 -111 -143 -111h-13q12 0 25.5 5.5t15.5 7.5z" />
    <glyph glyph-name="hyphen" unicode="-" 
d="M20 286h41q23 8 43.5 11t38.5 3q34 0 70.5 2t75.5 6q95 10 153.5 15t82.5 5q-23 -15 -72 -29q-18 -5 -42 -10t-61.5 -11.5t-93 -15.5t-135.5 -24q-31 0 -57.5 11t-43.5 37z" />
    <glyph glyph-name="period" unicode="." horiz-adv-x="233" 
d="M211 136l2 -28v-12q0 -20 -10.5 -38.5t-27 -32t-37 -21.5t-39.5 -8q-17 0 -31.5 6.5t-25 15t-16.5 17.5t-6 13q0 18 23 34t54.5 28t63.5 19t50 7z" />
    <glyph glyph-name="slash" unicode="/" horiz-adv-x="517" 
d="M497 641q-12 -64 -84 -137l-121 -122l-104 -132q-32 -40 -54.5 -76t-37.5 -68q-41 -82 -50 -160q-26 35 -26 82q0 71 78 185q12 17 30 42t41 59q36 52 69.5 97t64.5 83q78 93 153 162q15 -12 41 -15z" />
    <glyph glyph-name="zero" unicode="0" horiz-adv-x="869" 
d="M363 673h26h89q101 0 169 -25q85 -31 139 -102q63 -86 63 -160q0 -51 -27.5 -92t-90.5 -76q-262 -146 -488 -146q-157 0 -201 53q-22 27 -22 69q0 10 2.5 30.5t6 43t6 43t2.5 30.5q0 23 -2.5 46t-6 41.5t-6 29.5t-2.5 9q0 52 56 92q24 17 57 37t71 37t79 28.5t80 11.5z
M198 436v-13l-14 -13q0 -30 -30 -60q-74 -70 -78 -93q-6 -25 -6 -38q0 -30 12.5 -53t33.5 -38.5t49.5 -24t60.5 -8.5q80 0 165 17q206 43 326 120q87 55 96 122q3 21 3 33q0 114 -110 189q-99 66 -222 66q-22 0 -26 -1q-76 0 -139 -13.5t-113 -34.5q-148 -63 -148 -179
q0 -8 1 -15.5t3 -16.5q3 2 14 11.5t26 20.5t31 19.5t28 8.5q13 0 37 -6z" />
    <glyph glyph-name="one" unicode="1" horiz-adv-x="154" 
d="M106 -14l-28 28q-16 8 -27 24t-18 35t-10 37.5t-3 31.5t2 33t6 47l10 68q3 15 6 38l9 44q12 66 12 92q0 47 11 66q14 19 58 29q0 -54 -12 -128q-14 -82 -21 -135t-8 -78q0 -13 -7.5 -40t-7.5 -42q0 -40 9 -73t19 -77z" />
    <glyph glyph-name="two" unicode="2" horiz-adv-x="845" 
d="M75 532h27q8 2 11 2q15 0 26.5 -13.5t31.5 -28.5q25 -18 65 -35t71 -21q24 -3 62 -6t73 -11.5t60.5 -24t25.5 -44.5q0 -24 -22.5 -53t-55 -57t-67 -52.5t-58.5 -39.5q-7 -6 -22 -19.5t-37 -33.5q42 -9 87 -9q29 0 64.5 4t77.5 12l163 32q40 8 75.5 12t65.5 4h13
q13 -13 13 -26v-16q0 -6 -8.5 -8t-20.5 -2q-16 0 -35 2t-32 2q-37 0 -74 -2.5t-76 -8.5q-29 -5 -65 -10.5t-79 -12.5q-17 -3 -71 -14t-119 -23t-127.5 -21.5t-97.5 -9.5q14 14 46.5 34t69 40.5t70 37.5t47.5 24q64 31 136 96q51 44 82 109q-16 10 -60.5 22t-94.5 23.5
t-93.5 22t-57.5 16.5q-78 36 -90 107z" />
    <glyph glyph-name="three" unicode="3" horiz-adv-x="599" 
d="M89 546q3 1 8 1q19 0 46 -21q15 -12 27 -19.5t25.5 -13t30 -11t39.5 -13.5l96 -33q-6 -26 -18 -44t-22 -38q52 -14 90 -25t63 -19q105 -34 105 -82q0 -25 -24.5 -52t-60.5 -52t-76.5 -46t-72.5 -34q-109 -44 -202 -44q-17 0 -37 6t-37 17t-28.5 26.5t-11.5 34.5
q0 39 60 52q0 -98 94 -98q43 0 102 20q113 38 176 92q52 43 52 72q0 16 -11.5 27t-30 17.5t-43 9t-49.5 2.5q-7 0 -36.5 -2.5t-65.5 -5.5t-69.5 -5.5t-50.5 -2.5q-43 0 -77.5 8t-59.5 30q142 40 163 50q49 23 83 60q-9 3 -42 12t-68 23.5t-63 33.5t-28 42q0 15 24 25z" />
    <glyph glyph-name="four" unicode="4" 
d="M130 492l15 -15v-27q0 -6 -0.5 -8t0.5 -6v-40q0 -6 0.5 -9.5t-0.5 -5.5l-10 -41q-3 -15 -3 -20q-4 -22 28.5 -29t72.5 -7q62 0 88 44q5 8 19 58t37 142q33 134 107 154q0 -50 -21 -110q-13 -38 -28 -82t-33 -94q-4 -19 -4 -38q0 -21 15 -33.5t35.5 -21t42 -15t34.5 -16.5
q-25 -3 -49.5 -6t-47.5 -8q-20 -4 -31 -18t-17 -32.5t-7.5 -39t-1.5 -39.5q0 -9 0.5 -27t1.5 -37.5t1.5 -37.5t0.5 -27q-5 14 -15.5 37.5t-21.5 49t-19.5 49t-10.5 37.5q-7 67 -42 67q-6 0 -17.5 -1t-24.5 -3t-24 -3t-16 -1q-8 0 -23 -1t-31.5 -2t-32 -2t-22.5 -1
q-25 0 -55 6q13 25 20.5 40.5t10.5 21.5q20 44 22 63.5t2 28.5v34v14q0 28 13 39t42 19z" />
    <glyph glyph-name="five" unicode="5" horiz-adv-x="805" 
d="M20 218v16q0 16 16 30.5t40.5 30t53.5 33t54 38.5q71 62 123 70q-9 -42 -51 -78q-122 -106 -126 -112q13 -3 59.5 -8.5t125.5 -13.5q115 -10 184 -47q52 -29 52 -73q0 -37 -31 -66q-26 -26 -65 -38q-42 -14 -76 -14q-75 0 -126 82q37 -14 74 -27.5t75 -26.5q31 0 54.5 15
t23.5 47q0 52 -56.5 76.5t-144.5 24.5q-13 0 -34.5 2.5t-42 5t-35.5 5t-16 2.5q-13 -1 -18 -1.5t-3 -0.5h-13q-27 0 -48 8t-49 20zM348 492l13 13h28q2 0 5 0.5t5 0.5q11 0 24 -5t29.5 -11t35.5 -11t42 -5h51h68t36 -2q60 -3 100 -22q-18 0 -54 -4t-75.5 -9t-75.5 -9t-54 -4
q-126 0 -178 68z" />
    <glyph glyph-name="six" unicode="6" horiz-adv-x="722" 
d="M265 505l13 -13v-28q0 -2 1 -4t1 -4q0 -22 -13.5 -48t-28.5 -54q-156 -200 -156 -262q0 -23 18 -37t56 -14q62 0 82 10q10 5 21.5 22.5t22 38t19.5 39t16 25.5q14 14 45.5 27.5t70 24.5t79 17.5t72.5 6.5q16 0 36.5 -2.5t38.5 -9.5t30.5 -18.5t12.5 -29.5q0 -34 -74 -64
q-13 -5 -41.5 -14t-63 -18.5t-70 -20t-63.5 -18t-43.5 -12.5t-10.5 -4q-58 -10 -106 -19.5t-86 -9.5h-26q-50 0 -74 22t-24 51q0 31 25 83q3 7 17.5 29.5t34 53t40.5 66t38 69.5q47 98 90 119zM620 177l-40 13q-24 8 -53 8t-61 -7.5t-61 -22.5t-52 -36.5t-33 -49.5
q2 0 18 -1t18 -1q72 0 144 24q85 27 120 73z" />
    <glyph glyph-name="seven" unicode="7" horiz-adv-x="609" 
d="M59 466q9 0 25 -4.5t33.5 -10t32.5 -10t21 -5.5q27 -4 57 -7t65 -3q37 0 76 -4t76 -4h43q38 0 69.5 -12.5t31.5 -43.5q0 -18 -8 -34q-6 -13 -36 -41t-63.5 -55.5t-60 -48.5t-25.5 -20q-25 -25 -39 -46.5t-14 -40.5q0 -33 32 -62q-100 0 -100 52q0 16 9.5 35t24.5 38
t32.5 36t33.5 30q13 11 34 27t48 38q41 35 68 84q-30 8 -74.5 12t-103.5 4q-67 0 -112.5 1.5t-69.5 5.5q-100 14 -145 59v4q0 6 5.5 11t12.5 8.5t13.5 5t7.5 1.5z" />
    <glyph glyph-name="eight" unicode="8" horiz-adv-x="709" 
d="M20 368l13 14h15q23 23 60 38t68 28q88 36 161 36q56 0 134 -34q35 -15 76 -15q6 0 19.5 1t27.5 2.5t27.5 2.5t19.5 1q29 0 48 -6q-20 -11 -108 -38q-139 -42 -164 -98q-10 -20 -10 -40q0 -31 35 -56q108 -78 111 -81q11 -19 11 -40q0 -25 -16 -55t-39.5 -58.5t-48.5 -53
t-43 -39.5q-42 -33 -72 -33q-23 0 -38 21.5t-23 51.5t-11 61.5t-3 51.5q0 27 6.5 57.5t6.5 58.5q0 26 -11 44t-32 33t-52 30.5t-71 36.5q-71 38 -97 78zM443 396l-26 27q-15 15 -46 15q-6 0 -23 -2.5t-34.5 -5.5t-31.5 -5.5l-14 -2.5q-61 -9 -153 -68q13 -9 27.5 -19.5
t29.5 -20.5q62 -42 107 -42q20 0 39.5 10.5t39.5 28t41 40t44 45.5zM417 -54q33 20 54.5 54t21.5 72q0 40 -22.5 66t-61.5 26q-80 0 -80 -89q0 -17 3.5 -38.5t9.5 -43.5t14.5 -42t18.5 -33q15 8 26.5 17t15.5 11z" />
    <glyph glyph-name="nine" unicode="9" horiz-adv-x="433" 
d="M22 272q-2 8 -2 15v13q0 40 20 81.5t51.5 76t71.5 58.5t79 30q4 1 12 1q27 0 52 -15t44 -38.5t30.5 -51.5t11.5 -55q0 -41 -28 -59q-14 39 -24 64t-16 36q-35 64 -82 64q-21 0 -44 -13.5t-43.5 -34.5t-37.5 -45t-26 -45q-13 -29 -13 -61q0 -38 28.5 -64.5t85.5 -26.5
q15 0 43.5 9t60 20.5t59.5 20.5t43 9q14 0 14 -9t-9 -25t-25.5 -38t-35.5 -49q-70 -100 -70 -156q0 -13 3 -36t7 -56q-73 29 -73 86q0 14 11.5 44.5t25 62t25 55.5l11.5 24l-114 11q-128 13 -146 97z" />
    <glyph glyph-name="colon" unicode=":" horiz-adv-x="252" 
d="M192 518v-12q1 -2 0.5 -5.5t-0.5 -5.5q0 -15 -14.5 -30t-34 -26.5t-40.5 -19t-34 -7.5q-23 0 -36 18.5t-13 32.5q0 17 18.5 27.5t45.5 16.5t56.5 8.5t51.5 2.5zM27 0v14q-2 4 -2 10q0 28 17.5 45t47 27.5t66.5 16t76 10.5q-15 -53 -79 -87q-54 -28 -126 -36z" />
    <glyph glyph-name="semicolon" unicode=";" horiz-adv-x="208" 
d="M129 123l27 -28l28 -54q4 -23 4 -44q0 -134 -168 -215q40 51 66 84q37 49 43 93q1 5 1 17q0 7 -13 78q-2 14 -3.5 21t-1.5 8q0 8 7.5 21.5t9.5 18.5zM34 218v14q-2 10 -2 12q0 15 14 32q33 36 66 36q6 0 14.5 -1.5t17.5 -3.5t16.5 -4t9.5 -3q-13 -15 -22 -25t-15 -19.5
t-10 -21t-7 -29.5q-27 0 -82 13z" />
    <glyph glyph-name="less" unicode="&#x3c;" horiz-adv-x="519" 
d="M41 68l11 21q10 19 25 34.5t38 34.5q65 52 99 81t39 33q41 70 55 92q29 46 81 46q-9 -76 -96 -164q-59 -61 -93 -98.5t-43 -52.5q30 -6 61 -6q14 0 44 4t64.5 8.5t66 8.5t46.5 4q30 0 60 -6q-57 -44 -160 -69q-89 -21 -176 -21q-88 0 -143 23q13 16 16.5 20.5t4.5 6.5z
" />
    <glyph glyph-name="equal" unicode="=" horiz-adv-x="463" 
d="M20 190v28q0 4 11 15t25.5 22.5t28 20.5t17.5 10h5q13 0 34.5 -4t41 -9.5t32.5 -9.5t10 -4q31 0 57 7.5t33 7.5h19h40l31.5 -1.5l10.5 -0.5h14q-48 -30 -140 -42q-124 -16 -192 -26t-78 -14zM89 423l41 13q12 4 28 4q10 0 27 -3t35 -6.5t33 -6.5t23 -3h22h92h37
q6 0 8.5 -9t7.5 -16q-12 0 -37 -1t-52 -2.5t-52 -2.5t-37 -1q-105 0 -176 34z" />
    <glyph glyph-name="greater" unicode="&#x3e;" horiz-adv-x="548" 
d="M86 438q6 0 23.5 -6.5t37 -14.5t35 -14.5t18.5 -6.5q6 0 34 -5t78 -13q136 -20 186 -64q30 -28 30 -55q0 -68 -194 -123l-89 -26q-25 -7 -49.5 -13t-39.5 -15l-68 -41q-16 -10 -28 -14.5l-12 -4.5q5 0 -28 19q45 50 138 78q27 8 68 20t96 29q46 14 79.5 37.5t55.5 53.5
q-18 11 -63 23.5t-93.5 24t-88 19.5t-47.5 11q-81 25 -118 73q7 14 18 21t21 7z" />
    <glyph glyph-name="question" unicode="?" horiz-adv-x="519" 
d="M20 668h28q21 10 73 10q21 0 43.5 -1t46.5 -3l68 -6q47 -4 79.5 -3.5t52.5 -2.5q88 -15 88 -62q0 -70 -98 -136q-24 -16 -61.5 -39.5t-86.5 -56.5q-78 -52 -78 -118q0 -79 118 -127q-64 0 -124 27q-78 34 -78 92q0 74 120 150q129 84 139 92q71 56 80 130q-17 4 -39.5 6
t-47.5 2q-12 0 -36 -1t-50.5 -3t-50.5 -3t-35 -1t-31 -1t-31 -1q-36 0 -55.5 12t-33.5 44zM115 -26l42 26q21 14 40 22.5t39 13t43 6t54 1.5q110 0 110 -61q0 -50 -95 -50q-47 0 -100.5 8t-120.5 26z" />
    <glyph glyph-name="at" unicode="@" horiz-adv-x="1085" 
d="M1063 82l2 -36q-15 -18 -24 -18t-14 7t-8 15.5t-7 8.5q-5 0 -12.5 -3t-14.5 -5q-24 -9 -42.5 -14.5t-37 -10t-39 -8t-48.5 -6.5q-166 -18 -269 -18q-265 0 -428 101q-101 63 -101 169q0 99 89 211q78 97 176 153q89 49 144 78.5t78 39.5q144 66 254 66q51 0 88 -10
t78 -38q96 -63 96 -171q0 -63 -33.5 -129.5t-87 -121t-119 -89.5t-129.5 -35q-11 0 -26 -0.5t-33 -1.5l-10 -1q-27 -2 -43.5 -3t-21.5 -1q-121 0 -121 78q0 48 26 91.5t66 67.5q56 34 133 34q21 0 52 -4.5t59.5 -14.5t49 -26t20.5 -39q0 -24 -17.5 -49.5t-51.5 -76.5
q90 37 166 124q83 97 83 182q0 101 -112 160q-59 30 -136 30q-143 0 -332 -106q-68 -39 -133 -88q-210 -160 -210 -290q0 -70 59 -134q79 -82 202 -113q47 -12 105.5 -17.5t130.5 -5.5q77 0 140.5 3.5t113.5 10.5q67 10 113.5 28t96.5 42l27 12q3 2 2.5 4t0.5 2q-1 0 4 -8.5
t6 -25.5zM669 410l-15 13h-27q-10 0 -19.5 3t-16.5 3q-27 0 -47.5 -13.5t-36 -35.5t-26.5 -50.5t-18 -57.5q27 -8 42.5 -11.5t14.5 -3.5q26 2 44.5 14.5t35 33t32.5 47.5t37 58z" />
    <glyph glyph-name="A" unicode="A" horiz-adv-x="561" 
d="M132 410l13 13v13q14 14 23 34t16 46t15 58t20 69q19 61 42 91t46 30q20 0 36.5 -21t30 -54.5t25 -75t20.5 -81.5q5 -23 10.5 -55.5t17.5 -62.5t33.5 -51.5t60.5 -21.5q-33 -37 -44 -69q-11 -35 -11 -86v-63q0 -35 13 -78t34 -95l4 -12t2 -10q0 -16 -27 -11q-14 3 -30 30
t-30 69t-23.5 95t-9.5 107q0 33 -14.5 48.5t-35.5 15.5q-6 0 -17.5 -1.5t-23.5 -3.5t-21.5 -3.5t-11.5 -1.5h-82q-64 0 -76 -64q-18 -95 -33 -113q-5 -7 -20 -10.5t-26 -3.5h-19q-6 0 -9.5 11t-6 29t-3 40.5t-0.5 46.5q0 38 1 71t1 47v23v115q24 3 37 3q25 0 37 -12.5
t36 -44.5zM281 656l-13 -42q-10 -14 -22 -42t-22.5 -59.5t-17.5 -61.5t-7 -49q0 -76 88 -76h10q86 0 86 78q0 87 -102 252z" />
    <glyph glyph-name="B" unicode="B" horiz-adv-x="874" 
d="M49 696q10 0 32.5 -3.5t48.5 -8t53 -9.5t46 -7q52 -5 99 -8.5t90 -3.5h48h49q82 0 139.5 -13.5t90.5 -42.5q-33 -46 -100 -80q-17 -8 -46.5 -22t-72.5 -34l202 -60q126 -51 126 -138q0 -28 -14 -61q-39 -96 -216 -156q-144 -49 -275 -49q-64 0 -126 44q-67 48 -67 112
q0 16 6.5 30.5t14.5 28t14.5 27.5t6.5 30q0 9 -2.5 28t-5.5 39t-5.5 39t-2.5 28q0 15 3 30q21 -9 37 -23t20 -32t5.5 -36.5t5.5 -36t11.5 -33.5t23.5 -29q5 -4 17 -11.5t31 -16.5q-34 -6 -42 -10.5t-8 -15.5v-21q0 -41 -9.5 -48.5t-18.5 -7.5l-18 8q-5 10 -7.5 24t-4.5 26
t-6 18.5t-12 2.5q-9 -2 -10.5 -9t-1.5 -12q0 -74 76 -113q66 -34 157 -34q44 0 94.5 16.5t96.5 37.5q118 54 150 125q12 27 12 50q0 60 -78 99q-45 23 -139 42q-37 8 -116 25t-197 43q20 7 61 16t85.5 17t83.5 15.5t54 11.5q40 11 74.5 26.5t63.5 36.5q-85 41 -250 41h-96
q-50 0 -87.5 1t-63.5 4q-41 5 -80.5 13t-77.5 22q-2 0 7.5 14t20.5 14z" />
    <glyph glyph-name="C" unicode="C" horiz-adv-x="718" 
d="M225 410q-49 -22 -75.5 -49t-47.5 -71q-29 -58 -29 -104q0 -56 42 -78q33 -17 75 -25t89 -8q74 0 188 18l99 15h27q1 0 10.5 2.5t21.5 5t22.5 5t15.5 2.5q35 0 35 -9q0 -13 -40 -24t-95 -19t-111.5 -12.5t-90.5 -4.5q-75 0 -128 4t-84 12q-129 32 -129 135q0 65 45 123
q18 25 43.5 49t58.5 49q3 2 31 22t81 57q23 17 29.5 32.5t6.5 46.5q0 30 9 51t37 21q13 0 13 -16v-30q0 -4 8 -20l17.5 -35t17.5 -36t8 -23q0 -8 -2 -19t-6 -27q-14 -54 -27 -93.5t-25 -63.5q-45 -88 -112 -88q0 -1 5 20.5t11 52t11 62t5 49.5q0 28 -6 47q-13 -6 -26 -12.5
t-28 -13.5z" />
    <glyph glyph-name="D" unicode="D" horiz-adv-x="881" 
d="M61 628q11 0 26 -4t34 -12l63 -25l147 -40q78 -21 140.5 -34.5t109.5 -20.5q144 -19 231 -82q49 -36 49 -82q0 -24 -11 -46t-29.5 -41.5t-42 -35.5t-48.5 -28q-47 -23 -117.5 -58t-165.5 -80q-82 -39 -157.5 -58t-141.5 -19q-57 0 -100 12l287 80q-30 54 -84 162
q-46 92 -46 173q0 34 6 61q23 -8 40 -25t22 -40l22 -101q8 -38 27 -81t53 -95q18 -27 61 -27q63 0 168 59q38 21 73 43.5t67 48.5q61 47 61 90q0 62 -118 109q-84 34 -188 46q-188 21 -256 36q-155 33 -223 101q8 8 21 11t20 3z" />
    <glyph glyph-name="E" unicode="E" horiz-adv-x="685" 
d="M583 26l-37 -21q-13 -7 -36.5 -12t-52.5 -7t-59.5 -3t-56.5 -1q-66 0 -132.5 11t-117.5 33q-28 12 -39 24t-11 28q0 12 3.5 34.5t3.5 36.5q0 21 -2 63t-4.5 88t-4.5 88t-2 62q0 3 -2.5 25.5t-5 51t-5 56t-2.5 39.5q0 92 57 101q57 10 128 10q275 0 460 -133
q-21 0 -40.5 3.5t-39.5 10.5q-61 22 -93 32t-33 10q-17 2 -47 6t-61.5 8.5t-58.5 8t-37 3.5q-89 0 -118 -10q-54 -20 -54 -90q0 -11 1.5 -30.5t6.5 -47.5q2 -16 6 -41.5t9 -58.5q5 -14 32.5 -23.5t63.5 -16.5t73.5 -12t61.5 -9q111 -34 172 -51.5t74 -19.5q-9 -3 -20 -5
t-24 -2q-35 0 -79 11t-97 24q-22 5 -50.5 11.5t-59 13.5t-62 14t-59.5 15q-21 -87 -21 -152q0 -156 116 -176q72 -12 165 -12q89 0 191 12z" />
    <glyph glyph-name="F" unicode="F" horiz-adv-x="882" 
d="M539 792q16 0 54 29q21 17 34.5 26.5t25 14.5t22.5 6.5t28 1.5q53 0 93 -28.5t57 -77.5q9 -28 9 -49q0 -66 -71 -97q-53 -22 -126 -22q-72 0 -126 18q-7 3 -26.5 14.5t-32.5 11.5q-18 0 -39 -22t-40 -54t-33 -67t-20 -61q29 -6 157 -12q61 -3 104 -9t67 -17h-112
q-144 0 -203 -44q-25 -19 -39 -44t-14 -62q0 -56 -13.5 -107t-35.5 -92q-57 -105 -157 -117q56 39 77 65q23 27 38.5 73t21.5 108q1 20 2.5 43t1.5 51v32q-1 10 -2 22.5t-2 27.5q-73 -17 -120 -17q-56 0 -99 31q46 6 82 11t61 9q89 16 116 62q23 39 57.5 97t80.5 135
q3 6 9.5 24.5t14 42t15.5 46.5t15 37q2 -1 10.5 -7.5t19.5 -13.5t21.5 -13t16.5 -6zM812 723q0 92 -71 92q-23 0 -55 -13t-63.5 -33t-58 -43t-39.5 -44q35 -23 87 -38q27 -8 50.5 -12t42.5 -4q107 0 107 95z" />
    <glyph glyph-name="G" unicode="G" horiz-adv-x="1046" 
d="M548 -68q-13 7 -22 24.5t-19.5 36t-26.5 32.5t-42 14q-14 0 -43 -4.5t-60.5 -10.5t-60 -10.5t-42.5 -4.5q-73 0 -135 59q-40 37 -58.5 85t-18.5 100q0 30 6 62.5t16 68.5q17 56 51 128q3 6 18.5 36t34.5 67t37.5 71t27.5 48q89 136 186 153q5 -20 5 -49q0 -42 -7 -81
t-21 -77q-33 -87 -86 -93q1 9 8 33.5t14.5 53t13.5 54t6 36.5q-101 -80 -172 -213q-74 -142 -74 -273q0 -56 13 -101q39 -138 187 -138q32 0 71 7t83 22q55 17 94 86q44 76 79 120t59 54q14 4 26 7t22 3q38 0 38 -38q0 -26 -19 -58t-39 -52l-86 -82q-20 -19 -29 -42t-9 -40
q0 -43 42 -94q-7 0 -20 -1t-20 -1q-25 0 -28 2zM712 300h-28q-26 0 -38 -19t-12 -39q0 -10 4.5 -29t4.5 -23q9 4 24 12.5t29.5 18t25 20.5t10.5 22q-4 8 -10.5 15.5t-9.5 21.5zM302 368v14q0 13 27 25t62 21t68.5 15t47.5 7q29 2 60 4t63 2q17 0 51 -1t71.5 -2t72 -2
t51.5 -1l14.5 -4t37 -9.5t49 -9.5t49.5 -4q-20 0 -61.5 1.5t-86.5 2.5t-86 2.5t-61 1.5h-51.5t-27.5 -1q-6 -1 -22 -2.5t-42 -4.5q1 0 -13.5 -2t-33 -4.5t-37 -4.5t-25.5 -2h-13q-21 0 -43 -10q-17 -7 -30 -13t-26.5 -10t-28.5 -6.5t-36 -2.5z" />
    <glyph glyph-name="H" unicode="H" horiz-adv-x="686" 
d="M513 805l13 -13v-28q1 -2 4.5 -15.5t7.5 -32t4 -24.5v-18q0 -12 -0.5 -25.5t-1.5 -28.5q-6 -72 -6 -90q0 -28 1.5 -49t8.5 -35.5t21.5 -23t40.5 -12.5q11 0 26.5 5t25.5 5q8 0 7 -7t-12 -17q-6 -6 -24 -11.5t-38 -17t-35.5 -30.5t-15.5 -51v-354q-69 62 -69 229v43
q0 7 1 18t1 33v34q0 39 -15 52t-55 13h-68q-13 -2 -31.5 -2.5t-46.5 -1.5q-17 0 -34.5 1t-36.5 3q-17 2 -34.5 6t-35.5 8q-17 -62 -17 -124q0 -146 86 -230q-151 0 -151 204q0 7 -2 36.5t-5 65.5t-5 69.5t-2 48.5q0 126 56 176q23 -49 23 -102q0 -20 -3 -50q-3 -20 -6 -52
q62 -8 133.5 -11t152.5 -3q46 0 66 14.5t20 58.5q0 7 -1 20.5t-2.5 28t-2.5 27t-2 16.5v66v47q0 37 15 77.5t44 53.5z" />
    <glyph glyph-name="I" unicode="I" horiz-adv-x="916" 
d="M23 -26v12l13 14h28q6 0 20 4t29 8.5t28 9t19 4.5q39 9 82.5 10.5t81.5 1.5q40 0 84 1.5t94 1.5q10 0 32.5 0.5t47 0.5t46.5 0.5t33 0.5q58 0 96.5 -3.5t84.5 -13.5q-22 -4 -41 -7.5t-41 -5t-51 -2.5t-70 -1q-21 0 -75 -5t-131 -5q-29 0 -59 -2.5t-62 -7.5
q-83 -13 -133.5 -19.5t-68.5 -6.5q-46 0 -87 10zM433 150l-13 -14q-10 -18 -26 -18q-23 0 -40 21t-28 52.5t-16 67.5t-5 65v89q0 21 2.5 36.5t2.5 27.5q0 32 -16.5 57.5t-49.5 37.5q-22 8 -55 16t-77 22t-68 43t-24 66q0 19 14 19q17 0 29.5 -10t41.5 -32q126 -95 315 -137
q117 -27 272 -27q146 0 204 -27q-48 -5 -100 -8t-107 -3q-59 0 -116 5.5t-113 5.5q-61 0 -80 -24q-16 -20 -16 -85v-53q0 -36 3 -62.5t7 -42.5q8 -26 22 -48t37 -40z" />
    <glyph glyph-name="J" unicode="J" horiz-adv-x="818" 
d="M553 628h-83h-54q-27 -1 -41 -1.5t-15 -0.5q-45 0 -84 3t-71 7q-43 6 -79 18t-66 28q-40 22 -40 48q0 22 36 22h7t12 -2l177 -54q81 -14 191.5 -21t250.5 -7h104q-58 -40 -245 -40zM421 398l15 -21q27 -37 32 -53.5t7 -21.5q10 -27 16 -43.5t8 -32.5q5 -34 8 -62.5
t3 -51.5q0 -49 -17 -85.5t-49 -36.5q-10 0 -23 5l-46 19q-25 10 -54.5 19t-61.5 25q-85 44 -131 66.5t-53 25.5l13 55l232 -123q3 -1 12.5 -6t21.5 -11t24 -10.5t18 -4.5q31 0 41.5 27t10.5 58q0 11 -3 31.5t-8 34.5q-9 30 -21.5 68t-26.5 78t-27.5 78.5t-23.5 67.5
q12 -11 21 -20t18 -19t19.5 -23t24.5 -33z" />
    <glyph glyph-name="K" unicode="K" horiz-adv-x="638" 
d="M72 696h14v-14q6 -5 11.5 -18.5t9 -30t5.5 -34t2 -29.5v-17q0 -13 -1 -28.5t-3 -32.5q-3 -41 -5 -68t-2 -38q0 -29 3 -44q0 -14 6 -42q103 56 264 56q117 0 242 -28q-41 -29 -98 -29q-13 0 -39.5 1t-39.5 1q-8 0 -15 -0.5t-12 -0.5q-21 0 -50 -5t-66 -5q-8 0 -28 -1
t-39 -6t-29.5 -16t0.5 -31q10 -17 47.5 -47t95.5 -66h13l4 -3q4 -3 12.5 -9t17 -12.5t15 -11.5t7.5 -5l14 -10q14 -10 26.5 -17t26.5 -14h15q6 -11 12.5 -21t13.5 -20q-86 0 -246 95q-13 7 -46.5 27.5t-89.5 54.5q-13 -24 -20.5 -37.5t-9.5 -16.5q-24 -37 -80 -41
q-4 23 -7 47.5t-3 50.5q0 9 3.5 45.5t8 82t8 89.5t3.5 68v105q0 93 29 126z" />
    <glyph glyph-name="L" unicode="L" horiz-adv-x="627" 
d="M75 668h27q13 -51 13 -166v-79q0 -23 -2 -51.5t-5 -55t-5 -47.5t-2 -29q0 -59 34 -96q16 -18 41.5 -34.5t55.5 -29.5t62.5 -21t61.5 -8q58 0 157 29l94 28q-27 -77 -126 -98q-44 -10 -174 -10q-56 0 -136 26q-35 13 -60 14q-9 2 -19 2h-21h-25q-13 -1 -19.5 -1h-6.5
q0 78 3.5 166.5t9.5 188.5q0 3 -0.5 20.5t-2 39.5t-2.5 42t-1 28q0 100 48 142z" />
    <glyph glyph-name="M" unicode="M" horiz-adv-x="755" 
d="M393 492l8 -13q6 -29 8.5 -44t5.5 -25.5t7.5 -21t14.5 -29.5q10 21 19 52.5t16 50.5q3 10 9.5 24.5t13.5 28t13.5 25.5t9.5 18q19 36 39 56q27 -65 45 -143q6 -25 11 -60.5t9.5 -74.5t8.5 -78t7 -72q4 -42 13 -76.5t21 -61.5q7 -17 63 -116q-99 0 -130 108
q-6 20 -9.5 53.5t-7.5 82.5q-4 58 -7.5 98t-6.5 59q-14 85 -44 117q-1 -4 -13.5 -42.5t-29.5 -86.5t-34.5 -92.5t-28.5 -61.5q-46 -70 -112 -85q6 35 16 80t24 99l28 107q3 14 3 30q0 71 -95 116q-20 9 -45 20.5t-55 24.5q-12 -49 -12 -192q0 -138 -20 -209
q-31 -106 -117 -132q-3 32 -3 64v77q0 16 1.5 28.5t1.5 22.5q0 8 -3 30t-6.5 48.5t-6.5 53t-3 42.5v27q0 6 2 10.5t2 6.5q55 -54 82 -177q42 137 42 259q0 19 -3.5 36.5t-9.5 33.5l-42 108q42 -6 70 -40q11 -14 21 -24l18 -18q40 -31 88 -63.5t103 -58.5z" />
    <glyph glyph-name="N" unicode="N" horiz-adv-x="737" 
d="M566 136l15 14q5 4 11.5 20t12.5 35.5t10.5 38.5t5.5 28q27 192 27 315q0 2 -1.5 16t-3.5 39q0 17 46 26q5 -28 7.5 -57t2.5 -57q0 -34 -2.5 -70.5t-9.5 -71.5q-10 -48 -23.5 -120t-28.5 -169q26 -7 47.5 -10t34.5 -5q-40 -8 -68 -17t-28 -37v-46q0 -16 -14 -22l-14 14
h-12q-8 33 -16.5 53t-21.5 33t-33 21t-53 16q-23 6 -43 15.5t-37 27.5q-1 2 -25.5 32t-72.5 88q-68 -140 -104 -194q-79 -118 -155 -118q3 21 17.5 65.5t31.5 91t30.5 84t15.5 44.5q5 21 13.5 52t19.5 72q21 70 63 94q2 -17 3 -32t1 -29v-29t-1 -23l-3 -50q8 6 25.5 40.5
t46.5 97.5q22 48 52 66q0 -2 3 -36t8 -102q4 -50 15 -80q38 -105 205 -164z" />
    <glyph glyph-name="O" unicode="O" horiz-adv-x="755" 
d="M80 532q34 36 101 56q37 12 83 21.5t100 14.5q19 2 37 3t37 1q126 0 202 -41q95 -51 95 -164q0 -88 -96 -181q-79 -76 -177 -119q-31 -14 -100 -53q-112 -63 -174 -70q-11 -2 -36 1t-37 3q-61 0 -78 22t-17 74v21q0 2 1.5 6.5t2.5 8.5q21 98 71 186q62 109 135 128
q0 -56 -34 -113q-101 -165 -103 -173q-11 -42 -11 -64q0 -66 74 -66q26 0 60 7q196 37 382 205q72 66 72 150q0 85 -62 138q-59 53 -146 53q-183 0 -314 -41q-24 -7 -38 -18t-23.5 -28.5t-17 -43t-17.5 -60.5l-13 14q-1 2 -1 5.5v5.5q0 11 4 27t10 32.5t13.5 30.5t14.5 21z
" />
    <glyph glyph-name="P" unicode="P" horiz-adv-x="497" 
d="M68 0v26q-2 6 -2 11q0 9 4.5 23t10 27.5t10 24t4.5 11.5q0 77 -13 123q1 -2 -8.5 13t-21.5 36.5t-22 44t-10 35.5q0 15 6 35q43 129 48 151q6 26 8 66.5t8.5 79t22 66.5t49.5 28q43 0 114 -34q40 -18 106 -57q50 -30 72.5 -67.5t22.5 -81.5q0 -83 -75 -170
q-70 -79 -156 -119q-68 -30 -90 -114q-2 -9 -7 -48.5t-13 -109.5h-68zM190 286h14h5q9 0 28 8.5t39 20t39 23.5t28 20q37 32 58.5 77t21.5 89q0 65 -45 116q-38 45 -106 70q-19 7 -42.5 15t-43.5 8q-50 0 -50 -77q0 -184 54 -370z" />
    <glyph glyph-name="Q" unicode="Q" horiz-adv-x="812" 
d="M744 -14q-14 4 -31.5 13t-37.5 23q-9 6 -27 18.5t-38.5 25.5t-39.5 22.5t-28 9.5q2 0 -15 -3t-41 -13l-88 -38q-37 -16 -80.5 -26.5t-86.5 -10.5t-72 17.5t-29 57.5v17.5t-0.5 22.5t-0.5 19t0 7q0 16 -10.5 25t-29.5 17q-69 28 -69 72q0 21 14.5 41t37 37.5t49 32
t50.5 23.5q35 14 86.5 34t120.5 46q116 43 215 43q64 0 107 -13q92 -26 92 -94q0 -49 -48 -118q-2 -3 -20 -23.5t-38 -46.5t-36.5 -51t-16.5 -38q0 -19 21.5 -35.5t48.5 -36t51.5 -44.5t31.5 -60q-10 9 -24.5 18t-17.5 9zM458 272h13q4 2 6 2q15 0 32.5 -14t34.5 -30t33 -30
t29 -14q21 0 70 46q70 65 70 148q0 38 -22 64.5t-60 31.5q-17 2 -31.5 3t-26.5 1q-26 0 -54.5 -3t-57.5 -11l-118 -29q-58 -14 -106 -111q-15 -30 -29.5 -71t-28.5 -91q-9 -33 -9 -58q0 -64 69 -64q53 0 118.5 28t135.5 66q-14 17 -24 30t-16 22q-28 41 -28 84zM198 341h-31
q-15 0 -31.5 -11.5t-31 -28t-26 -35.5t-16.5 -34q31 -17 57 -17q64 0 79 126z" />
    <glyph glyph-name="R" unicode="R" horiz-adv-x="694" 
d="M100 95v13l-13 15v41l-13 13q-2 2 -6.5 69.5t-9.5 189.5q-5 93 -25 151q-13 39 -13 53q0 24 22 24q6 0 28 -10t48.5 -23t52 -26t39.5 -18q28 -11 69 -26.5t96 -38.5q95 -40 135 -112q14 -25 14 -54q0 -84 -122 -151q33 -49 90 -84q18 -11 63.5 -38t118.5 -69
q-14 -5 -37 -5q-47 0 -107 29q-4 2 -30.5 17.5t-59.5 34t-64.5 35t-45.5 21.5q-50 18 -106 18q-18 0 -32 -9.5t-28 -21.5t-29 -23.5t-35 -14.5zM128 559l-13 -13v-14q0 -2 -0.5 -3t-0.5 -3q0 -6 7.5 -21t6.5 -13q7 -28 15 -55.5t13 -54.5q7 -33 19 -59.5t33 -48.5
q45 -50 108 -50q22 0 44 8q96 30 96 105q0 93 -176 169q-32 14 -70 27t-82 26z" />
    <glyph glyph-name="S" unicode="S" horiz-adv-x="707" 
d="M625 231l-19 15h-13h-50h-83q-8 0 -22 -0.5t-29 -1.5t-29 -2t-21 -2h-106q-94 0 -155 36.5t-61 107.5q0 78 78 171q70 83 138 113q26 12 54.5 22t59.5 18q41 9 117 15q5 1 13 1h12q52 0 85 -15.5t33 -46.5q0 -22 -20 -48q-23 37 -58 53.5t-84 16.5q-122 0 -241 -89
q-124 -93 -124 -199q0 -43 20 -71t67 -41q42 -12 134 -12q-6 0 23.5 2.5t69.5 5.5t79.5 5.5t53.5 2.5q140 0 140 -52q0 -28 -39 -72q-67 -74 -183 -122q-56 -22 -110.5 -30t-106.5 -8q-90 0 -146.5 31t-81.5 101l28 14q14 8 25 8l10.5 -2l31.5 -6l-26 -27q29 -90 144 -90
q28 0 60 8q124 31 207.5 78.5t124.5 111.5z" />
    <glyph glyph-name="T" unicode="T" horiz-adv-x="831" 
d="M307 668q114 -12 272 -12q165 0 232 -69q-72 13 -137.5 27.5t-138.5 28.5h-32q-47 0 -71 -21.5t-24 -58.5q0 -7 1 -20.5t2.5 -29t2.5 -29t1 -20.5q0 -13 2 -39.5t5 -57t5 -60t2 -48.5q0 -23 -2 -47.5t-2 -50.5q0 -18 1 -42.5t1 -64.5v-80q-46 20 -56 68t-10 110v271
q0 89 -10 128q-9 35 -27 55t-45 22q-23 2 -58 4.5t-82 7.5q-76 8 -119 70q19 11 48 11q27 0 52.5 -4.5t53 -11.5t60 -17t73.5 -20z" />
    <glyph glyph-name="U" unicode="U" horiz-adv-x="723" 
d="M20 54q0 81 15 190q5 35 15.5 78t10.5 113q0 11 1 45t5 90q2 30 20 48t43 23q0 -45 -9 -105q-9 -68 -14 -110t-5 -58q0 -23 -1.5 -47.5t-3.5 -50.5q-12 -130 -12 -154q0 -31 4.5 -65t12.5 -65q95 17 183 103q92 92 92 181q0 10 -2 32.5t-2 33.5q0 98 36 176
q41 89 116 116q10 -43 10 -88q0 -25 -4.5 -54.5t-11.5 -63.5l-7 -20t-15 -48t-15 -59t-7 -53q0 -26 11.5 -51t36.5 -41q17 -11 44 -25.5t54 -33t50 -41.5t32 -50q-69 0 -198 96q-5 3 -30.5 23.5t-72.5 57.5q-52 -64 -136 -135q-113 -95 -177 -95q-69 0 -69 107zM430 286
q38 36 57.5 88.5t19.5 111.5q0 31 -8 73q-84 -51 -84 -163q0 -43 15 -110z" />
    <glyph glyph-name="V" unicode="V" horiz-adv-x="643" 
d="M541 600h-16q-4 0 -25 12q-34 16 -45.5 44t-11.5 80q0 46 16.5 70t54.5 24q24 0 44.5 -16t34.5 -40t22 -52.5t8 -53.5v-12q0 -56 -23 -123t-51 -129q-24 -51 -56.5 -107.5t-74.5 -119.5q-44 -66 -114 -121q-38 -28 -71.5 -39t-60.5 -11q-41 0 -61.5 30.5t-20.5 99.5
l-69 328q-1 8 -0.5 16t0.5 12q27 -14 47.5 -35.5t32.5 -54.5q4 -10 7.5 -25.5t8.5 -40t11.5 -60t16.5 -86.5q4 -20 10 -45.5t15.5 -48t22 -37.5t28.5 -15q23 0 43 20.5t45 43.5q91 83 154 187q65 107 91 223q3 13 7.5 34.5t9.5 44.5t8.5 44.5t3.5 33.5q0 89 -83 103
q-9 -36 -9 -60q0 -32 12 -55t38 -63z" />
    <glyph glyph-name="W" unicode="W" horiz-adv-x="812" 
d="M536 723l15 15l27 3q3 -1 24.5 -7t52 -16.5t45.5 -21.5q92 -68 92 -222q0 -22 -1 -36.5t-3 -23.5q-2 -12 -6 -32q-16 -70 -60 -132q-18 -26 -41 -55t-57 -60q-43 -39 -89.5 -58t-90.5 -19q-90 0 -140 92q-3 -3 -23 -29.5t-45 -56.5t-50.5 -55t-39.5 -25h-28
q-34 0 -47 30.5t-13 80.5v137q0 11 -6 34t-13 50t-13 53.5t-6 42.5q0 24 11 52q53 -61 73 -136q4 -19 8 -58t8 -83t9 -84.5t11 -61.5q81 79 118 136q16 25 28.5 51t19.5 52l12.5 50l17.5 70q18 65 64 105q15 -31 15 -65q0 -16 -7 -45t-15 -57.5t-14.5 -49t-6.5 -18.5
q-4 -11 -4 -44q0 -126 102 -126q12 0 25 2t27 6q94 30 160 145q60 107 60 217v18q0 46 -23 82.5t-65 57.5q-46 24 -76 48.5t-42 46.5z" />
    <glyph glyph-name="X" unicode="X" horiz-adv-x="764" 
d="M33 -68l-13 14v14q0 29 24.5 76.5t49.5 97.5l172 234q9 21 14 31.5l5 10.5q0 6 -5 15t-27 25l-164 124q-20 16 -38 39t-18 45q0 24 15 24q8 0 21 -8t28 -20t31 -26t29 -28q98 -100 178 -150q24 39 40.5 64t25.5 38q7 10 17 22.5t20 23t20 17.5t17 7q12 0 12 -22
q0 -19 -5.5 -34t-14.5 -30t-22 -32t-28 -40q-18 -28 -18 -48q0 -9 7.5 -20t17 -21.5t19 -19.5t14.5 -14q29 -32 56 -63t53 -60q5 -6 27 -37.5t49.5 -70t55.5 -74.5t46 -50q-86 0 -133 48q-16 16 -33.5 48.5t-38.5 81.5q-27 65 -137 136q-3 2 -9 8t-13.5 12t-15 11t-13.5 5
q-13 0 -31 -11.5t-36 -27.5t-34 -34t-25 -31q-35 -49 -60 -86t-40 -61q-21 -32 -44 -70.5t-48 -82.5z" />
    <glyph glyph-name="Y" unicode="Y" horiz-adv-x="681" 
d="M429 518q17 21 41 52.5t59 73.5q27 33 61 49.5t71 16.5q-18 -52 -66 -105q-8 -9 -35 -33.5t-58 -53t-59.5 -55t-40.5 -40.5q-37 -43 -44 -53q-14 -18 -20.5 -34t-6.5 -42v-34q0 -26 3 -41.5t3 -18.5q0 -16 -2.5 -50t-6 -70.5t-6 -70t-2.5 -50.5q-32 46 -46 111
q-4 17 -12 67.5t-24 134.5q-4 24 -23 53t-44 57q-15 17 -37.5 44t-52.5 62q-25 31 -40.5 63t-20.5 63q32 -6 65 -34t65 -77q16 -27 41.5 -67.5l59.5 -94.5q24 14 48 35t48 47q18 19 38.5 42.5t43.5 52.5z" />
    <glyph glyph-name="Z" unicode="Z" horiz-adv-x="928" 
d="M279 656l14 12h30q9 0 21.5 -4t24 -9.5t20 -10t10.5 -4.5q29 -4 52 -7t39 -7q23 -4 55 -4q26 0 76.5 11.5t105.5 25.5t105 25.5t76 11.5q-26 -61 -159 -135q-90 -49 -114 -69q-49 -40 -106.5 -89.5t-123.5 -109.5l-112 -103q27 -6 65 -6q8 0 17.5 0.5t22.5 1.5
q15 0 25 0.5t15 1.5q29 0 52.5 -5t43.5 -17q16 -10 39.5 -32.5t47.5 -47t46 -45.5t36 -27q-57 0 -206 74q-70 35 -136 35l-341 -109q29 56 113 126q3 3 35.5 26t74.5 54t84.5 63.5t66.5 53.5q17 15 44 41t63 62l106 106q-29 4 -71.5 11.5t-98.5 18.5q-50 10 -89.5 30.5
t-68.5 49.5z" />
    <glyph glyph-name="bracketleft" unicode="[" horiz-adv-x="426" 
d="M296 682q-5 -3 -31 -12.5t-58 -22t-64.5 -25.5t-51.5 -22q19 -40 26 -73t7 -77q0 -11 -6 -50t-13 -86.5t-13 -94.5t-6 -75q0 -32 5 -62q5 1 11.5 2.5t15.5 1.5h24q31 0 61.5 -9.5t64.5 -26.5q112 -56 138 -64h-14h-11q-7 0 -37 7t-67.5 15t-75 15t-59.5 7q-14 0 -39 -4
t-39 -4q-44 0 -44 36q0 14 5 36t12 56q8 40 12 74t7 60q4 30 6 61.5t2 64.5q0 17 -3.5 39t-9.5 49q-29 122 -29 158q132 0 246 40l6 -2q9 -3 12 -7.5t10 -4.5z" />
    <glyph glyph-name="backslash" unicode="\" horiz-adv-x="404" 
d="M384 14h-16q-21 0 -46.5 19.5t-50.5 45.5t-46 53.5t-33 44.5q-44 59 -72 112q-16 29 -28 60t-22 61q-2 5 -10 25.5t-17 44.5t-16 46.5t-7 32.5q0 43 50 55q9 -32 17.5 -60t16.5 -54q11 -38 20.5 -66.5t17.5 -49.5q10 -28 23 -56t27 -56l26 -30t59.5 -72t65 -85.5
t41.5 -70.5z" />
    <glyph glyph-name="bracketright" unicode="]" horiz-adv-x="436" 
d="M170 587l14 13q4 14 37.5 18t88.5 12q58 0 82 -20t24 -70q0 -16 -3 -34.5t-8 -40.5l-31 -124q-2 -24 -3.5 -45t-1.5 -39q0 -93 46 -175q-29 -16 -60.5 -30t-64.5 -26q-84 -31 -150 -31q-80 0 -120 46q7 1 14.5 1.5t17.5 0.5h55q34 0 58.5 1.5t40.5 3.5q55 9 86 34
q27 22 27 46q0 26 -7.5 55t-7.5 47q0 21 7 65t15 89.5t15 81t7 39.5v7q0 31 -14.5 48.5t-44.5 17.5q-20 0 -50 3t-69 6z" />
    <glyph glyph-name="asciicircum" unicode="^" horiz-adv-x="463" 
d="M33 410l-13 13l13 13v4q0 8 4.5 17t10.5 20q16 29 29 50t38 60q7 11 21 33.5t30.5 49t31.5 52.5t24 43q18 34 71 40q0 -137 33 -233q33 -99 117 -204q-109 0 -156 96q-1 4 -20 48t-56 129q-7 -11 -21.5 -36t-36.5 -65q-60 -112 -120 -130z" />
    <glyph glyph-name="underscore" unicode="_" horiz-adv-x="517" 
d="M20 14v12l14 15q6 6 32 12t62 11t76.5 9t74 7t55 4.5t19.5 1.5q111 0 144 -60q-16 -4 -52 -4q-7 0 -22.5 1t-33 2t-32.5 2t-23 1q-32 0 -116 -12l-103 -16q-5 -1 -14.5 -4t-14.5 -3q-19 0 -31.5 6.5t-34.5 14.5z" />
    <glyph glyph-name="grave" unicode="`" horiz-adv-x="272" 
d="M74 723q11 -3 28 -21.5t35.5 -43.5t36.5 -51t32 -44q36 -45 46 -86q-109 19 -232 219q7 14 20.5 21t23.5 7q7 0 10 -1z" />
    <glyph glyph-name="a" unicode="a" horiz-adv-x="822" 
d="M800 123l-27 -28q-9 -48 -51.5 -78.5t-93.5 -30.5q-32 0 -61 17t-54 40q-26 23 -35 23q-12 0 -60 -25q-128 -68 -161 -80q-54 -19 -107 -19h-17.5t-28.5 4q-45 8 -64.5 34.5t-19.5 62.5q0 43 30 121q35 92 110 190q77 101 162 151q16 9 30 16l26 13q32 13 55 13
q26 0 39.5 -15t13.5 -55q0 -50 -2 -87t-6 -60q-15 -86 -60 -125q-17 36 -17 83q0 8 1.5 25t3 35.5t3 35.5t1.5 26q0 33 -6 54q-105 -24 -215 -148q-113 -127 -113 -234q0 -96 84 -96q71 0 218 82q37 20 109 124q57 84 121 84q7 0 13.5 -1t14.5 -3q0 -12 -10 -34t-22 -45.5
t-22 -45t-10 -31.5q0 -12 7.5 -25t18.5 -24.5t25 -18.5t26 -7q15 0 43 14t54 30t43 28.5t11 9.5z" />
    <glyph glyph-name="b" unicode="b" horiz-adv-x="488" 
d="M130 300l14 14v14q18 50 31.5 87t22.5 59q45 106 104 106q30 0 60 -21q106 -72 106 -225q0 -114 -51 -226q-63 -138 -147 -138q-40 0 -66 25t-50 77q-23 50 -52 64h-13l-13 -13l-14 13v14q-32 32 -37 87.5t-5 120.5v24q0 29 2.5 88t5 123.5t5 123.5t2.5 88q0 14 -0.5 30
t-1.5 33l-3 50q-3 50 14.5 81t44.5 39q17 -71 17 -166q0 -23 -2.5 -68.5t-6 -95t-6 -95t-2.5 -67.5v-192q0 -44 4 -47q18 -2 37 -7zM253 26h15q15 0 34 18t37 43t31.5 50t18.5 40q17 54 17 113q0 102 -50 173q-25 35 -53 35q-13 0 -25 -9.5t-22 -24t-18 -32t-14 -34.5
q-1 -4 -8 -23t-15 -46.5t-14.5 -59.5t-6.5 -61q0 -44 22 -84.5t51 -97.5z" />
    <glyph glyph-name="c" unicode="c" horiz-adv-x="830" 
d="M810 150l-27 -27q-11 -11 -33.5 -23t-50.5 -23.5t-56.5 -21t-50.5 -14.5l-184 -42q-49 -11 -92 -16t-81 -5q-23 0 -46.5 2t-46.5 6q-122 24 -122 120q0 65 60 152q52 76 116 124q8 6 33 28t65 60q28 26 55 45t52 31q13 6 29 20.5t33.5 29.5t36 28t37.5 17q0 -83 -15 -173
q-9 -50 -21.5 -91t-28.5 -74q-28 -59 -80 -59h-7.5t-10.5 2l44 200q2 6 0 15t-4 16q-142 -79 -259 -218q-63 -75 -63 -133q0 -26 13.5 -45.5t36.5 -32t53 -18.5t63 -6q57 0 134 20q26 7 62 16.5t83 21.5q31 7 133 68q46 26 73 26q33 0 67 -26z" />
    <glyph glyph-name="d" unicode="d" horiz-adv-x="655" 
d="M20 0v26q0 29 28 67t67 84q5 5 16.5 15.5t23 23.5t20.5 27.5t9 28.5q0 4 -6.5 23.5t-15 44t-15 49t-6.5 39.5q0 34 12.5 69.5t32.5 66.5q20 30 43 48t50 29q19 7 33 11.5t26.5 6.5t25.5 2.5t32 0.5q85 0 115 -62q24 -48 24 -102q0 -141 -174 -334q79 -64 142 -64
q69 0 132 77q0 -55 -60 -90q-53 -31 -126 -31q-41 0 -74 12q-2 1 -15 6.5t-31.5 12t-27.5 6.5q-18 0 -147 -75q-41 -25 -80 -25q-26 0 -54 7zM320 190l27 28q37 39 70 81t52 103q9 28 14 53t5 51q0 45 -21 76.5t-65 31.5q-40 0 -77 -19.5t-65.5 -50.5t-45.5 -70t-17 -78
q0 -54 36 -79q16 -11 28.5 -13t21.5 -6.5t13.5 -16.5t4.5 -43q0 -2 19 -48zM47 26l14 -12h26q18 0 45 10t52.5 26.5t44 38.5t18.5 47q0 22 -16.5 37t-34.5 15q-19 0 -42 -17t-44 -42t-38 -53t-25 -50z" />
    <glyph glyph-name="e" unicode="e" horiz-adv-x="835" 
d="M735 65v-13l-11 -15l-20 -10q-15 -7 -40.5 -10.5t-43.5 -5.5l-211 -27q-5 -1 -10 -1h-11q-12 0 -24 0.5t-19 0.5q-15 0 -38.5 2.5t-48.5 5.5t-47 5.5t-35 2.5q-26 0 -53 10.5t-54 26.5q-29 16 -39 27.5t-10 29.5q0 42 82 118q58 54 119.5 99.5t126.5 80.5q78 43 150 65
t137 22q117 0 160 -51q20 -24 20 -59q0 -26 -13.5 -56.5t-34.5 -58t-46.5 -50t-49.5 -32.5q-33 -14 -58 -24t-43 -16q-72 -25 -124 -25q-27 0 -72 9t-88.5 25t-76.5 38.5t-35 48.5q15 -9 51 -19t74.5 -18.5t69.5 -15t36 -9.5q24 -8 44 -14.5t39 -6.5q38 0 71.5 11t69.5 26
q39 17 66 41.5t49 57.5q12 19 25 36t13 36q0 42 -36 69.5t-80 27.5q-33 0 -57.5 -7.5t-66.5 -17.5q-70 -17 -125.5 -39t-102.5 -45q-114 -58 -207 -157q-11 -12 -30 -31t-19 -38q0 -26 13 -41t35.5 -22.5t52.5 -10.5t63 -6q20 -2 57 -5.5t92 -3.5h44q86 0 166.5 11t153.5 28
z" />
    <glyph glyph-name="f" unicode="f" horiz-adv-x="881" 
d="M538 750q6 0 23 10.5t35.5 23t33.5 23.5t17 12q27 9 55 9q53 0 93.5 -28t57.5 -77q8 -26 8 -49q0 -66 -70 -96q-49 -23 -127 -23q-73 0 -126 19q-14 4 -31.5 14.5t-27.5 10.5q-17 0 -37.5 -21t-39 -52t-33.5 -66.5t-22 -63.5q11 -3 57.5 -7t101 -9t103.5 -11.5t66 -14.5
h-116q-73 0 -124 -9.5t-79 -30.5q-22 -17 -35.5 -44t-13.5 -65q0 -53 -15 -102.5t-39 -94.5q-54 -105 -151 -116q51 35 75 64q35 42 50 110q15 66 15 164v33q-1 10 -1.5 22.5t-2.5 28.5q-23 -6 -59.5 -12t-59.5 -6q-58 0 -99 32q45 4 80.5 9t60.5 10q92 17 118 63
q7 13 41.5 70.5t94.5 160.5q5 9 12 27.5t14.5 40.5t15 44.5t14.5 38.5q11 -9 21 -17t21 -14q16 -11 25 -11zM811 682q0 92 -70 92q-24 0 -55.5 -13t-63 -33t-58 -43t-39.5 -44q85 -53 180 -53q106 0 106 94z" />
    <glyph glyph-name="g" unicode="g" horiz-adv-x="844" 
d="M115 -300l27 -28q15 -50 109 -116q91 -64 151 -74q36 -6 64 -6q113 0 190 59q87 66 87 179q0 73 -49 144q-3 5 -19.5 32t-39 59t-47 61t-43.5 37q-31 13 -73 13h-53h-44q-35 0 -62 4.5t-49 17.5q-65 37 -65 84q0 64 107 135q103 71 256 107q54 12 98 12q41 0 70 -10
q21 -7 31.5 -18.5t14.5 -26.5t5 -32t3 -33q2 -5 8 -13t13.5 -17t13 -19t5.5 -19q0 -27 -28 -47.5t-62 -39t-62 -37t-28 -40.5q0 -13 17.5 -51t39 -80t40.5 -78t23 -45q14 -31 21.5 -57t7.5 -54q0 -66 -50 -139q-79 -114 -238 -114q-138 0 -280 84q-148 88 -205 207
q40 8 86 8q127 0 200 -35q-15 2 -30 2h-29q-62 0 -132 -16zM730 328l-15 13q-6 13 -25.5 16t-39.5 3q-84 0 -153 -19q-31 -8 -64.5 -25.5t-71.5 -43.5q-89 -59 -89 -111q0 -23 17 -39t41 -26.5t51 -15t47 -4.5q110 0 110 101q0 88 54 116q11 5 138 35zM756 218l-13 14
q-16 25 -59 25q-30 0 -59 -15.5t-29 -47.5q0 -17 24 -71q90 38 136 95z" />
    <glyph glyph-name="h" unicode="h" horiz-adv-x="494" 
d="M24 26v69q0 29 2 64t6 79q18 180 18 228q0 80 -12 132l-16 70q-5 22 6.5 38t16.5 16q15 0 27.5 -19t20.5 -44.5t12.5 -51.5t4.5 -39v-42q0 -19 -2.5 -57.5t-5.5 -81t-5.5 -80.5t-2.5 -57q0 -63 12 -114q8 10 23.5 34.5t40.5 63.5q69 112 140 120q27 -160 96 -259
q31 -29 45.5 -43.5t22.5 -37.5h-6q-53 0 -90 29t-64 86q-7 13 -21.5 45.5t-36.5 84.5l-90 -151q-61 -82 -142 -82z" />
    <glyph glyph-name="i" unicode="i" horiz-adv-x="330" 
d="M37 641q-17 31 -17 50q0 21 29 21q18 0 42 -6l41 -10q103 -27 178 -109q-52 -35 -114 -35q-111 0 -159 89zM50 660q0 -21 19 -35.5t47.5 -23.5t60.5 -13t59 -4h19q5 0 8 1.5t5 1.5q-6 15 -29 31t-51.5 30t-57 23t-45.5 9q-35 0 -35 -20zM104 205q0 1 -23 81q-9 32 -9 45
q0 40 47 51q17 -64 30.5 -113t23.5 -83q31 -108 69 -200q-65 15 -98 84q-20 42 -40 135z" />
    <glyph glyph-name="j" unicode="j" horiz-adv-x="675" 
d="M457 532q-27 -72 -84 -72q-27 0 -53 14t-46.5 36.5t-33 50t-12.5 53.5q0 36 26.5 59t64.5 23q26 0 51.5 -11t46 -29.5t33.5 -42.5t13 -50q0 -15 -6 -31zM333 628l-13 -14v-27q0 -5 -1 -9t-1 -6q0 -17 10.5 -35t19.5 -32q52 37 52 73q0 38 -67 50zM109 -177q7 -17 18 -31
t30 -38q45 -59 136 -116q107 -67 184 -67q88 0 116 88q11 36 11 69q0 88 -82 252q-21 42 -37.5 77.5t-27.5 65.5q-6 17 -16.5 42t-20.5 52.5t-17 53t-7 43.5q0 25 11 43t36 25l37 -129q16 -57 35 -110t38 -102q11 -26 26.5 -63.5t36.5 -93.5q19 -50 29 -93t10 -77
q0 -135 -144 -164q-29 -6 -54 -6q-147 0 -281 124q-130 122 -156 264q30 8 53 8q40 0 84 -35q-23 3 -44 3q-15 0 -38 -3v-3q0 -11 11.5 -33.5t22.5 -45.5z" />
    <glyph glyph-name="k" unicode="k" horiz-adv-x="682" 
d="M34 -14v28q-14 31 -14 76q0 6 4 42t12 102q5 47 8 114.5t3 156.5q0 10 -0.5 23.5t-0.5 31.5t-1 31.5t-1 22.5q0 66 12 108q18 55 60 70q2 -11 5 -46t7.5 -76.5t10.5 -79.5t15 -56q31 -57 112 -84q47 -14 100 -14q102 0 173 43q81 49 81 135q26 -29 42 -40
q-70 -109 -222 -157q-22 -7 -56 -16t-78 -19q16 -22 33.5 -37t37 -28t42.5 -26.5t51 -31.5q30 -29 50 -48t30 -30q90 -95 90 -185q0 -23 -6 -50q-5 10 -15 33.5t-22 49t-24 48.5t-21 31q-186 176 -423 274q-4 -14 -6.5 -56t-5 -90.5t-5 -91.5t-5.5 -58q-18 -79 -73 -100z
" />
    <glyph glyph-name="l" unicode="l" horiz-adv-x="460" 
d="M47 0v26q0 11 17 33.5t37.5 46.5t37.5 46.5t17 33.5q0 21 -21 48l-61 80q-8 10 -17 31t-17.5 45.5t-14 48t-5.5 38.5q0 101 51 187q60 103 157 103q49 0 81.5 -19.5t48.5 -63.5q17 -46 17 -125q0 -133 -55 -245q-3 -5 -15 -21t-25.5 -36.5t-24.5 -40.5t-11 -32
q0 -16 10 -36t25 -40.5t33 -38t35 -28.5q7 -5 25 -14t45 -23q3 -2 9 -5.5t10 -6.5t3 -5.5t-12 -2.5q-35 0 -74 27t-102 71q-3 2 -10 7.5t-15 12.5t-16.5 12t-13.5 5q-14 0 -27 -11.5t-25 -28t-22.5 -34.5t-19.5 -31q-11 -8 -16 -11t-8.5 -4t-7.5 0t-13 1h-10zM197 218l28 28
q9 5 21.5 22t24.5 38t21.5 41.5t14.5 34.5q23 75 23 167q0 166 -98 166q-80 0 -115 -78q-5 -9 -10.5 -26.5t-11 -38.5t-9 -44t-3.5 -44q0 -66 36 -138q13 -26 32 -58t46 -70z" />
    <glyph glyph-name="m" unicode="m" horiz-adv-x="765" 
d="M526 300q9 9 27 28.5t40 39.5t43.5 35t36.5 15q27 0 34.5 -30t7.5 -76q0 -9 0.5 -17.5t0.5 -18.5q-1 -23 -1 -39.5v-26.5q0 -44 7 -86.5t23 -82.5q-79 12 -91 107q-3 28 -7.5 69t-11.5 97q-36 -32 -71 -86q-27 -45 -51 -105q-11 -26 -21 -47t-20 -35q-14 -20 -21.5 -26.5
t-16.5 -6.5q-4 0 -20 3t-24 3q53 154 53 218q0 38 -9 69.5t-31 66.5q-31 -26 -69.5 -73t-82.5 -118q-31 -51 -51.5 -82t-28.5 -42q-21 -27 -30 -35q-22 -22 -45 -22q-26 0 -37.5 14.5t-11.5 38.5q0 7 1 23t1 23q0 9 -4.5 30t-10 44t-10 43.5t-4.5 29.5q0 46 55 58
q6 -20 42 -177q51 31 101 100q14 19 35 49t50 69q49 64 114 95q19 -8 31.5 -17t23.5 -23.5t23.5 -37t30.5 -58.5z" />
    <glyph glyph-name="n" unicode="n" horiz-adv-x="580" 
d="M109 177l41 28q169 169 233 169q23 0 38 -14t24 -36t12.5 -49.5t3.5 -55.5v-82q0 -21 3 -38.5t13.5 -33.5t30 -31.5t52.5 -33.5q-122 0 -141 76l-23 170q-18 56 -55 56q-19 0 -41 -16t-43 -39t-39 -49.5t-27 -47.5q-4 -9 -11.5 -25.5t-15.5 -33.5t-15 -31t-12 -19
q-11 -11 -28.5 -18t-53.5 -23q0 23 -2.5 50.5t-7.5 57.5q-12 73 -18.5 117.5t-6.5 60.5q0 18 2 35t5 33q18 -16 29 -30.5t19 -33.5t15.5 -46t18.5 -67z" />
    <glyph glyph-name="o" unicode="o" horiz-adv-x="720" 
d="M72 341h-13l-14 13q-8 8 -13.5 23t-5.5 52q0 23 5 35q9 17 29.5 29.5t48 22t60.5 16.5t67 14q68 14 140 21t147 7q81 0 128 -44q49 -45 49 -126q0 -125 -95 -214q-91 -85 -197 -140q-62 -32 -116 -48t-110 -16q-8 0 -24 -1t-23 -1q-47 0 -81 23t-34 72q0 39 19.5 77
t45.5 90q9 18 21.5 49.5t31 63t42.5 54.5t56 23q-9 -56 -43 -116q-87 -158 -93 -184q-1 -2 -4 -10.5t-6.5 -19.5t-6 -21.5t-2.5 -16.5q0 -25 19 -40.5t48 -15.5q21 0 40.5 4.5t47.5 9.5q152 29 275 116q148 106 148 240q0 94 -70 129q-49 23 -151 23h-34q-74 0 -129.5 -8.5
t-94.5 -20.5q-112 -34 -112 -124v-15q0 -9 4 -25z" />
    <glyph glyph-name="p" unicode="p" horiz-adv-x="695" 
d="M375 -314h-28q0 -1 -6.5 -1.5t-10.5 -0.5q-52 0 -134 118q-34 50 -57.5 91t-36.5 76q-9 23 -22.5 57t-30.5 80q-15 40 -22 77.5t-7 69.5q0 126 123 170q78 27 168 27q171 0 282 -78q82 -57 82 -126q0 -117 -98 -182q-86 -56 -208 -56q-66 0 -118 18q6 20 12 36l16 33
q39 -62 117 -62q74 0 145 53q74 57 74 130q0 76 -90 126q-109 60 -230 60q-51 0 -91.5 -12t-74.5 -36q-57 -40 -57 -110q0 -20 3 -47t14 -52t32 -42.5t56 -17.5q7 0 17.5 -14.5t22 -37t24 -49.5t24.5 -52q19 -40 46 -102t64 -144z" />
    <glyph glyph-name="q" unicode="q" horiz-adv-x="712" 
d="M110 238q-3 -12 -3 -27q0 -55 59 -87q50 -29 116 -29h20h23q34 0 53 28v13l-14 14l14 14h14l26 26q9 9 11.5 29.5t2.5 39.5q0 55 -25.5 75t-78.5 20h-32q-20 0 -49 -5.5t-53 -17.5q-68 -33 -84 -93zM487 123l13 -15l14 -13h19.5t28.5 1q28 2 53 13t25 37q0 9 -8.5 18.5
t-19.5 18t-23.5 14.5t-19.5 8q-31 0 -47 -21.5t-35 -60.5zM310 26l-14 15q-12 13 -36 13h-19q-49 0 -87.5 12t-66 31.5t-44 44t-20.5 48.5q-3 18 -3 36q0 94 116 151q93 46 200 46q33 0 60 -8t52 -23q53 -33 66 -92q5 -22 15 -33.5t23 -17t28 -8.5t30 -9q28 -12 43 -25.5
t15 -35.5q0 -24 -7.5 -45.5t-26.5 -37t-51.5 -25t-82.5 -9.5q-44 0 -79.5 -32t-64.5 -82q-26 -45 -40 -89.5t-14 -90.5q0 -16 2 -31t6 -29q21 -75 99 -114q13 -7 53 -20.5t85.5 -30t87 -34.5t57.5 -33q-38 6 -92 17t-128 27q-90 20 -148 65t-84 111q-14 36 -14 74
q0 54 30 130q10 28 24 61.5t30 72.5z" />
    <glyph glyph-name="r" unicode="r" horiz-adv-x="655" 
d="M538 518q1 0 13.5 -5t28.5 -12.5t32 -17.5t23 -19q-126 43 -244 43q-91 0 -166 -30q-68 -27 -92 -109q-18 -57 -18 -150q0 -2 1 -18t2 -35l2 -38t1 -27q0 -44 -11.5 -77t-48.5 -49q-41 179 -41 354q0 81 29 101q3 3 28.5 15.5t56.5 27t58.5 27t34.5 14.5q23 8 53.5 16.5
t66.5 16.5q3 -5 26.5 -9t53.5 -8t61 -6.5t50 -4.5z" />
    <glyph glyph-name="s" unicode="s" horiz-adv-x="873" 
d="M74 164l28 -28q5 -11 19.5 -25t33 -27.5t37.5 -25t33 -17.5q33 -14 77 -20.5t99 -6.5h31h29h10q61 0 136 28q25 10 55.5 25t57.5 34t45 40.5t18 44.5q0 67 -115 88q-19 3 -47.5 8.5t-67.5 13.5q-43 8 -105.5 19.5t-144.5 25.5q-68 12 -121 29q-91 32 -91 70
q0 21 12.5 34.5t33 22t46 14t51.5 12.5q20 5 48.5 10.5t56 10.5t50.5 8.5t30 5.5q90 14 152 14q198 0 198 -98q0 -21 -12 -51q-44 41 -76 67q-54 42 -102 42q-174 0 -410 -82q69 -69 212 -90q40 -5 99.5 -13t139.5 -19q46 -7 83 -16.5t64 -19.5q86 -30 86 -80
q0 -16 -7.5 -31t-20.5 -31q-67 -85 -203 -134q-120 -42 -243 -42q-127 0 -215 44q-106 51 -144 159q58 30 77 30t59 -17q-32 0 -46.5 -8.5t-35.5 -17.5z" />
    <glyph glyph-name="t" unicode="t" horiz-adv-x="609" 
d="M267 682q7 -29 10.5 -49.5t3.5 -32.5q0 -10 -0.5 -18t-0.5 -16q0 -29 20 -39t52 -10q14 0 30 1.5t32 2.5l20 4.5t47.5 9.5t55.5 9.5t44 4.5q8 0 8 -2q0 -9 -25.5 -21t-61.5 -24t-74.5 -22t-64.5 -16q-10 -2 -27.5 -5t-35 -9.5t-31.5 -19t-16 -34.5l-40 -396h-55
q0 55 9 130q9 86 14 139t5 72q0 81 -43 103l-39 19.5t-40 25t-31.5 34t-12.5 45.5q0 31 21 48.5t50 17.5q35 0 56.5 -26.5t51.5 -75.5q11 17 14 39t10 49q6 22 18 38t26 24zM63 587q-20 -19 -20 -36q0 -19 19.5 -30.5t45.5 -16.5t52 -4.5t39 5.5q-28 39 -53 67t-53 28
q-17 0 -30 -13z" />
    <glyph glyph-name="u" unicode="u" horiz-adv-x="784" 
d="M630 560v-15q2 -4 1 -10t-1 -9q0 -13 -5 -30t-12 -34.5t-15 -34.5t-14 -31l-38 -82q-19 -41 -19 -72q0 -48 45 -92q10 -10 38.5 -17t60 -11.5t58.5 -7.5t35 -6q-10 0 -30 -2t-42 -5t-41.5 -5t-29.5 -2h-12.5t-8.5 1q-23 0 -35.5 3t-26.5 12.5t-33.5 28.5t-55.5 51
q-41 -37 -89 -70.5t-102 -65.5q-14 -9 -33.5 -20.5t-44.5 -25.5q-56 -30 -89 -30q-32 0 -51.5 24.5t-19.5 61.5q0 22 7 43t18 44.5t24 49.5t26 58q19 46 34.5 83.5t32.5 67.5q10 16 18.5 37t17.5 39t18.5 30.5t20.5 12.5q10 0 19 -9t9 -21q0 -15 -11.5 -39t-30 -58.5
t-43.5 -81.5t-52 -110q-48 -110 -48 -184q78 0 160 44q143 78 182 138q27 40 27 120q0 70 44 140q4 7 27.5 36.5t65.5 82.5h4q12 0 26 -13.5zM600 546l-41 -28q-13 -9 -26.5 -28.5t-24.5 -42.5t-17.5 -45t-6.5 -36q0 -24 20 -66q53 37 76 108q20 60 20 138z" />
    <glyph glyph-name="v" unicode="v" horiz-adv-x="617" 
d="M133 68l26 27q38 15 75 59t76 92q32 39 63 72.5t63 61.5q84 72 161 84q-7 -7 -39 -34.5t-72 -61.5t-78 -68t-57 -54q-20 -21 -37.5 -50.5t-39.5 -61.5q-22 -30 -45.5 -54t-45.5 -41q-54 -41 -119 -53q-8 36 -16 81t-15 99q-7 52 -10 98t-3 86t3 73q65 -32 78 -160
q18 -167 32 -195z" />
    <glyph glyph-name="w" unicode="w" horiz-adv-x="793" 
d="M580 600l13 14h15q27 18 70 18q27 0 45 -14t29 -35.5t15.5 -48t4.5 -50.5q0 -11 0.5 -22t0.5 -22v-11t-1 -12q-2 -13 -5 -32t-10 -44q-16 -59 -41 -117.5t-77 -115.5q-105 -114 -223 -134q-9 -2 -15.5 -3t-10.5 -1q-28 0 -46 11t-29.5 32t-19 52t-15.5 71
q-27 -24 -50.5 -44t-43.5 -36q-68 -56 -105 -56q-23 0 -33.5 21t-13.5 61q-2 24 -4.5 71t-4.5 99.5t-3.5 99.5t-1.5 71q12 0 55 13q4 -21 8 -71.5t9.5 -107.5t11 -110t12.5 -79q48 30 82 61q21 19 37 37t30.5 38t29.5 43t34 50q37 50 73 71q2 -4 2 -12q0 -17 -6 -52t-14 -73
t-14 -73t-6 -52q0 -36 12 -57t40 -21q22 0 54 13q54 22 102 63t84 93.5t57 112t21 118.5q0 26 -5 52t-15.5 47t-27 34t-38.5 13q-23 0 -52 -17q-3 0 -16 43z" />
    <glyph glyph-name="x" unicode="x" horiz-adv-x="558" 
d="M20 0v16q0 13 20.5 41.5t46.5 59.5t50.5 59.5t31.5 41.5q17 29 17 62q0 9 -3.5 30.5t-8.5 46t-10 47t-8 34.5q-1 5 -4.5 20.5t-7 33t-6.5 34t-3 23.5q0 22 15.5 36.5t46.5 14.5q7 0 11.5 -19.5t7 -49.5t4.5 -67t4 -72t5 -63.5t9 -42.5q22 17 48.5 43.5t52.5 60.5
q15 20 37 49.5t53 69.5q51 64 109 91q0 -84 -87 -182q3 3 -22 -20t-56.5 -57t-58 -72t-26.5 -65q0 -43 39 -94q1 -2 22 -25.5t46.5 -53.5t48 -58.5t27.5 -40.5q-111 39 -206 150q-39 47 -56 47q-13 0 -32 -22.5t-40.5 -49.5t-46 -49.5t-49.5 -22.5q-18 0 -21 15z" />
    <glyph glyph-name="y" unicode="y" horiz-adv-x="634" 
d="M580 656h26q8 -38 8 -69q0 -62 -34 -135q-10 -23 -26.5 -57t-36.5 -79q-33 -74 -33 -152v-478q0 -8 0.5 -26t0.5 -37t0.5 -37t0.5 -26q0 -47 -2 -81t-6 -55q-15 -97 -70 -97q-31 0 -74 32q-39 29 -72.5 66.5t-61.5 82.5q-18 28 -41 74t-51 109q-28 65 -50 111.5t-38 74.5
q4 1 12.5 4t19.5 7q20 6 38 6h17.5t21.5 -2h13q-13 0 -33.5 -8.5t-46.5 -19.5q5 -22 15.5 -45t24.5 -49q38 -68 58 -106t23 -46q25 -66 90 -141q69 -79 129 -105q18 53 27.5 116.5t9.5 137.5v105q0 71 -5 113t-5 61v43q0 104 -3 143q-6 75 -24 141q-14 -8 -33 -19t-45 -25
q-45 -26 -86 -26q-54 0 -78.5 38.5t-24.5 91.5q0 22 5 49t15 51.5t24 44t32 27.5q0 -10 -1.5 -33t-3 -47t-3 -43.5t-1.5 -22.5q0 -106 58 -106q54 0 98 38t70 84q11 33 17.5 52t11.5 35t11 33.5t16 48.5q34 101 96 153z" />
    <glyph glyph-name="z" unicode="z" horiz-adv-x="749" 
d="M208 455l18 -13q13 -2 36.5 -4t48.5 -4t45.5 -3.5t26.5 -1.5q30 0 54.5 2.5t42.5 8.5q15 5 42 19.5t56 29.5t55.5 27t39.5 12q37 0 56 -36q-137 -48 -232 -112.5t-149 -139.5q1 -8 6.5 -8.5t14 1t17.5 4.5t17 3h24h25q20 0 38 -1.5t35 -6.5q26 -9 46.5 -20t38.5 -25.5
t37 -33.5t42 -45l-294 73h-29q-26 0 -79 -28.5t-150 -92.5q-71 -46 -117 -46q32 91 163 163q49 27 100.5 78.5t105.5 126.5l-7 3t-15.5 6t-16.5 6t-11 3q-7 0 -19 -2t-24.5 -4t-24 -4t-18.5 -2q-28 0 -42.5 15t-26.5 47q5 22 12.5 15.5t11.5 -10.5z" />
    <glyph glyph-name="braceleft" unicode="{" horiz-adv-x="314" 
d="M294 778q-4 -8 -22.5 -24t-38 -36.5t-35.5 -42t-16 -38.5q0 -10 3.5 -28.5t12.5 -34.5l26 -46q16 -29 16 -51q0 -20 -14 -53l-41 -96q-5 -11 -22.5 -37t-36 -56t-33.5 -58.5t-15 -43.5q0 -50 38.5 -79.5t95.5 -29.5h68q-21 -14 -48.5 -24.5t-60.5 -10.5q-30 0 -54.5 10.5
t-44.5 23.5q-52 35 -52 99v7q0 44 25 85.5t47 80.5q28 52 28 85q-8 4 -13 -5t-9 -15q2 9 6 24q1 3 10.5 11.5t21.5 18.5t22.5 20t13.5 16q10 20 10 38t-14 44q-16 29 -30 60t-14 58q0 43 40 78q3 2 16.5 13t32 23t39.5 22t38 10v-4q0 -3 -3 -5.5t-3 -4.5q0 -4 10 -4z" />
    <glyph glyph-name="bar" unicode="|" horiz-adv-x="193" 
d="M173 -54l-33 -16h-24q-52 0 -74 41t-22 108v86q0 29 5 67t12 86q5 36 11 93.5t12 134.5q9 37 26 60.5t46 34.5q8 -43 8 -99q0 -31 -2 -61t-6 -59l-28 -204q-4 -27 -9.5 -63.5t-5.5 -80.5q0 -50 18.5 -82t65.5 -46z" />
    <glyph glyph-name="braceright" unicode="}" horiz-adv-x="464" 
d="M280 492q-1 -2 -5.5 -10t-10 -18.5t-10 -20.5t-4.5 -16q0 -17 16 -31t42 -14q22 0 56 8l80 20q-21 -50 -86 -90q-24 -15 -40 -27t-25 -21q-23 -20 -23 -40q0 -9 4 -22t9.5 -27.5t9.5 -27.5t4 -22q0 -62 -70 -99q-29 -15 -61 -28t-64 -13q-26 0 -46.5 11t-35.5 22
q34 4 68 7.5t68 7.5q80 26 80 75q0 14 -6.5 29t-14.5 30t-14.5 28.5t-6.5 22.5q0 12 9 26t20 28.5t20 28.5t9 26v6q0 2 -6 8t-13.5 13t-14 12.5t-7.5 7.5q-9 24 -9 41q0 25 20 57q14 21 22 35.5t8 30.5q0 3 0.5 7.5t0.5 8.5q0 15 -10.5 27t-22.5 23q-2 0 -16.5 5.5t-31 13
t-30.5 16t-14 15.5q0 14 14 34q39 -15 61.5 -24.5t26.5 -11.5q67 -34 67 -90q0 -32 -17 -78z" />
    <glyph glyph-name="asciitilde" unicode="~" horiz-adv-x="497" 
d="M251 492h2q6 -53 15 -71q13 -22 35.5 -32.5t48.5 -10.5q18 0 36.5 12t35 27t29 29t18.5 18q6 -28 6 -47q0 -34 -25 -53q-10 -6 -28.5 -12t-38.5 -10.5t-39 -7.5t-30 -3q-43 0 -75.5 21.5t-56.5 70.5q-40 -38 -81.5 -75.5t-82.5 -75.5q0 46 44 98q15 16 162 135q14 6 17 6
q5 0 4 -5.5t-1 -9.5t5 -4z" />
    <glyph glyph-name="quoteleft" unicode="&#x2018;" horiz-adv-x="298" 
d="M100 765l43 -59l110 -145q25 -2 25 -9q0 -10 -30 -10q-43 0 -84.5 43.5t-82.5 110.5q-1 2 -10.5 12.5t-21 24t-20.5 27.5t-9 24q0 40 17 40q20 0 63 -59z" />
    <glyph glyph-name="quoteright" unicode="&#x2019;" horiz-adv-x="143" 
d="M74 600l-14 14l14 14l-14 13l14 15q0 19 -14 67q0 -3 -6 15.5t-14 44t-14 52t-6 39.5q0 42 24 42q21 0 36 -26t24.5 -59.5t14 -65t4.5 -43.5q0 -73 -49 -122z" />
    <glyph glyph-name="quotedblleft" unicode="&#x201c;" horiz-adv-x="422" 
d="M74 682q14 -6 33 -28t37.5 -49.5t33 -55t19.5 -44.5q-17 10 -35 22.5t-36 29.5q-2 2 -28.5 26.5t-77.5 72.5v4q0 6 5.5 10.5t12.5 8t13.5 5t8.5 1.5q6 0 14 -3zM402 532l-14 14h-6q-5 0 -14 10.5t-19 22.5t-17.5 22.5t-9.5 10.5q-23 26 -33 47t-23 53q-20 51 -20 78
q0 26 18 29h2q12 0 21.5 -11t17.5 -28t15 -39.5t13 -44.5q1 -4 10.5 -25.5t21.5 -47.5t23 -51.5t14 -39.5z" />
    <glyph glyph-name="quotedblright" unicode="&#x201d;" horiz-adv-x="380" 
d="M32 532v14q-12 9 -12 26q0 15 10.5 40t24 50.5t26.5 46t19 25.5q22 22 55 30q0 -62 -40 -124q-6 -9 -27 -36zM264 532v27q-1 5 -1.5 8.5t-0.5 6.5q0 22 12 51t17 57q5 27 6.5 43t7 25t17.5 11.5t38 2.5q-4 -20 -10 -53.5t-17 -68.5t-27.5 -65.5t-41.5 -44.5z" />
    <glyph glyph-name="endash" unicode="&#x2013;" 
d="M20 286h41q14 4 51.5 8t76.5 7t69 4.5l30 1.5q94 10 153.5 15.5t83.5 5.5q-34 -22 -94.5 -34t-124.5 -22q-9 -1 -54.5 -9.5t-129.5 -24.5q-32 0 -59 11t-43 37z" />
    <glyph glyph-name="emdash" unicode="&#x2014;" 
d="M20 286h41q14 4 51.5 8t76.5 7t69 4.5l30 1.5q94 10 153.5 15.5t83.5 5.5q-34 -22 -94.5 -34t-124.5 -22q-8 -1 -53.5 -9.5t-130.5 -24.5q-32 0 -59 11t-43 37z" />
    <glyph glyph-name="nonbreakingspace" unicode="&#xa0;" horiz-adv-x="500" 
 />
    <glyph glyph-name="FLW168" unicode="&#xa8;" horiz-adv-x="685" 
d="M244 928h14l26 -28q15 -15 15 -63q0 -11 1.5 -29t1.5 -38q0 -22 -4 -40t-15 -22q109 -8 206 -37.5t176 -82.5q-42 0 -80 13q-121 40 -126 40q-17 2 -44.5 4.5t-57.5 6t-57.5 7t-44.5 7.5q-12 3 -23 4t-21 1q-26 0 -44.5 -5.5t-29.5 -9.5q-54 -18 -54 -85q0 -11 1.5 -29.5
t6.5 -44.5q2 -16 6 -40t9 -55q6 -14 33.5 -23t63.5 -15.5t73 -11t61 -8.5q113 -21 174 -42.5t72 -25.5q-18 -6 -44 -6q-35 0 -79 10.5t-97 22.5q-22 5 -50.5 11t-59 12.5t-62 13.5t-59.5 14q-21 -82 -21 -144q0 -149 116 -167q72 -12 165 -12q44 0 91 5.5t98 11.5l-38 -22
q-13 -4 -36 -10t-51.5 -11t-58.5 -9t-56 -4q-66 0 -132.5 15t-117.5 36q-28 11 -39 22.5t-11 26.5q0 11 4.5 34t4.5 34q0 20 -2.5 59.5t-5 83.5t-5 83.5t-2.5 58.5q0 3 -2.5 24.5t-5 48.5t-5 53t-2.5 38q0 87 57 96q60 9 128 9q12 0 29.5 -0.5t29.5 -1.5q-14 13 -27 30
t-13 50t6 72q1 4 4.5 20t9.5 44zM462 709l-27 27q-9 9 -18 28.5t-17 41t-13 41.5t-5 29q0 25 53 38q27 -117 27 -205z" />
    <glyph glyph-name="FLW168" unicode="&#x401;" horiz-adv-x="685" 
d="M244 928h14l26 -28q15 -15 15 -63q0 -11 1.5 -29t1.5 -38q0 -22 -4 -40t-15 -22q109 -8 206 -37.5t176 -82.5q-42 0 -80 13q-121 40 -126 40q-17 2 -44.5 4.5t-57.5 6t-57.5 7t-44.5 7.5q-12 3 -23 4t-21 1q-26 0 -44.5 -5.5t-29.5 -9.5q-54 -18 -54 -85q0 -11 1.5 -29.5
t6.5 -44.5q2 -16 6 -40t9 -55q6 -14 33.5 -23t63.5 -15.5t73 -11t61 -8.5q113 -21 174 -42.5t72 -25.5q-18 -6 -44 -6q-35 0 -79 10.5t-97 22.5q-22 5 -50.5 11t-59 12.5t-62 13.5t-59.5 14q-21 -82 -21 -144q0 -149 116 -167q72 -12 165 -12q44 0 91 5.5t98 11.5l-38 -22
q-13 -4 -36 -10t-51.5 -11t-58.5 -9t-56 -4q-66 0 -132.5 15t-117.5 36q-28 11 -39 22.5t-11 26.5q0 11 4.5 34t4.5 34q0 20 -2.5 59.5t-5 83.5t-5 83.5t-2.5 58.5q0 3 -2.5 24.5t-5 48.5t-5 53t-2.5 38q0 87 57 96q60 9 128 9q12 0 29.5 -0.5t29.5 -1.5q-14 13 -27 30
t-13 50t6 72q1 4 4.5 20t9.5 44zM462 709l-27 27q-9 9 -18 28.5t-17 41t-13 41.5t-5 29q0 25 53 38q27 -117 27 -205z" />
    <glyph glyph-name="FLW170" unicode="&#xaa;" horiz-adv-x="718" 
d="M204 259l-60 -38q-9 -2 -20 -1.5t-20.5 1.5t-16.5 2.5l-7 1.5q4 16 9 32t13 33q21 44 47.5 71t75.5 49q15 7 28 13.5t26 12.5q23 12 48 29t45 17q8 0 17 -2.5t19 -2.5q7 0 12 5.5t5 13.5q0 6 -8 23t-17.5 36l-17.5 35t-9 20q-4 14 -7 25.5t-5 20.5q-28 -14 -37 -28
t-9 -44q0 -31 -6.5 -46.5t-29.5 -32.5q-53 -37 -81 -57t-31 -22q-33 -25 -58.5 -49t-43.5 -49q-45 -58 -45 -123q0 -103 129 -135q31 -8 84 -12t128 -4q34 0 90.5 4.5t111.5 12.5t95 19t40 24q0 9 -35 9q-5 0 -15.5 -2.5t-22.5 -5t-21.5 -5t-10.5 -2.5h-27l-99 -15
q-114 -18 -188 -18q-47 0 -89 8t-75 25q-42 22 -42 78q0 -2 8.5 -3t19.5 -3l45 -8q3 1 21.5 8.5t40.5 19t22 19.5v24q0 11 -5.5 13t-20.5 3z" />
    <glyph glyph-name="FLW170" unicode="&#x404;" horiz-adv-x="718" 
d="M204 259l-60 -38q-9 -2 -20 -1.5t-20.5 1.5t-16.5 2.5l-7 1.5q4 16 9 32t13 33q21 44 47.5 71t75.5 49q15 7 28 13.5t26 12.5q23 12 48 29t45 17q8 0 17 -2.5t19 -2.5q7 0 12 5.5t5 13.5q0 6 -8 23t-17.5 36l-17.5 35t-9 20q-4 14 -7 25.5t-5 20.5q-28 -14 -37 -28
t-9 -44q0 -31 -6.5 -46.5t-29.5 -32.5q-53 -37 -81 -57t-31 -22q-33 -25 -58.5 -49t-43.5 -49q-45 -58 -45 -123q0 -103 129 -135q31 -8 84 -12t128 -4q34 0 90.5 4.5t111.5 12.5t95 19t40 24q0 9 -35 9q-5 0 -15.5 -2.5t-22.5 -5t-21.5 -5t-10.5 -2.5h-27l-99 -15
q-114 -18 -188 -18q-47 0 -89 8t-75 25q-42 22 -42 78q0 -2 8.5 -3t19.5 -3l45 -8q3 1 21.5 8.5t40.5 19t22 19.5v24q0 11 -5.5 13t-20.5 3z" />
    <glyph glyph-name="softhyphen" unicode="&#xad;" 
d="M20 286h41q23 8 43.5 11t38.5 3q34 0 70.5 2t75.5 6q95 10 153.5 15t82.5 5q-23 -15 -72 -29q-18 -5 -42 -10t-61.5 -11.5t-93 -15.5t-135.5 -24q-31 0 -57.5 11t-43.5 37z" />
    <glyph glyph-name="paragraph" unicode="&#xb6;" horiz-adv-x="601" 
d="M294 546h-26q-40 10 -80.5 19.5t-80.5 18.5q-87 33 -87 122q0 5 1 16t1 16q18 159 314 159q17 0 51 -1.5t71.5 -3.5t71.5 -3.5t51 -1.5v-68h-19q-8 0 -18 0.5t-17 -0.5v-914h-69v914h-95v-914h-69v641z" />
    <glyph glyph-name="periodcentered" unicode="&#xb7;" horiz-adv-x="180" 
d="M158 410q-14 -54 -64 -54q-28 0 -51 17.5t-23 48.5q0 26 20.5 48t49.5 22q28 0 49 -19t21 -48q0 -5 -2 -15z" />
    <glyph glyph-name="FLW184" unicode="&#xb8;" horiz-adv-x="835" 
d="M735 65v-13l-11 -15l-20 -10q-15 -7 -40.5 -11t-43.5 -5l-245 -26q-5 -1 -10 0.5t-7 1.5h-10q-15 0 -38.5 2t-49 4.5t-48.5 4.5t-36 2q-26 0 -53 10.5t-54 26.5q-29 16 -39 27.5t-10 29.5q0 42 82 118q58 54 119.5 99.5t126.5 80.5q78 43 150 65t137 22q117 0 160 -51
q20 -24 20 -59q0 -26 -13.5 -56.5t-34.5 -58t-46.5 -50t-49.5 -32.5q-33 -14 -58 -24t-43 -16q-72 -25 -124 -25q-27 0 -72 9t-88.5 25t-76.5 38.5t-35 48.5q15 -9 51 -19t74.5 -18.5t69.5 -15t36 -9.5q25 -8 44.5 -14.5t38.5 -6.5q38 0 71.5 11t69.5 26q39 17 66 41.5
t49 57.5q12 19 25 36t13 36q0 42 -36 69.5t-80 27.5q-33 0 -57.5 -7.5t-66.5 -17.5q-70 -17 -125.5 -39t-102.5 -45q-114 -58 -207 -157q-11 -12 -30 -31t-19 -38q0 -27 17 -43.5t45 -24.5t63.5 -10.5t72.5 -2.5q20 0 48.5 0.5t65.5 0.5h46q84 0 165 6.5t154 23.5zM602 751
h14l12 -28q6 -13 -7 -41.5t-33 -62.5t-42.5 -68.5t-35.5 -59.5q-23 12 -23 42q0 25 10.5 52t27 54.5t37 55.5t40.5 56zM709 532l-13 27q-4 8 -4 27q0 14 2 30.5t5 32.5t7 29.5t7 20.5q13 25 73 38q-16 -59 -35 -110t-42 -95z" />
    <glyph glyph-name="FLW184" unicode="&#x451;" horiz-adv-x="835" 
d="M735 65v-13l-11 -15l-20 -10q-15 -7 -40.5 -11t-43.5 -5l-245 -26q-5 -1 -10 0.5t-7 1.5h-10q-15 0 -38.5 2t-49 4.5t-48.5 4.5t-36 2q-26 0 -53 10.5t-54 26.5q-29 16 -39 27.5t-10 29.5q0 42 82 118q58 54 119.5 99.5t126.5 80.5q78 43 150 65t137 22q117 0 160 -51
q20 -24 20 -59q0 -26 -13.5 -56.5t-34.5 -58t-46.5 -50t-49.5 -32.5q-33 -14 -58 -24t-43 -16q-72 -25 -124 -25q-27 0 -72 9t-88.5 25t-76.5 38.5t-35 48.5q15 -9 51 -19t74.5 -18.5t69.5 -15t36 -9.5q25 -8 44.5 -14.5t38.5 -6.5q38 0 71.5 11t69.5 26q39 17 66 41.5
t49 57.5q12 19 25 36t13 36q0 42 -36 69.5t-80 27.5q-33 0 -57.5 -7.5t-66.5 -17.5q-70 -17 -125.5 -39t-102.5 -45q-114 -58 -207 -157q-11 -12 -30 -31t-19 -38q0 -27 17 -43.5t45 -24.5t63.5 -10.5t72.5 -2.5q20 0 48.5 0.5t65.5 0.5h46q84 0 165 6.5t154 23.5zM602 751
h14l12 -28q6 -13 -7 -41.5t-33 -62.5t-42.5 -68.5t-35.5 -59.5q-23 12 -23 42q0 25 10.5 52t27 54.5t37 55.5t40.5 56zM709 532l-13 27q-4 8 -4 27q0 14 2 30.5t5 32.5t7 29.5t7 20.5q13 25 73 38q-16 -59 -35 -110t-42 -95z" />
    <glyph glyph-name="FLW185" unicode="&#xb9;" horiz-adv-x="810" 
d="M488 161l12 15q4 4 10 20t11 36t9 39t5 28q11 97 17 177t6 143q0 2 -1.5 16.5t-3.5 39.5q0 17 40 26q5 -29 6.5 -58t1.5 -58q0 -35 -2 -71.5t-8 -72.5q-8 -49 -19.5 -122t-24.5 -171q23 0 43.5 -2.5t26.5 -12.5q-41 -10 -49 -14q-26 -14 -29 -36.5t-3 -50.5
q0 -16 -13 -23l-12 14l-11 -2q-7 33 -13.5 54t-18 34.5t-28.5 22t-45 16.5q-19 6 -36.5 18.5t-33.5 28.5q-4 4 -24.5 31.5t-58.5 86.5q-59 -143 -89 -196q-34 -60 -67 -93.5t-66 -33.5q3 21 15.5 67.5t27 95t26 87.5t13.5 46q4 17 10 48.5t16 65.5t23.5 64t32.5 43
q2 -17 3 -32t1 -30v-28.5t-1 -23.5l-3 -51q-1 -1 9 27t26 64t35.5 70t35.5 46q0 -1 3 -36.5t7 -103.5q3 -51 12 -81q34 -107 176 -167zM720 625q30 0 50 -7.5t20 -41.5t-18.5 -68t-51.5 -44q-14 -4 -30.5 1t-30.5 16.5t-23 27t-9 32.5t9 32t22.5 26.5t30 18.5t31.5 7z
M720 605q-22 0 -42 -17.5t-20 -43.5t21 -41.5t41 -7.5q46 19 46 69q0 26 -12 33.5t-34 7.5zM760 430q19 0 19 -8q0 -10 -18 -20t-41.5 -18.5t-47 -14t-34.5 -5.5q-19 0 -19 8q0 10 18 20t41.5 18.5t47 14t34.5 5.5z" />
    <glyph glyph-name="FLW185" unicode="&#x2116;" horiz-adv-x="810" 
d="M488 161l12 15q4 4 10 20t11 36t9 39t5 28q11 97 17 177t6 143q0 2 -1.5 16.5t-3.5 39.5q0 17 40 26q5 -29 6.5 -58t1.5 -58q0 -35 -2 -71.5t-8 -72.5q-8 -49 -19.5 -122t-24.5 -171q23 0 43.5 -2.5t26.5 -12.5q-41 -10 -49 -14q-26 -14 -29 -36.5t-3 -50.5
q0 -16 -13 -23l-12 14l-11 -2q-7 33 -13.5 54t-18 34.5t-28.5 22t-45 16.5q-19 6 -36.5 18.5t-33.5 28.5q-4 4 -24.5 31.5t-58.5 86.5q-59 -143 -89 -196q-34 -60 -67 -93.5t-66 -33.5q3 21 15.5 67.5t27 95t26 87.5t13.5 46q4 17 10 48.5t16 65.5t23.5 64t32.5 43
q2 -17 3 -32t1 -30v-28.5t-1 -23.5l-3 -51q-1 -1 9 27t26 64t35.5 70t35.5 46q0 -1 3 -36.5t7 -103.5q3 -51 12 -81q34 -107 176 -167zM720 625q30 0 50 -7.5t20 -41.5t-18.5 -68t-51.5 -44q-14 -4 -30.5 1t-30.5 16.5t-23 27t-9 32.5t9 32t22.5 26.5t30 18.5t31.5 7z
M720 605q-22 0 -42 -17.5t-20 -43.5t21 -41.5t41 -7.5q46 19 46 69q0 26 -12 33.5t-34 7.5zM760 430q19 0 19 -8q0 -10 -18 -20t-41.5 -18.5t-47 -14t-34.5 -5.5q-19 0 -19 8q0 10 18 20t41.5 18.5t47 14t34.5 5.5z" />
    <glyph glyph-name="FLW186" unicode="&#xba;" horiz-adv-x="544" 
d="M163 220l-48 -22q-11 0 -27 5t-20 7q12 52 44 89t79 51q11 3 21.5 7t20.5 7q12 3 29.5 9t34 11.5t28 9.5t10.5 4q7 3 5.5 18t-7 32.5t-11 33t-6.5 18.5q-2 8 -9 10.5t-14.5 0t-14 -8.5t-7.5 -15q-2 -27 -8.5 -40.5t-23.5 -23.5q-43 -25 -66 -37.5t-25 -14.5
q-26 -17 -47.5 -33.5t-36.5 -34.5q-18 -22 -29.5 -47.5t-13.5 -52.5q-7 -90 89 -137q22 -11 60.5 -23.5t95.5 -23.5q15 -3 36 -7t45.5 -7.5t49.5 -6t48 -2.5q33 0 55 7t24 17q0 6 -10 9.5t-23 5t-26.5 2t-19.5 0.5h-95q-44 0 -80 4t-64 13q-36 12 -64.5 24t-50.5 28
q-8 7 -20 26t-12 31q0 13 21 5l33 -14q3 1 18 5t32.5 11t17.5 14v20q0 9 -3 13t-15 3z" />
    <glyph glyph-name="FLW186" unicode="&#x454;" horiz-adv-x="544" 
d="M163 220l-48 -22q-11 0 -27 5t-20 7q12 52 44 89t79 51q11 3 21.5 7t20.5 7q12 3 29.5 9t34 11.5t28 9.5t10.5 4q7 3 5.5 18t-7 32.5t-11 33t-6.5 18.5q-2 8 -9 10.5t-14.5 0t-14 -8.5t-7.5 -15q-2 -27 -8.5 -40.5t-23.5 -23.5q-43 -25 -66 -37.5t-25 -14.5
q-26 -17 -47.5 -33.5t-36.5 -34.5q-18 -22 -29.5 -47.5t-13.5 -52.5q-7 -90 89 -137q22 -11 60.5 -23.5t95.5 -23.5q15 -3 36 -7t45.5 -7.5t49.5 -6t48 -2.5q33 0 55 7t24 17q0 6 -10 9.5t-23 5t-26.5 2t-19.5 0.5h-95q-44 0 -80 4t-64 13q-36 12 -64.5 24t-50.5 28
q-8 7 -20 26t-12 31q0 13 21 5l33 -14q3 1 18 5t32.5 11t17.5 14v20q0 9 -3 13t-15 3z" />
    <glyph glyph-name="FLW192" unicode="&#xc0;" horiz-adv-x="559" 
d="M130 410l13 13v13q14 14 23 34t16 46t15 58t20 69q19 61 42 91t46 30q20 0 37 -21t31.5 -54t25.5 -74.5t18 -82.5q4 -20 9 -52.5t17 -63t34.5 -53t61.5 -22.5q-33 -37 -44 -69q-11 -35 -11 -86v-63q0 -37 14 -78t33 -95q5 -16 -6 -32q-108 78 -108 300q0 32 -14.5 48
t-35.5 16q-6 0 -17.5 -1.5t-23.5 -3.5t-21.5 -3.5t-11.5 -1.5h-82q-64 0 -76 -64q-18 -95 -33 -113q-5 -7 -20 -10.5t-26 -3.5h-19q-6 0 -9.5 11t-5 29t-2 40.5t-0.5 46.5v118v23v115q24 3 37 3q25 0 37 -12.5t36 -44.5zM279 656l-13 -42q-10 -14 -22 -42t-22.5 -59.5
t-17.5 -61.5t-7 -49q0 -76 88 -76h10q86 0 86 78q0 87 -102 252z" />
    <glyph glyph-name="FLW192" unicode="&#x410;" horiz-adv-x="559" 
d="M130 410l13 13v13q14 14 23 34t16 46t15 58t20 69q19 61 42 91t46 30q20 0 37 -21t31.5 -54t25.5 -74.5t18 -82.5q4 -20 9 -52.5t17 -63t34.5 -53t61.5 -22.5q-33 -37 -44 -69q-11 -35 -11 -86v-63q0 -37 14 -78t33 -95q5 -16 -6 -32q-108 78 -108 300q0 32 -14.5 48
t-35.5 16q-6 0 -17.5 -1.5t-23.5 -3.5t-21.5 -3.5t-11.5 -1.5h-82q-64 0 -76 -64q-18 -95 -33 -113q-5 -7 -20 -10.5t-26 -3.5h-19q-6 0 -9.5 11t-5 29t-2 40.5t-0.5 46.5v118v23v115q24 3 37 3q25 0 37 -12.5t36 -44.5zM279 656l-13 -42q-10 -14 -22 -42t-22.5 -59.5
t-17.5 -61.5t-7 -49q0 -76 88 -76h10q86 0 86 78q0 87 -102 252z" />
    <glyph glyph-name="FLW193" unicode="&#xc1;" horiz-adv-x="874" 
d="M49 696q10 0 32.5 -3.5t48.5 -8t53 -9.5t46 -7q52 -5 99 -8.5t90 -3.5h48h49l58 2t55 1q45 0 75.5 -6t27.5 -25q-6 -10 -19.5 -13t-31.5 -3h-24q-25 0 -54.5 2.5t-60 5.5t-60 5.5t-55.5 2.5h-96q-42 0 -75 0.5t-59 2.5q14 -8 23.5 -19.5t12.5 -24.5q4 -18 5.5 -36.5
t5.5 -36t11.5 -33.5t23.5 -29q7 -5 25 -16l425 -32q126 -51 126 -138q0 -28 -14 -61q-39 -96 -216 -156q-144 -49 -275 -49q-64 0 -126 44q-17 12 -31 57t-24.5 97.5t-16 100t-5.5 63.5t6.5 30.5t14.5 28t14.5 27.5t6.5 30q0 9 -2.5 28t-5.5 39t-5.5 39t-2.5 28v11t1 11
q-81 9 -152 34q-2 0 7.5 14t20.5 14zM567 395v1q-15 2 -42 2h-68q-29 0 -65 -1t-79 -5q-19 -2 -29 -6t-14.5 -9t-5 -8.5l-0.5 -3.5q3 5 0.5 -11t-6.5 -41t-8 -53t-4 -47q0 -7 -1 -12t1 -7l13 -59q3 -14 0 -19.5t-12 -9.5l-4 -1q-3 -1 2.5 -8.5t12.5 -16t12.5 -15t3.5 -5.5
q66 -34 157 -34q44 0 94.5 16.5t96.5 37.5q118 54 150 125q12 27 12 50q0 60 -78 99q-43 21 -139 41z" />
    <glyph glyph-name="FLW193" unicode="&#x411;" horiz-adv-x="874" 
d="M49 696q10 0 32.5 -3.5t48.5 -8t53 -9.5t46 -7q52 -5 99 -8.5t90 -3.5h48h49l58 2t55 1q45 0 75.5 -6t27.5 -25q-6 -10 -19.5 -13t-31.5 -3h-24q-25 0 -54.5 2.5t-60 5.5t-60 5.5t-55.5 2.5h-96q-42 0 -75 0.5t-59 2.5q14 -8 23.5 -19.5t12.5 -24.5q4 -18 5.5 -36.5
t5.5 -36t11.5 -33.5t23.5 -29q7 -5 25 -16l425 -32q126 -51 126 -138q0 -28 -14 -61q-39 -96 -216 -156q-144 -49 -275 -49q-64 0 -126 44q-17 12 -31 57t-24.5 97.5t-16 100t-5.5 63.5t6.5 30.5t14.5 28t14.5 27.5t6.5 30q0 9 -2.5 28t-5.5 39t-5.5 39t-2.5 28v11t1 11
q-81 9 -152 34q-2 0 7.5 14t20.5 14zM567 395v1q-15 2 -42 2h-68q-29 0 -65 -1t-79 -5q-19 -2 -29 -6t-14.5 -9t-5 -8.5l-0.5 -3.5q3 5 0.5 -11t-6.5 -41t-8 -53t-4 -47q0 -7 -1 -12t1 -7l13 -59q3 -14 0 -19.5t-12 -9.5l-4 -1q-3 -1 2.5 -8.5t12.5 -16t12.5 -15t3.5 -5.5
q66 -34 157 -34q44 0 94.5 16.5t96.5 37.5q118 54 150 125q12 27 12 50q0 60 -78 99q-43 21 -139 41z" />
    <glyph glyph-name="FLW194" unicode="&#xc2;" horiz-adv-x="874" 
d="M49 696q10 0 32.5 -3.5t48.5 -8t53 -9.5t46 -7q52 -5 99 -8.5t90 -3.5h48h49q82 0 139.5 -13.5t90.5 -42.5q-33 -46 -100 -80q-17 -8 -46.5 -22t-72.5 -34l202 -60q126 -51 126 -138q0 -28 -14 -61q-39 -96 -216 -156q-144 -49 -275 -49q-64 0 -126 44q-67 48 -67 112
q0 16 4 51t8.5 74t8.5 74t4 51q0 9 -2.5 28t-5.5 39t-5.5 39t-2.5 28q0 15 3 30q21 -9 36.5 -23t20.5 -32q4 -18 5.5 -36.5t5.5 -36t11.5 -33.5t23.5 -29q3 -2 10 -26t16 -52.5t19.5 -54t19.5 -29.5q-34 -6 -42 -10.5t-8 -15.5v-21q0 -20 -3 -30.5t-8 -15t-10 -4.5h-10
l-15 2l-6 18t-5.5 12t-10.5 14t-20 23v-17q0 -74 76 -113q66 -34 157 -34q44 0 94.5 16.5t96.5 37.5q118 54 150 125q12 27 12 50q0 60 -78 99q-45 23 -139 42q-37 8 -116 25t-197 43q20 7 61 16t85.5 17t83.5 15.5t54 11.5q40 11 74.5 26.5t63.5 36.5q-85 41 -250 41h-96
q-50 0 -87.5 1t-63.5 4q-41 5 -80.5 13t-77.5 22q-2 0 7.5 14t20.5 14z" />
    <glyph glyph-name="FLW194" unicode="&#x412;" horiz-adv-x="874" 
d="M49 696q10 0 32.5 -3.5t48.5 -8t53 -9.5t46 -7q52 -5 99 -8.5t90 -3.5h48h49q82 0 139.5 -13.5t90.5 -42.5q-33 -46 -100 -80q-17 -8 -46.5 -22t-72.5 -34l202 -60q126 -51 126 -138q0 -28 -14 -61q-39 -96 -216 -156q-144 -49 -275 -49q-64 0 -126 44q-67 48 -67 112
q0 16 4 51t8.5 74t8.5 74t4 51q0 9 -2.5 28t-5.5 39t-5.5 39t-2.5 28q0 15 3 30q21 -9 36.5 -23t20.5 -32q4 -18 5.5 -36.5t5.5 -36t11.5 -33.5t23.5 -29q3 -2 10 -26t16 -52.5t19.5 -54t19.5 -29.5q-34 -6 -42 -10.5t-8 -15.5v-21q0 -20 -3 -30.5t-8 -15t-10 -4.5h-10
l-15 2l-6 18t-5.5 12t-10.5 14t-20 23v-17q0 -74 76 -113q66 -34 157 -34q44 0 94.5 16.5t96.5 37.5q118 54 150 125q12 27 12 50q0 60 -78 99q-45 23 -139 42q-37 8 -116 25t-197 43q20 7 61 16t85.5 17t83.5 15.5t54 11.5q40 11 74.5 26.5t63.5 36.5q-85 41 -250 41h-96
q-50 0 -87.5 1t-63.5 4q-41 5 -80.5 13t-77.5 22q-2 0 7.5 14t20.5 14z" />
    <glyph glyph-name="FLW195" unicode="&#xc3;" horiz-adv-x="766" 
d="M231 -4q-5 14 -12.5 33t-17 38.5t-19 36t-17.5 24.5q7 40 18 85.5t11 91.5q0 19 -2 57t-5 80.5t-5 80.5t-2 57q0 14 0.5 27t1.5 26q-39 0 -81.5 11t-79.5 24q-2 0 7.5 3.5t19.5 3.5t32.5 -0.5t49 -1t53.5 -2t46 -3.5q52 -5 99 -8.5t90 -3.5h48h49q23 1 46.5 1.5t46.5 0.5
q30 0 57 -2t46 -8t28 -16.5t3 -28.5q-14 -17 -51 -17q-26 0 -59.5 6.5t-69 14.5t-71 14.5t-65.5 6.5h-96q-29 0 -47 -0.5t-33 -0.5h-15.5t-15.5 1q5 -28 8 -47t6 -51q4 -36 5.5 -74.5t4.5 -75.5t10 -70.5t22 -59.5q2 -4 3 -5t2 -4t2 -10.5t4 -24.5q-4 -15 -9 -34.5t-5 -32.5
v-43q0 -42 -3 -63t-7.5 -29.5t-9.5 -8t-9 0.5h-12zM745 600l-1 2q4 -4 1.5 -4t-0.5 2z" />
    <glyph glyph-name="FLW195" unicode="&#x413;" horiz-adv-x="766" 
d="M231 -4q-5 14 -12.5 33t-17 38.5t-19 36t-17.5 24.5q7 40 18 85.5t11 91.5q0 19 -2 57t-5 80.5t-5 80.5t-2 57q0 14 0.5 27t1.5 26q-39 0 -81.5 11t-79.5 24q-2 0 7.5 3.5t19.5 3.5t32.5 -0.5t49 -1t53.5 -2t46 -3.5q52 -5 99 -8.5t90 -3.5h48h49q23 1 46.5 1.5t46.5 0.5
q30 0 57 -2t46 -8t28 -16.5t3 -28.5q-14 -17 -51 -17q-26 0 -59.5 6.5t-69 14.5t-71 14.5t-65.5 6.5h-96q-29 0 -47 -0.5t-33 -0.5h-15.5t-15.5 1q5 -28 8 -47t6 -51q4 -36 5.5 -74.5t4.5 -75.5t10 -70.5t22 -59.5q2 -4 3 -5t2 -4t2 -10.5t4 -24.5q-4 -15 -9 -34.5t-5 -32.5
v-43q0 -42 -3 -63t-7.5 -29.5t-9.5 -8t-9 0.5h-12zM745 600l-1 2q4 -4 1.5 -4t-0.5 2z" />
    <glyph glyph-name="FLW196" unicode="&#xc4;" horiz-adv-x="892" 
d="M55 468l16 22q5 7 16.5 18.5t25 22t26.5 18t22 7.5h76l143 -37q78 -20 135 -51t102 -45q35 -11 68 -17t62 -13t54 -17t44 -29q22 -22 24 -44.5t2 -44.5q0 -24 -13 -43.5t-33.5 -35.5t-46.5 -28t-52 -20q-50 -16 -126 -38.5t-176 -51.5q-117 -34 -219 -34q-49 0 -98 8.5
t-87 26.5l296 32q-10 29 -26 72t-30 102q-8 37 -14.5 67t-6.5 59q0 28 4.5 57t15.5 54q20 -12 34.5 -31.5t15.5 -42.5l5 -104q2 -38 13.5 -84t36.5 -102q10 -21 34 -30t49 -9q57 0 149 33q41 14 79.5 31t73.5 37q33 18 54 38t21 41q0 17 -7.5 26.5t-21.5 17.5t-35 17t-48 25
q-76 47 -178 76q-92 26 -153 45t-93 32q-16 6 -31 6q-29 0 -46 -11t-30.5 -24t-27.5 -24t-37 -11h-18.5t-20 2t-16 8.5t-6.5 20.5z" />
    <glyph glyph-name="FLW196" unicode="&#x414;" horiz-adv-x="892" 
d="M55 468l16 22q5 7 16.5 18.5t25 22t26.5 18t22 7.5h76l143 -37q78 -20 135 -51t102 -45q35 -11 68 -17t62 -13t54 -17t44 -29q22 -22 24 -44.5t2 -44.5q0 -24 -13 -43.5t-33.5 -35.5t-46.5 -28t-52 -20q-50 -16 -126 -38.5t-176 -51.5q-117 -34 -219 -34q-49 0 -98 8.5
t-87 26.5l296 32q-10 29 -26 72t-30 102q-8 37 -14.5 67t-6.5 59q0 28 4.5 57t15.5 54q20 -12 34.5 -31.5t15.5 -42.5l5 -104q2 -38 13.5 -84t36.5 -102q10 -21 34 -30t49 -9q57 0 149 33q41 14 79.5 31t73.5 37q33 18 54 38t21 41q0 17 -7.5 26.5t-21.5 17.5t-35 17t-48 25
q-76 47 -178 76q-92 26 -153 45t-93 32q-16 6 -31 6q-29 0 -46 -11t-30.5 -24t-27.5 -24t-37 -11h-18.5t-20 2t-16 8.5t-6.5 20.5z" />
    <glyph glyph-name="FLW197" unicode="&#xc5;" horiz-adv-x="685" 
d="M583 43l-42 -29q-12 -8 -35 -14t-51 -10t-58.5 -6t-55.5 -2q-66 0 -132.5 11t-117.5 33q-28 12 -39 24t-11 28q0 12 4.5 36t4.5 36q0 20 -2.5 62t-5 88t-5 88t-2.5 62q0 3 -2.5 25.5t-5 51t-5 56t-2.5 39.5q0 92 57 101q57 10 128 10q275 0 460 -133q-21 0 -40.5 3.5
t-39.5 10.5q-61 22 -93 32t-33 10q-17 2 -47 6t-61.5 8.5t-58.5 8t-37 3.5q-89 0 -118 -10q-54 -20 -54 -90q0 -11 1.5 -30.5t6.5 -47.5q2 -16 6 -41.5t9 -58.5q5 -14 32 -23.5t62.5 -16.5t73 -12t63.5 -9q111 -34 172 -51.5t74 -19.5q-9 -3 -20 -5t-24 -2q-35 0 -79 11
t-97 24q-22 5 -50.5 11.5t-59 13.5t-62 14t-59.5 15q-21 -87 -21 -152q0 -156 116 -176q72 -12 165 -12q44 0 92 11.5t99 17.5z" />
    <glyph glyph-name="FLW197" unicode="&#x415;" horiz-adv-x="685" 
d="M583 43l-42 -29q-12 -8 -35 -14t-51 -10t-58.5 -6t-55.5 -2q-66 0 -132.5 11t-117.5 33q-28 12 -39 24t-11 28q0 12 4.5 36t4.5 36q0 20 -2.5 62t-5 88t-5 88t-2.5 62q0 3 -2.5 25.5t-5 51t-5 56t-2.5 39.5q0 92 57 101q57 10 128 10q275 0 460 -133q-21 0 -40.5 3.5
t-39.5 10.5q-61 22 -93 32t-33 10q-17 2 -47 6t-61.5 8.5t-58.5 8t-37 3.5q-89 0 -118 -10q-54 -20 -54 -90q0 -11 1.5 -30.5t6.5 -47.5q2 -16 6 -41.5t9 -58.5q5 -14 32 -23.5t62.5 -16.5t73 -12t63.5 -9q111 -34 172 -51.5t74 -19.5q-9 -3 -20 -5t-24 -2q-35 0 -79 11
t-97 24q-22 5 -50.5 11.5t-59 13.5t-62 14t-59.5 15q-21 -87 -21 -152q0 -156 116 -176q72 -12 165 -12q44 0 92 11.5t99 17.5z" />
    <glyph glyph-name="FLW198" unicode="&#xc6;" horiz-adv-x="902" 
d="M401 547q6 14 12 41t7 56q1 22 0 40t1 24l1 41q1 33 6 51.5t19 18.5q21 0 26.5 -16.5t4.5 -46.5v-43l1 -20q1 -13 3 -35t5 -43.5t7 -39.5t7 -24q27 -47 67.5 -72.5t91.5 -25.5q77 0 130 43q61 49 61 135q9 -13 16.5 -23.5t14.5 -16.5q-51 -109 -166 -157
q-17 -8 -42.5 -16t-58.5 -19q12 -22 25 -37t28 -28t32 -26.5t38 -31.5q22 -28 37.5 -48t22.5 -30q68 -95 68 -185q0 -12 -1.5 -24.5t-3.5 -25.5q-4 10 -11.5 33.5t-16 49t-17.5 48.5t-16 31q-69 86 -141.5 154.5t-160.5 117.5q-9 0 -11 -5.5t-3 -6.5q1 -43 2.5 -76t3.5 -62
q5 -66 8.5 -102t3.5 -42q0 -11 0.5 -22t0.5 -21q0 -24 -4 -36l-8 -25q-6 -4 -8.5 -6.5t-5.5 -3.5t-8.5 -1h-17.5q-20 0 -27.5 4t-14.5 8l-5 31q-2 17 -2.5 35t-0.5 41q0 6 3 38.5t6 76t6 90.5t3 83q-176 -98 -316 -274q-7 -8 -16 -31t-18 -48.5t-16.5 -49t-11.5 -33.5
q-1 13 -2.5 25.5t-1.5 24.5q0 45 19.5 87.5t48.5 97.5q7 10 22 30t38 48q21 18 38 31.5t31.5 26.5t27.5 28t25 37q-17 5 -41 30t-47 54t-41.5 55.5t-24.5 34.5q-35 51 -61 95.5t-52 98.5q13 13 31 40q11 -43 25 -73t36 -62q20 -29 39 -51t44 -51q7 -8 24 -25t35.5 -34.5
t36 -30.5t26.5 -13q34 0 53.5 27.5t30.5 56.5z" />
    <glyph glyph-name="FLW198" unicode="&#x416;" horiz-adv-x="902" 
d="M401 547q6 14 12 41t7 56q1 22 0 40t1 24l1 41q1 33 6 51.5t19 18.5q21 0 26.5 -16.5t4.5 -46.5v-43l1 -20q1 -13 3 -35t5 -43.5t7 -39.5t7 -24q27 -47 67.5 -72.5t91.5 -25.5q77 0 130 43q61 49 61 135q9 -13 16.5 -23.5t14.5 -16.5q-51 -109 -166 -157
q-17 -8 -42.5 -16t-58.5 -19q12 -22 25 -37t28 -28t32 -26.5t38 -31.5q22 -28 37.5 -48t22.5 -30q68 -95 68 -185q0 -12 -1.5 -24.5t-3.5 -25.5q-4 10 -11.5 33.5t-16 49t-17.5 48.5t-16 31q-69 86 -141.5 154.5t-160.5 117.5q-9 0 -11 -5.5t-3 -6.5q1 -43 2.5 -76t3.5 -62
q5 -66 8.5 -102t3.5 -42q0 -11 0.5 -22t0.5 -21q0 -24 -4 -36l-8 -25q-6 -4 -8.5 -6.5t-5.5 -3.5t-8.5 -1h-17.5q-20 0 -27.5 4t-14.5 8l-5 31q-2 17 -2.5 35t-0.5 41q0 6 3 38.5t6 76t6 90.5t3 83q-176 -98 -316 -274q-7 -8 -16 -31t-18 -48.5t-16.5 -49t-11.5 -33.5
q-1 13 -2.5 25.5t-1.5 24.5q0 45 19.5 87.5t48.5 97.5q7 10 22 30t38 48q21 18 38 31.5t31.5 26.5t27.5 28t25 37q-17 5 -41 30t-47 54t-41.5 55.5t-24.5 34.5q-35 51 -61 95.5t-52 98.5q13 13 31 40q11 -43 25 -73t36 -62q20 -29 39 -51t44 -51q7 -8 24 -25t35.5 -34.5
t36 -30.5t26.5 -13q34 0 53.5 27.5t30.5 56.5z" />
    <glyph glyph-name="FLW199" unicode="&#xc7;" horiz-adv-x="604" 
d="M77 531l48 48q10 5 28 5q20 0 38 -8q18 -9 30 -14.5t24 -10t26.5 -10.5t37.5 -16l139 -63q0 -24 -15.5 -37.5t-35.5 -21.5t-38.5 -14.5t-24.5 -16.5q50 -14 87 -26t61 -20q51 -18 76.5 -38t25.5 -48q0 -27 -27 -55.5t-66 -54.5t-82.5 -48t-76.5 -36q-115 -46 -205 -46
q-17 0 -36 6.5t-34.5 18t-26 27.5t-10.5 36q0 10 9.5 23t21.5 23t22.5 13.5t11.5 -4.5q7 -50 23 -77.5t62 -27.5q39 0 103 23q58 19 103 45t80 52q28 21 45 38.5t17 36.5q0 17 -11.5 28.5t-30 18t-42.5 9.5t-49 3q-7 0 -37 -2.5t-65.5 -6t-70 -6t-50.5 -2.5q-42 0 -64 10
t-4 26q15 14 29.5 20.5t28.5 10t27.5 6t26.5 6.5q14 5 36 14t42.5 21t35.5 26t15 28q0 9 -19 20.5t-44.5 21t-50.5 16.5t-37 7q-23 0 -43 -11.5t-35.5 -25.5t-25 -25.5t-12.5 -11.5q-22 0 -22 21q0 18 10 41.5t21 34.5z" />
    <glyph glyph-name="FLW199" unicode="&#x417;" horiz-adv-x="604" 
d="M77 531l48 48q10 5 28 5q20 0 38 -8q18 -9 30 -14.5t24 -10t26.5 -10.5t37.5 -16l139 -63q0 -24 -15.5 -37.5t-35.5 -21.5t-38.5 -14.5t-24.5 -16.5q50 -14 87 -26t61 -20q51 -18 76.5 -38t25.5 -48q0 -27 -27 -55.5t-66 -54.5t-82.5 -48t-76.5 -36q-115 -46 -205 -46
q-17 0 -36 6.5t-34.5 18t-26 27.5t-10.5 36q0 10 9.5 23t21.5 23t22.5 13.5t11.5 -4.5q7 -50 23 -77.5t62 -27.5q39 0 103 23q58 19 103 45t80 52q28 21 45 38.5t17 36.5q0 17 -11.5 28.5t-30 18t-42.5 9.5t-49 3q-7 0 -37 -2.5t-65.5 -6t-70 -6t-50.5 -2.5q-42 0 -64 10
t-4 26q15 14 29.5 20.5t28.5 10t27.5 6t26.5 6.5q14 5 36 14t42.5 21t35.5 26t15 28q0 9 -19 20.5t-44.5 21t-50.5 16.5t-37 7q-23 0 -43 -11.5t-35.5 -25.5t-25 -25.5t-12.5 -11.5q-22 0 -22 21q0 18 10 41.5t21 34.5z" />
    <glyph glyph-name="FLW200" unicode="&#xc8;" horiz-adv-x="723" 
d="M20 54q0 81 15 190q5 35 9 82.5t17 114.5q4 19 5 46t1 83q0 32 19 49t44 22q0 -45 -9 -105q-9 -68 -14 -110t-5 -58q0 -23 -1.5 -47.5t-3.5 -50.5q-12 -130 -12 -154q0 -31 4.5 -65t12.5 -65q95 17 183 103q92 92 92 181q0 10 -2 32.5t-2 33.5q0 98 36 176q41 89 116 116
q10 -43 10 -88q0 -25 -5.5 -53.5t-10.5 -64.5q0 4 -7 -16t-15 -49t-15 -61.5t-7 -53.5q0 -26 11.5 -51t36.5 -41q17 -11 44 -25.5t54 -33t50 -41.5t32 -50q-69 0 -198 96q-5 3 -30.5 23.5t-72.5 57.5q-52 -64 -136 -135q-113 -95 -177 -95q-69 0 -69 107zM430 286
q77 72 77 200q0 31 -8 73q-84 -51 -84 -163q0 -43 15 -110z" />
    <glyph glyph-name="FLW200" unicode="&#x418;" horiz-adv-x="723" 
d="M20 54q0 81 15 190q5 35 9 82.5t17 114.5q4 19 5 46t1 83q0 32 19 49t44 22q0 -45 -9 -105q-9 -68 -14 -110t-5 -58q0 -23 -1.5 -47.5t-3.5 -50.5q-12 -130 -12 -154q0 -31 4.5 -65t12.5 -65q95 17 183 103q92 92 92 181q0 10 -2 32.5t-2 33.5q0 98 36 176q41 89 116 116
q10 -43 10 -88q0 -25 -5.5 -53.5t-10.5 -64.5q0 4 -7 -16t-15 -49t-15 -61.5t-7 -53.5q0 -26 11.5 -51t36.5 -41q17 -11 44 -25.5t54 -33t50 -41.5t32 -50q-69 0 -198 96q-5 3 -30.5 23.5t-72.5 57.5q-52 -64 -136 -135q-113 -95 -177 -95q-69 0 -69 107zM430 286
q77 72 77 200q0 31 -8 73q-84 -51 -84 -163q0 -43 15 -110z" />
    <glyph glyph-name="FLW201" unicode="&#xc9;" horiz-adv-x="723" 
d="M20 54q0 81 15 190q5 35 11.5 80t14.5 113q1 12 3.5 44.5t2.5 88.5q0 31 19 48.5t44 22.5q0 -45 -9 -105q-9 -68 -14 -110t-5 -58q0 -23 -1.5 -47.5t-3.5 -50.5q-12 -130 -12 -154q0 -31 4.5 -65t12.5 -65q95 17 183 103q92 92 92 181q0 10 -2 32.5t-2 33.5q0 98 36 176
q41 89 116 116q10 -43 10 -88q0 -25 -8 -54t-8 -64q0 -3 -35 -122q-9 -32 -9 -58t11.5 -51t36.5 -41q17 -11 44 -25.5t54 -33t50 -41.5t32 -50q-69 0 -198 96q-5 3 -30.5 23.5t-72.5 57.5q-52 -64 -136 -135q-113 -95 -177 -95q-69 0 -69 107zM430 286q77 72 77 200
q0 31 -8 73q-84 -51 -84 -163q0 -43 15 -110zM231 568l43 49q11 13 34 21.5t44 7.5h-18q21 -1 28.5 -10t-3.5 -22l-43 -49q-10 -12 -33 -20.5t-45 -7.5h19q-22 1 -29.5 10t3.5 21z" />
    <glyph glyph-name="FLW201" unicode="&#x419;" horiz-adv-x="723" 
d="M20 54q0 81 15 190q5 35 11.5 80t14.5 113q1 12 3.5 44.5t2.5 88.5q0 31 19 48.5t44 22.5q0 -45 -9 -105q-9 -68 -14 -110t-5 -58q0 -23 -1.5 -47.5t-3.5 -50.5q-12 -130 -12 -154q0 -31 4.5 -65t12.5 -65q95 17 183 103q92 92 92 181q0 10 -2 32.5t-2 33.5q0 98 36 176
q41 89 116 116q10 -43 10 -88q0 -25 -8 -54t-8 -64q0 -3 -35 -122q-9 -32 -9 -58t11.5 -51t36.5 -41q17 -11 44 -25.5t54 -33t50 -41.5t32 -50q-69 0 -198 96q-5 3 -30.5 23.5t-72.5 57.5q-52 -64 -136 -135q-113 -95 -177 -95q-69 0 -69 107zM430 286q77 72 77 200
q0 31 -8 73q-84 -51 -84 -163q0 -43 15 -110zM231 568l43 49q11 13 34 21.5t44 7.5h-18q21 -1 28.5 -10t-3.5 -22l-43 -49q-10 -12 -33 -20.5t-45 -7.5h19q-22 1 -29.5 10t3.5 21z" />
    <glyph glyph-name="FLW202" unicode="&#xca;" horiz-adv-x="665" 
d="M74 731h15v-16q6 -6 11.5 -20.5t9.5 -33t6.5 -37t2.5 -32.5v-18q0 -18 -2 -46.5t-4.5 -57.5t-4.5 -51.5t-2 -28.5q0 -16 1 -28t3 -20q0 -15 6 -46q55 32 124.5 46t153.5 14q30 0 73 -1.5t82.5 -5t67.5 -9t28 -13.5q0 -9 -10 -15t-25.5 -10t-33.5 -5.5t-33 -1.5
q-7 0 -18 0.5t-23.5 0.5t-23.5 0.5t-18 0.5q-8 0 -15.5 -0.5t-12.5 -0.5q-22 0 -52 -3t-68 -3q-9 0 -27 -2t-36.5 -7t-32.5 -13.5t-14 -21.5q0 -25 11.5 -38.5t32.5 -25.5t49.5 -27t62.5 -42l19 -15q4 -3 18 -11.5t24.5 -14.5t12.5 -7l14 -9q16 -10 29 -18.5t28 -16.5
l15 -10q6 -11 13 -22t14 -23q-92 0 -257 105q-14 8 -49 30.5t-94 59.5q-13 -26 -21 -41t-10 -19q-24 -39 -84 -45q-4 26 -7 53t-3 55q0 9 4 49.5t9.5 90t9.5 98t4 74.5q0 8 -0.5 24t-1 34t-1 34t-0.5 24q0 103 30 139z" />
    <glyph glyph-name="FLW202" unicode="&#x41a;" horiz-adv-x="665" 
d="M74 731h15v-16q6 -6 11.5 -20.5t9.5 -33t6.5 -37t2.5 -32.5v-18q0 -18 -2 -46.5t-4.5 -57.5t-4.5 -51.5t-2 -28.5q0 -16 1 -28t3 -20q0 -15 6 -46q55 32 124.5 46t153.5 14q30 0 73 -1.5t82.5 -5t67.5 -9t28 -13.5q0 -9 -10 -15t-25.5 -10t-33.5 -5.5t-33 -1.5
q-7 0 -18 0.5t-23.5 0.5t-23.5 0.5t-18 0.5q-8 0 -15.5 -0.5t-12.5 -0.5q-22 0 -52 -3t-68 -3q-9 0 -27 -2t-36.5 -7t-32.5 -13.5t-14 -21.5q0 -25 11.5 -38.5t32.5 -25.5t49.5 -27t62.5 -42l19 -15q4 -3 18 -11.5t24.5 -14.5t12.5 -7l14 -9q16 -10 29 -18.5t28 -16.5
l15 -10q6 -11 13 -22t14 -23q-92 0 -257 105q-14 8 -49 30.5t-94 59.5q-13 -26 -21 -41t-10 -19q-24 -39 -84 -45q-4 26 -7 53t-3 55q0 9 4 49.5t9.5 90t9.5 98t4 74.5q0 8 -0.5 24t-1 34t-1 34t-0.5 24q0 103 30 139z" />
    <glyph glyph-name="FLW203" unicode="&#xcb;" horiz-adv-x="618" 
d="M65 0l-7 -103q-23 0 -30.5 8t-7.5 23q0 14 3.5 34.5t3.5 43.5v12q0 53 22 116.5t48 121.5q23 48 53.5 101.5t69.5 113.5q22 32 48.5 60.5t60.5 54.5q73 54 123 54q78 0 78 -130l67 -467q1 -7 0.5 -15t-0.5 -11q-50 25 -75 86q-1 3 -3.5 40.5t-8 92.5t-13.5 118t-20.5 117
t-29.5 90t-40 36q-22 0 -40 -19.5t-43 -41.5q-85 -77 -146 -177q-31 -51 -53 -103.5t-33 -106.5q-3 -12 -7 -33t-8.5 -43t-7.5 -42t-4 -31z" />
    <glyph glyph-name="FLW203" unicode="&#x41b;" horiz-adv-x="618" 
d="M65 0l-7 -103q-23 0 -30.5 8t-7.5 23q0 14 3.5 34.5t3.5 43.5v12q0 53 22 116.5t48 121.5q23 48 53.5 101.5t69.5 113.5q22 32 48.5 60.5t60.5 54.5q73 54 123 54q78 0 78 -130l67 -467q1 -7 0.5 -15t-0.5 -11q-50 25 -75 86q-1 3 -3.5 40.5t-8 92.5t-13.5 118t-20.5 117
t-29.5 90t-40 36q-22 0 -40 -19.5t-43 -41.5q-85 -77 -146 -177q-31 -51 -53 -103.5t-33 -106.5q-3 -12 -7 -33t-8.5 -43t-7.5 -42t-4 -31z" />
    <glyph glyph-name="FLW204" unicode="&#xcc;" horiz-adv-x="755" 
d="M393 492l8 -13q6 -29 8.5 -44t5.5 -25.5t7.5 -21t14.5 -29.5q10 21 19 52.5t16 50.5q3 10 9.5 24.5t13.5 28t13.5 25.5t9.5 18q19 36 39 56q27 -65 45 -143q6 -25 11 -60.5t9.5 -74.5t8.5 -78t7 -72q4 -42 13 -76.5t21 -61.5q7 -17 63 -116q-99 0 -130 108
q-6 20 -9.5 53.5t-7.5 82.5q-4 58 -7.5 98t-6.5 59q-14 85 -44 117q-1 -4 -13.5 -42.5t-29.5 -86.5t-34.5 -92.5t-28.5 -61.5q-46 -70 -112 -85q6 35 16 80t24 99l28 107q3 14 3 30q0 71 -95 116q-20 9 -45 20.5t-55 24.5q-12 -49 -12 -192q0 -138 -20 -209
q-31 -106 -117 -132q-3 32 -3 64q0 7 1 26t1 51q0 16 0.5 28.5t0.5 22.5q0 8 -3 30t-6.5 48.5t-6.5 53t-3 42.5v27q0 6 2 10.5t2 6.5q55 -54 82 -177q42 137 42 259q0 19 -3.5 36.5t-9.5 33.5l-42 108q18 -3 33.5 -11.5t28.5 -20.5t25 -25.5t22 -24.5q44 -34 90 -65t101 -57
z" />
    <glyph glyph-name="FLW204" unicode="&#x41c;" horiz-adv-x="755" 
d="M393 492l8 -13q6 -29 8.5 -44t5.5 -25.5t7.5 -21t14.5 -29.5q10 21 19 52.5t16 50.5q3 10 9.5 24.5t13.5 28t13.5 25.5t9.5 18q19 36 39 56q27 -65 45 -143q6 -25 11 -60.5t9.5 -74.5t8.5 -78t7 -72q4 -42 13 -76.5t21 -61.5q7 -17 63 -116q-99 0 -130 108
q-6 20 -9.5 53.5t-7.5 82.5q-4 58 -7.5 98t-6.5 59q-14 85 -44 117q-1 -4 -13.5 -42.5t-29.5 -86.5t-34.5 -92.5t-28.5 -61.5q-46 -70 -112 -85q6 35 16 80t24 99l28 107q3 14 3 30q0 71 -95 116q-20 9 -45 20.5t-55 24.5q-12 -49 -12 -192q0 -138 -20 -209
q-31 -106 -117 -132q-3 32 -3 64q0 7 1 26t1 51q0 16 0.5 28.5t0.5 22.5q0 8 -3 30t-6.5 48.5t-6.5 53t-3 42.5v27q0 6 2 10.5t2 6.5q55 -54 82 -177q42 137 42 259q0 19 -3.5 36.5t-9.5 33.5l-42 108q18 -3 33.5 -11.5t28.5 -20.5t25 -25.5t22 -24.5q44 -34 90 -65t101 -57
z" />
    <glyph glyph-name="FLW205" unicode="&#xcd;" horiz-adv-x="679" 
d="M513 805l13 -13v-28q1 -2 4.5 -15.5t7.5 -32t4 -24.5v-18q0 -12 -0.5 -25.5t-1.5 -28.5q-6 -72 -6 -90v-37q0 -40 10.5 -61.5t57.5 -21.5q4 1 14 4t20 3q13 0 23 -7l-3 -14q-2 -9 -20.5 -15.5t-39.5 -16.5t-38.5 -28t-17.5 -50v-354q-34 31 -56 89t-22 142v42v62
q0 5 -0.5 12t0.5 12q0 38 -9.5 50.5t-49.5 12.5h-65q-13 -2 -33 -2.5t-48 -1.5q-17 0 -34.5 1t-36.5 3q-17 2 -34.5 6t-35.5 8q-17 -62 -17 -124q0 -146 86 -230q-151 0 -151 204q0 7 -2 36.5t-5 65.5t-5 69.5t-2 48.5q0 126 56 176q23 -49 23 -102q0 -20 -3 -50
q-3 -20 -6 -52q62 -8 133.5 -11t152.5 -3q46 0 66 14.5t20 58.5q0 7 -1 20.5t-2.5 27.5t-2.5 26.5t-2 17.5v63v51q0 15 4 35t11.5 39t18.5 34.5t25 21.5z" />
    <glyph glyph-name="FLW205" unicode="&#x41d;" horiz-adv-x="679" 
d="M513 805l13 -13v-28q1 -2 4.5 -15.5t7.5 -32t4 -24.5v-18q0 -12 -0.5 -25.5t-1.5 -28.5q-6 -72 -6 -90v-37q0 -40 10.5 -61.5t57.5 -21.5q4 1 14 4t20 3q13 0 23 -7l-3 -14q-2 -9 -20.5 -15.5t-39.5 -16.5t-38.5 -28t-17.5 -50v-354q-34 31 -56 89t-22 142v42v62
q0 5 -0.5 12t0.5 12q0 38 -9.5 50.5t-49.5 12.5h-65q-13 -2 -33 -2.5t-48 -1.5q-17 0 -34.5 1t-36.5 3q-17 2 -34.5 6t-35.5 8q-17 -62 -17 -124q0 -146 86 -230q-151 0 -151 204q0 7 -2 36.5t-5 65.5t-5 69.5t-2 48.5q0 126 56 176q23 -49 23 -102q0 -20 -3 -50
q-3 -20 -6 -52q62 -8 133.5 -11t152.5 -3q46 0 66 14.5t20 58.5q0 7 -1 20.5t-2.5 27.5t-2.5 26.5t-2 17.5v63v51q0 15 4 35t11.5 39t18.5 34.5t25 21.5z" />
    <glyph glyph-name="FLW206" unicode="&#xce;" horiz-adv-x="755" 
d="M80 532q34 36 101 56q37 12 83 21.5t100 14.5q19 2 37 3t37 1q126 0 202 -41q95 -51 95 -164q0 -88 -96 -181q-79 -76 -177 -119q-31 -14 -100 -53q-55 -31 -95 -47t-74 -26q-11 -3 -25.5 -6t-26.5 -3q-61 0 -91 30t-30 82v21q0 2 1.5 6.5t2.5 8.5q21 98 71 186
q62 109 135 128q0 -56 -34 -113q-101 -165 -103 -173q-11 -42 -11 -64q0 -66 74 -66q26 0 60 7q196 37 382 205q72 66 72 150q0 85 -62 138q-59 53 -146 53q-183 0 -314 -41q-24 -7 -38 -18t-23.5 -28.5t-17 -43t-17.5 -60.5l-13 14q-1 2 -1 5.5v5.5q0 11 4 27t10 32.5
t13.5 30.5t14.5 21z" />
    <glyph glyph-name="FLW206" unicode="&#x41e;" horiz-adv-x="755" 
d="M80 532q34 36 101 56q37 12 83 21.5t100 14.5q19 2 37 3t37 1q126 0 202 -41q95 -51 95 -164q0 -88 -96 -181q-79 -76 -177 -119q-31 -14 -100 -53q-55 -31 -95 -47t-74 -26q-11 -3 -25.5 -6t-26.5 -3q-61 0 -91 30t-30 82v21q0 2 1.5 6.5t2.5 8.5q21 98 71 186
q62 109 135 128q0 -56 -34 -113q-101 -165 -103 -173q-11 -42 -11 -64q0 -66 74 -66q26 0 60 7q196 37 382 205q72 66 72 150q0 85 -62 138q-59 53 -146 53q-183 0 -314 -41q-24 -7 -38 -18t-23.5 -28.5t-17 -43t-17.5 -60.5l-13 14q-1 2 -1 5.5v5.5q0 11 4 27t10 32.5
t13.5 30.5t14.5 21z" />
    <glyph glyph-name="FLW207" unicode="&#xcf;" horiz-adv-x="698" 
d="M661 23l-41 -14q-4 -2 -16 -2q-52 0 -74 40.5t-22 108.5q0 14 1 42.5t1 42.5q0 58 15 154q5 33 9.5 86.5t9.5 121.5q-35 9 -63.5 11.5t-52.5 2.5q-29 0 -61.5 -8t-62.5 -21t-55.5 -29.5t-41.5 -34.5q-34 -37 -34 -96q0 -8 2 -29t5 -47.5t5 -55t2 -51.5v-79
q0 -115 -13 -166h-27q-48 42 -48 142q0 8 1 28t2.5 42t2 39.5t0.5 20.5q-1 9 -1 18v19q0 17 0.5 34t0.5 33q0 29 -2.5 56.5t-11.5 50.5q-4 11 -18 11t-30.5 -5.5t-21.5 9.5q-3 9 7.5 26t25 36t26.5 37t12 30q3 0 16 -0.5t35 -0.5h21t19 2q25 1 60 14q80 26 136 26
q64 0 108 -7t66 -3q7 0 14.5 8t15.5 18.5t17 20t20 13.5q4 -19 7.5 -37.5t3.5 -43.5q18 -13 28.5 -34t18.5 -42l-51 14q-1 -19 -3 -38l-4 -38l-28 -204q-4 -27 -9.5 -64t-5.5 -80q0 -50 18.5 -82t65.5 -46z" />
    <glyph glyph-name="FLW207" unicode="&#x41f;" horiz-adv-x="698" 
d="M661 23l-41 -14q-4 -2 -16 -2q-52 0 -74 40.5t-22 108.5q0 14 1 42.5t1 42.5q0 58 15 154q5 33 9.5 86.5t9.5 121.5q-35 9 -63.5 11.5t-52.5 2.5q-29 0 -61.5 -8t-62.5 -21t-55.5 -29.5t-41.5 -34.5q-34 -37 -34 -96q0 -8 2 -29t5 -47.5t5 -55t2 -51.5v-79
q0 -115 -13 -166h-27q-48 42 -48 142q0 8 1 28t2.5 42t2 39.5t0.5 20.5q-1 9 -1 18v19q0 17 0.5 34t0.5 33q0 29 -2.5 56.5t-11.5 50.5q-4 11 -18 11t-30.5 -5.5t-21.5 9.5q-3 9 7.5 26t25 36t26.5 37t12 30q3 0 16 -0.5t35 -0.5h21t19 2q25 1 60 14q80 26 136 26
q64 0 108 -7t66 -3q7 0 14.5 8t15.5 18.5t17 20t20 13.5q4 -19 7.5 -37.5t3.5 -43.5q18 -13 28.5 -34t18.5 -42l-51 14q-1 -19 -3 -38l-4 -38l-28 -204q-4 -27 -9.5 -64t-5.5 -80q0 -50 18.5 -82t65.5 -46z" />
    <glyph glyph-name="FLW208" unicode="&#xd0;" horiz-adv-x="497" 
d="M68 0v26q-2 6 -2 11q0 9 4.5 23t10 27.5t10 24t4.5 11.5q0 77 -13 123q1 -2 -8.5 13t-21.5 36.5t-22 44t-10 35.5q0 15 6 35q43 129 48 151q6 26 8 66.5t8.5 79t22 66.5t49.5 28q43 0 114 -34q40 -18 106 -57q50 -30 72.5 -67.5t22.5 -81.5q0 -83 -75 -170
q-70 -79 -156 -119q-34 -15 -62 -42.5t-28 -71.5q0 -16 -6 -52t-14 -106h-68zM190 286h14q2 0 7.5 1t6.5 1q9 0 26.5 8t36 19t36 23t26.5 20q37 32 58.5 77t21.5 89q0 65 -45 116q-38 45 -106 70q-19 7 -42.5 15t-43.5 8q-50 0 -50 -77q0 -184 54 -370z" />
    <glyph glyph-name="FLW208" unicode="&#x420;" horiz-adv-x="497" 
d="M68 0v26q-2 6 -2 11q0 9 4.5 23t10 27.5t10 24t4.5 11.5q0 77 -13 123q1 -2 -8.5 13t-21.5 36.5t-22 44t-10 35.5q0 15 6 35q43 129 48 151q6 26 8 66.5t8.5 79t22 66.5t49.5 28q43 0 114 -34q40 -18 106 -57q50 -30 72.5 -67.5t22.5 -81.5q0 -83 -75 -170
q-70 -79 -156 -119q-34 -15 -62 -42.5t-28 -71.5q0 -16 -6 -52t-14 -106h-68zM190 286h14q2 0 7.5 1t6.5 1q9 0 26.5 8t36 19t36 23t26.5 20q37 32 58.5 77t21.5 89q0 65 -45 116q-38 45 -106 70q-19 7 -42.5 15t-43.5 8q-50 0 -50 -77q0 -184 54 -370z" />
    <glyph glyph-name="FLW209" unicode="&#xd1;" horiz-adv-x="718" 
d="M225 410q-49 -22 -75.5 -49t-47.5 -71q-29 -58 -29 -104q0 -56 42 -78q33 -17 75 -25t89 -8q74 0 188 18l99 15h27q1 0 10.5 2.5t21.5 5t22.5 5t15.5 2.5q35 0 35 -9q0 -13 -40 -24t-95 -19t-111.5 -12.5t-90.5 -4.5q-75 0 -128 4t-84 12q-129 32 -129 135q0 65 45 123
q18 25 43.5 49t58.5 49q3 2 31 22t81 57q23 17 29.5 32.5t6.5 46.5q0 30 9 44t37 28q13 -5 13 -23q0 -5 5 -21t7 -22q2 -5 8.5 -18t13 -28t12 -28.5t5.5 -19.5q0 -8 -2 -19t-6 -27q-14 -54 -27 -93.5t-25 -63.5q-45 -88 -112 -88q0 -1 5 20.5t11 52t11 62t5 49.5q0 28 -6 47
q-13 -6 -26 -12.5t-28 -13.5z" />
    <glyph glyph-name="FLW209" unicode="&#x421;" horiz-adv-x="718" 
d="M225 410q-49 -22 -75.5 -49t-47.5 -71q-29 -58 -29 -104q0 -56 42 -78q33 -17 75 -25t89 -8q74 0 188 18l99 15h27q1 0 10.5 2.5t21.5 5t22.5 5t15.5 2.5q35 0 35 -9q0 -13 -40 -24t-95 -19t-111.5 -12.5t-90.5 -4.5q-75 0 -128 4t-84 12q-129 32 -129 135q0 65 45 123
q18 25 43.5 49t58.5 49q3 2 31 22t81 57q23 17 29.5 32.5t6.5 46.5q0 30 9 44t37 28q13 -5 13 -23q0 -5 5 -21t7 -22q2 -5 8.5 -18t13 -28t12 -28.5t5.5 -19.5q0 -8 -2 -19t-6 -27q-14 -54 -27 -93.5t-25 -63.5q-45 -88 -112 -88q0 -1 5 20.5t11 52t11 62t5 49.5q0 28 -6 47
q-13 -6 -26 -12.5t-28 -13.5z" />
    <glyph glyph-name="FLW210" unicode="&#xd2;" horiz-adv-x="831" 
d="M307 668q114 -12 272 -12q165 0 232 -69l-144 26t-145 27h-20q-94 0 -94 -77q0 -7 1 -20.5t2.5 -29t2.5 -29t1 -20.5q0 -13 2 -39.5t5 -57t5 -60t2 -48.5q0 -23 -2 -47.5t-2 -50.5q0 -17 2 -45t2 -65v-77q-46 20 -57 68t-11 110v271q0 89 -10 128q-9 35 -27 55t-45 22
q-23 2 -58 4.5t-82 7.5q-76 8 -119 70q19 11 48 11q27 0 52.5 -4.5t53 -11.5t60 -17t73.5 -20z" />
    <glyph glyph-name="FLW210" unicode="&#x422;" horiz-adv-x="831" 
d="M307 668q114 -12 272 -12q165 0 232 -69l-144 26t-145 27h-20q-94 0 -94 -77q0 -7 1 -20.5t2.5 -29t2.5 -29t1 -20.5q0 -13 2 -39.5t5 -57t5 -60t2 -48.5q0 -23 -2 -47.5t-2 -50.5q0 -17 2 -45t2 -65v-77q-46 20 -57 68t-11 110v271q0 89 -10 128q-9 35 -27 55t-45 22
q-23 2 -58 4.5t-82 7.5q-76 8 -119 70q19 11 48 11q27 0 52.5 -4.5t53 -11.5t60 -17t73.5 -20z" />
    <glyph glyph-name="FLW211" unicode="&#xd3;" horiz-adv-x="694" 
d="M436 518q16 21 41 52.5t59 73.5q27 33 61 49.5t71 16.5q10 -10 0.5 -28.5t-32 -42.5t-53.5 -52.5t-63.5 -57t-62 -56t-48.5 -50.5q-37 -43 -44 -53q-14 -18 -19.5 -28.5t-18.5 -25.5l-32 -38q-17 -20 -28 -33.5t-12 -15.5q-23 -28 -47 -56.5t-58 -64.5q-17 -18 -37 -40.5
t-38 -39t-33 -22t-21 9.5q-5 12 24 44.5t66 76t68.5 93.5t31.5 96q0 13 -11 30.5t-29 38.5t-40 44.5t-43 48.5q-26 31 -41 63t-20 63q31 -6 65 -34t65 -77q17 -27 42 -67.5t59 -94.5q24 14 48 35t48 47q18 19 38.5 42.5t43.5 52.5z" />
    <glyph glyph-name="FLW211" unicode="&#x423;" horiz-adv-x="694" 
d="M436 518q16 21 41 52.5t59 73.5q27 33 61 49.5t71 16.5q10 -10 0.5 -28.5t-32 -42.5t-53.5 -52.5t-63.5 -57t-62 -56t-48.5 -50.5q-37 -43 -44 -53q-14 -18 -19.5 -28.5t-18.5 -25.5l-32 -38q-17 -20 -28 -33.5t-12 -15.5q-23 -28 -47 -56.5t-58 -64.5q-17 -18 -37 -40.5
t-38 -39t-33 -22t-21 9.5q-5 12 24 44.5t66 76t68.5 93.5t31.5 96q0 13 -11 30.5t-29 38.5t-40 44.5t-43 48.5q-26 31 -41 63t-20 63q31 -6 65 -34t65 -77q17 -27 42 -67.5t59 -94.5q24 14 48 35t48 47q18 19 38.5 42.5t43.5 52.5z" />
    <glyph glyph-name="FLW212" unicode="&#xd4;" horiz-adv-x="775" 
d="M358 -6q-4 17 -9 35.5t-5 38.5q0 10 -1.5 32t-5 45.5t-8 43.5t-10.5 26q1 -1 -11.5 8.5t-36.5 19.5l-86 34q-35 13 -73 35.5t-65 51.5q-27 32 -27 62q0 32 27 65q13 16 24.5 26t20 17.5t13 16t4.5 21.5q0 16 -5.5 35.5t-5.5 34.5q0 41 26 58.5t64 17.5q33 0 68 -9.5
t63 -21.5q24 -11 57 -25t74 -33l8 32q3 13 9.5 17t13.5 4q27 0 27 -20q0 -9 -3 -22.5t-7 -32.5q4 -1 7 -3t7 -3q108 -51 170 -119q31 -34 52 -72t21 -75q0 -53 -44.5 -80t-109.5 -40q-4 -1 -31.5 -3t-60.5 -6.5t-63.5 -11.5t-40.5 -16q-15 -15 -15 -47q0 -21 3.5 -46.5
t3.5 -55.5v-25.5t-3 -27.5t-10 -22t-21 -9q-10 0 -13 5t-2 12t4.5 15.5t5.5 16.5zM401 436l38 151q-22 0 -50.5 -4t-62.5 -15q-21 -7 -61 -23t-80 -37.5t-70 -47.5t-30 -53q0 -21 20 -44q34 -37 96.5 -62.5t137.5 -46.5q9 45 16 65q7 25 23 57.5t23 59.5zM578 513l-88 55
q-9 -40 -21 -86.5t-22.5 -87.5t-18 -70.5t-7.5 -37.5q0 -29 3.5 -44t27.5 -15q20 0 58 8q23 5 44.5 6.5t41.5 4.5t38 9.5t35 19.5q19 16 29 36t10 40q0 24 -12.5 47.5t-32 44.5t-42 39t-43.5 31zM293 629l-19 22q-16 16 -54 16q-26 0 -53.5 -6.5t-45.5 -14.5q7 -35 23 -52
q15 -16 38 -16q40 0 111 51z" />
    <glyph glyph-name="FLW212" unicode="&#x424;" horiz-adv-x="775" 
d="M358 -6q-4 17 -9 35.5t-5 38.5q0 10 -1.5 32t-5 45.5t-8 43.5t-10.5 26q1 -1 -11.5 8.5t-36.5 19.5l-86 34q-35 13 -73 35.5t-65 51.5q-27 32 -27 62q0 32 27 65q13 16 24.5 26t20 17.5t13 16t4.5 21.5q0 16 -5.5 35.5t-5.5 34.5q0 41 26 58.5t64 17.5q33 0 68 -9.5
t63 -21.5q24 -11 57 -25t74 -33l8 32q3 13 9.5 17t13.5 4q27 0 27 -20q0 -9 -3 -22.5t-7 -32.5q4 -1 7 -3t7 -3q108 -51 170 -119q31 -34 52 -72t21 -75q0 -53 -44.5 -80t-109.5 -40q-4 -1 -31.5 -3t-60.5 -6.5t-63.5 -11.5t-40.5 -16q-15 -15 -15 -47q0 -21 3.5 -46.5
t3.5 -55.5v-25.5t-3 -27.5t-10 -22t-21 -9q-10 0 -13 5t-2 12t4.5 15.5t5.5 16.5zM401 436l38 151q-22 0 -50.5 -4t-62.5 -15q-21 -7 -61 -23t-80 -37.5t-70 -47.5t-30 -53q0 -21 20 -44q34 -37 96.5 -62.5t137.5 -46.5q9 45 16 65q7 25 23 57.5t23 59.5zM578 513l-88 55
q-9 -40 -21 -86.5t-22.5 -87.5t-18 -70.5t-7.5 -37.5q0 -29 3.5 -44t27.5 -15q20 0 58 8q23 5 44.5 6.5t41.5 4.5t38 9.5t35 19.5q19 16 29 36t10 40q0 24 -12.5 47.5t-32 44.5t-42 39t-43.5 31zM293 629l-19 22q-16 16 -54 16q-26 0 -53.5 -6.5t-45.5 -14.5q7 -35 23 -52
q15 -16 38 -16q40 0 111 51z" />
    <glyph glyph-name="FLW213" unicode="&#xd5;" horiz-adv-x="764" 
d="M33 -68l-13 14v14q0 29 23.5 77.5t48.5 97.5l174 233q9 21 14 31.5l5 10.5q0 6 -5 15t-27 25l-164 124q-20 16 -38 39t-18 45q0 24 15 24q8 0 21 -8t28 -20t31 -26t29 -28q98 -100 178 -150q24 39 40.5 64t25.5 38q7 10 17 22.5t20 23t20 17.5t17 7q12 0 12 -22
q0 -19 -5.5 -34t-14.5 -30t-22 -32t-28 -40q-18 -28 -18 -48q0 -9 7.5 -20t17 -21.5t19 -19.5t14.5 -14q29 -32 56 -63t53 -60q5 -6 27 -37.5t49.5 -70t55.5 -74.5t46 -50q-86 0 -133 48q-16 16 -33.5 48.5t-38.5 81.5q-27 65 -137 136q-3 2 -9 8t-13.5 12t-15 11t-13.5 5
q-13 0 -31 -11.5t-36 -27.5t-34 -34t-25 -31q-35 -49 -60 -86t-40 -61q-21 -32 -44 -70.5t-48 -82.5z" />
    <glyph glyph-name="FLW213" unicode="&#x425;" horiz-adv-x="764" 
d="M33 -68l-13 14v14q0 29 23.5 77.5t48.5 97.5l174 233q9 21 14 31.5l5 10.5q0 6 -5 15t-27 25l-164 124q-20 16 -38 39t-18 45q0 24 15 24q8 0 21 -8t28 -20t31 -26t29 -28q98 -100 178 -150q24 39 40.5 64t25.5 38q7 10 17 22.5t20 23t20 17.5t17 7q12 0 12 -22
q0 -19 -5.5 -34t-14.5 -30t-22 -32t-28 -40q-18 -28 -18 -48q0 -9 7.5 -20t17 -21.5t19 -19.5t14.5 -14q29 -32 56 -63t53 -60q5 -6 27 -37.5t49.5 -70t55.5 -74.5t46 -50q-86 0 -133 48q-16 16 -33.5 48.5t-38.5 81.5q-27 65 -137 136q-3 2 -9 8t-13.5 12t-15 11t-13.5 5
q-13 0 -31 -11.5t-36 -27.5t-34 -34t-25 -31q-35 -49 -60 -86t-40 -61q-21 -32 -44 -70.5t-48 -82.5z" />
    <glyph glyph-name="FLW214" unicode="&#xd6;" horiz-adv-x="660" 
d="M20 54q0 81 15 190q5 35 15.5 86.5t10.5 119.5q0 8 1 36t5 84q2 30 20 48t43 23q0 -45 -9 -105q-9 -68 -14 -110t-5 -58q0 -23 -1.5 -47.5t-3.5 -50.5q-12 -130 -12 -154q0 -31 4.5 -65t12.5 -65q95 17 183 103q46 46 67 91t21 90v66q0 98 36 176q41 89 116 116
q10 -43 10 -88q0 -25 -4 -54t-4 -64q0 -2 -8 -21t-18 -46t-18 -57t-8 -56q0 -13 7.5 -35t16.5 -40t16.5 -25.5t7.5 8.5q0 6 6 24t15.5 37.5t21.5 34.5t24 15q16 0 30 -35.5t20 -129.5q-12 -17 -26 -24t-30 -7q-15 0 -30 4.5t-29 9.5q-11 4 -30 -18.5t-39 -50t-37.5 -48.5
t-25.5 -15q-1 1 2 15t7.5 36t8.5 48t4 52v44q0 10 -2 19.5t-11 15.5q-52 -64 -136 -135q-113 -95 -177 -95q-69 0 -69 107zM430 286q77 72 77 200q0 31 -8 73q-84 -51 -84 -163q0 -43 15 -110zM581 220q14 0 25 -20.5t11 -49.5t-11 -49t-25 -20t-24.5 20t-10.5 49t10.5 49.5
t24.5 20.5z" />
    <glyph glyph-name="FLW214" unicode="&#x426;" horiz-adv-x="660" 
d="M20 54q0 81 15 190q5 35 15.5 86.5t10.5 119.5q0 8 1 36t5 84q2 30 20 48t43 23q0 -45 -9 -105q-9 -68 -14 -110t-5 -58q0 -23 -1.5 -47.5t-3.5 -50.5q-12 -130 -12 -154q0 -31 4.5 -65t12.5 -65q95 17 183 103q46 46 67 91t21 90v66q0 98 36 176q41 89 116 116
q10 -43 10 -88q0 -25 -4 -54t-4 -64q0 -2 -8 -21t-18 -46t-18 -57t-8 -56q0 -13 7.5 -35t16.5 -40t16.5 -25.5t7.5 8.5q0 6 6 24t15.5 37.5t21.5 34.5t24 15q16 0 30 -35.5t20 -129.5q-12 -17 -26 -24t-30 -7q-15 0 -30 4.5t-29 9.5q-11 4 -30 -18.5t-39 -50t-37.5 -48.5
t-25.5 -15q-1 1 2 15t7.5 36t8.5 48t4 52v44q0 10 -2 19.5t-11 15.5q-52 -64 -136 -135q-113 -95 -177 -95q-69 0 -69 107zM430 286q77 72 77 200q0 31 -8 73q-84 -51 -84 -163q0 -43 15 -110zM581 220q14 0 25 -20.5t11 -49.5t-11 -49t-25 -20t-24.5 20t-10.5 49t10.5 49.5
t24.5 20.5z" />
    <glyph glyph-name="FLW215" unicode="&#xd7;" horiz-adv-x="672" 
d="M513 805l13 -13v-28q1 -2 4.5 -15.5t7.5 -32t4 -24.5v-18q0 -12 -0.5 -25.5t-1.5 -28.5q-6 -72 -6 -90v-43q0 -35 10 -56t50 -21h47q1 0 6 -7t3 -7h-2q6 0 0.5 -3.5t-18 -9t-29.5 -13t-32 -16.5q-29 -15 -29 -68v-354q-22 -14 -35 4.5t-20 54.5t-9.5 82.5t-2.5 88.5v42
v65v20q0 38 -15 51.5t-55 13.5h-65q-13 -2 -33 -2.5t-48 -1.5q-17 0 -34.5 1t-36.5 3q-17 2 -34.5 6t-35.5 8h-30q-32 0 -38 1.5l-6 1.5q-8 9 -12.5 15t-6.5 12.5t-2.5 15.5t-0.5 24q0 32 16 88t38.5 111t46.5 95.5t40 40.5q11 0 4.5 -36t-19 -82t-27 -88.5t-20.5 -54.5
q-11 -24 -15 -45t6 -57q62 -8 133.5 -11t152.5 -3q46 0 66 14.5t20 58.5q0 8 0.5 20.5t-0.5 26.5q0 17 0.5 28t-0.5 16q0 9 -4 23t-4 38v53q0 105 59 131z" />
    <glyph glyph-name="FLW215" unicode="&#x427;" horiz-adv-x="672" 
d="M513 805l13 -13v-28q1 -2 4.5 -15.5t7.5 -32t4 -24.5v-18q0 -12 -0.5 -25.5t-1.5 -28.5q-6 -72 -6 -90v-43q0 -35 10 -56t50 -21h47q1 0 6 -7t3 -7h-2q6 0 0.5 -3.5t-18 -9t-29.5 -13t-32 -16.5q-29 -15 -29 -68v-354q-22 -14 -35 4.5t-20 54.5t-9.5 82.5t-2.5 88.5v42
v65v20q0 38 -15 51.5t-55 13.5h-65q-13 -2 -33 -2.5t-48 -1.5q-17 0 -34.5 1t-36.5 3q-17 2 -34.5 6t-35.5 8h-30q-32 0 -38 1.5l-6 1.5q-8 9 -12.5 15t-6.5 12.5t-2.5 15.5t-0.5 24q0 32 16 88t38.5 111t46.5 95.5t40 40.5q11 0 4.5 -36t-19 -82t-27 -88.5t-20.5 -54.5
q-11 -24 -15 -45t6 -57q62 -8 133.5 -11t152.5 -3q46 0 66 14.5t20 58.5q0 8 0.5 20.5t-0.5 26.5q0 17 0.5 28t-0.5 16q0 9 -4 23t-4 38v53q0 105 59 131z" />
    <glyph glyph-name="FLW216" unicode="&#xd8;" horiz-adv-x="794" 
d="M720 674l22 18q20 0 26 -39t6 -92q0 -28 -1 -57t-2.5 -55.5t-2.5 -49.5t-1 -38q0 -78 -11 -156t-33 -138q-12 -33 -24 -46t-27 -13q-12 0 -36 5t-36 5q-20 0 -61.5 -3t-87 -6.5t-87.5 -7.5t-64 -6q-2 0 -24 -2.5t-50 -4.5t-55 -4t-39 -2q-93 0 -102 68q-5 35 -7.5 72.5
t-2.5 78.5q0 54 6 115t15.5 121.5t23 116t28 97.5t30 67t29.5 24q12 -4 12 -17q0 -16 -11 -38t-15 -39q-21 -71 -31 -108.5t-10 -39.5q-2 -20 -6 -55.5t-8.5 -72.5t-8 -68.5t-3.5 -43.5q0 -106 10 -139q19 -64 89 -64q29 0 74.5 8.5t102.5 18.5q13 6 23 39t17 75.5t12 86
t9 71.5q34 131 52 203t19 87q5 13 6.5 19t14.5 5q12 -1 13.5 -18t1.5 -33q0 -25 -7 -55.5t-16.5 -62t-19 -61.5t-14.5 -53q-5 -25 -10 -60.5t-10 -74t-9.5 -77.5t-9.5 -72q23 -3 40.5 -5.5t31.5 -4t27.5 -2.5t29.5 -1q78 0 115.5 36t47.5 104q6 42 11.5 90t5.5 103
q0 18 -3 46t-7 58t-7 59.5t-3 50.5q0 37 12 37z" />
    <glyph glyph-name="FLW216" unicode="&#x428;" horiz-adv-x="794" 
d="M720 674l22 18q20 0 26 -39t6 -92q0 -28 -1 -57t-2.5 -55.5t-2.5 -49.5t-1 -38q0 -78 -11 -156t-33 -138q-12 -33 -24 -46t-27 -13q-12 0 -36 5t-36 5q-20 0 -61.5 -3t-87 -6.5t-87.5 -7.5t-64 -6q-2 0 -24 -2.5t-50 -4.5t-55 -4t-39 -2q-93 0 -102 68q-5 35 -7.5 72.5
t-2.5 78.5q0 54 6 115t15.5 121.5t23 116t28 97.5t30 67t29.5 24q12 -4 12 -17q0 -16 -11 -38t-15 -39q-21 -71 -31 -108.5t-10 -39.5q-2 -20 -6 -55.5t-8.5 -72.5t-8 -68.5t-3.5 -43.5q0 -106 10 -139q19 -64 89 -64q29 0 74.5 8.5t102.5 18.5q13 6 23 39t17 75.5t12 86
t9 71.5q34 131 52 203t19 87q5 13 6.5 19t14.5 5q12 -1 13.5 -18t1.5 -33q0 -25 -7 -55.5t-16.5 -62t-19 -61.5t-14.5 -53q-5 -25 -10 -60.5t-10 -74t-9.5 -77.5t-9.5 -72q23 -3 40.5 -5.5t31.5 -4t27.5 -2.5t29.5 -1q78 0 115.5 36t47.5 104q6 42 11.5 90t5.5 103
q0 18 -3 46t-7 58t-7 59.5t-3 50.5q0 37 12 37z" />
    <glyph glyph-name="FLW217" unicode="&#xd9;" horiz-adv-x="889" 
d="M720 674l24 8q8 -3 13 -21.5t7.5 -46.5t3.5 -61.5t1 -67.5q0 -37 -0.5 -69.5t-0.5 -53.5q0 -46 -2 -84.5t-2 -68.5q0 -33 4.5 -52t16 -28.5t31.5 -11.5t50 -2q6 0 -3 -14.5t-28.5 -36.5t-45 -48t-52 -48t-51 -36.5t-41.5 -14.5t-14 14t13.5 31.5t20.5 31.5t7 14
q-12 0 -36 5t-36 5q-20 0 -61 -3t-86.5 -7.5t-87 -9t-64.5 -7.5q-4 -1 -27 -4t-51 -6t-54.5 -5.5t-38.5 -2.5q-45 0 -70.5 21.5t-29.5 55.5q-5 35 -7.5 72.5t-2.5 78.5q0 54 6 115t15.5 121.5t23 116t28 97.5t30 67t29.5 24q12 -4 12 -17q0 -16 -11 -38t-15 -39
q-21 -71 -31 -108.5t-10 -39.5q-2 -20 -6 -55.5t-8.5 -72.5t-8 -68.5t-3.5 -43.5q0 -106 10 -139q19 -64 89 -64q29 0 74.5 8.5t102.5 18.5q13 6 23 39t17 75t12 86t9 72q34 131 52 203t19 87q5 13 4 18.5t17 5.5q6 0 8.5 -8t2.5 -19t-1.5 -23.5t-3.5 -20.5
q-9 -51 -23.5 -108t-24.5 -104q-5 -25 -9 -60.5t-8 -74.5t-9.5 -77.5t-12.5 -71.5q23 -3 40.5 -5.5t31.5 -4t27.5 -2.5t29.5 -1q78 0 115.5 36t47.5 104q6 42 11.5 90t5.5 103q0 18 -3 46t-7 58t-7 59.5t-3 50.5q0 37 12 37z" />
    <glyph glyph-name="FLW217" unicode="&#x429;" horiz-adv-x="889" 
d="M720 674l24 8q8 -3 13 -21.5t7.5 -46.5t3.5 -61.5t1 -67.5q0 -37 -0.5 -69.5t-0.5 -53.5q0 -46 -2 -84.5t-2 -68.5q0 -33 4.5 -52t16 -28.5t31.5 -11.5t50 -2q6 0 -3 -14.5t-28.5 -36.5t-45 -48t-52 -48t-51 -36.5t-41.5 -14.5t-14 14t13.5 31.5t20.5 31.5t7 14
q-12 0 -36 5t-36 5q-20 0 -61 -3t-86.5 -7.5t-87 -9t-64.5 -7.5q-4 -1 -27 -4t-51 -6t-54.5 -5.5t-38.5 -2.5q-45 0 -70.5 21.5t-29.5 55.5q-5 35 -7.5 72.5t-2.5 78.5q0 54 6 115t15.5 121.5t23 116t28 97.5t30 67t29.5 24q12 -4 12 -17q0 -16 -11 -38t-15 -39
q-21 -71 -31 -108.5t-10 -39.5q-2 -20 -6 -55.5t-8.5 -72.5t-8 -68.5t-3.5 -43.5q0 -106 10 -139q19 -64 89 -64q29 0 74.5 8.5t102.5 18.5q13 6 23 39t17 75t12 86t9 72q34 131 52 203t19 87q5 13 4 18.5t17 5.5q6 0 8.5 -8t2.5 -19t-1.5 -23.5t-3.5 -20.5
q-9 -51 -23.5 -108t-24.5 -104q-5 -25 -9 -60.5t-8 -74.5t-9.5 -77.5t-12.5 -71.5q23 -3 40.5 -5.5t31.5 -4t27.5 -2.5t29.5 -1q78 0 115.5 36t47.5 104q6 42 11.5 90t5.5 103q0 18 -3 46t-7 58t-7 59.5t-3 50.5q0 37 12 37z" />
    <glyph glyph-name="FLW218" unicode="&#xda;" horiz-adv-x="591" 
d="M160 800l-9 -22q-2 -5 -12.5 -6.5t-24.5 -1.5q-10 0 -21.5 0.5t-22.5 0.5q-20 0 -35 -3t-15 -13q0 -9 26.5 -22t58 -25t58 -21t26.5 -11q0 -38 -4 -68t-11 -54q1 2 -8.5 -13t-21.5 -36.5t-22 -44t-10 -35.5q0 -15 6 -35q43 -129 48 -151q6 -26 8 -69t8 -84t21.5 -71
t49.5 -30q21 0 50 15.5t65 32.5q40 18 106 57q50 30 73.5 68t23.5 81q0 42 -19.5 84.5t-57.5 85.5q-70 79 -156 119q-34 15 -57.5 36t-34.5 63q0 37 20 65t46 50q9 8 -2.5 9.5t-29 4.5t-34 12t-16.5 33zM250 491l46 23q8 0 28 -8.5t41.5 -20.5t41.5 -24t28 -19
q37 -32 59.5 -77t22.5 -89q0 -33 -12.5 -61.5t-34.5 -54.5q-38 -45 -106 -70q-19 -7 -42.5 -15t-43.5 -8q-25 0 -36.5 18t-11.5 59q0 86 5.5 166.5t14.5 180.5z" />
    <glyph glyph-name="FLW218" unicode="&#x42a;" horiz-adv-x="591" 
d="M160 800l-9 -22q-2 -5 -12.5 -6.5t-24.5 -1.5q-10 0 -21.5 0.5t-22.5 0.5q-20 0 -35 -3t-15 -13q0 -9 26.5 -22t58 -25t58 -21t26.5 -11q0 -38 -4 -68t-11 -54q1 2 -8.5 -13t-21.5 -36.5t-22 -44t-10 -35.5q0 -15 6 -35q43 -129 48 -151q6 -26 8 -69t8 -84t21.5 -71
t49.5 -30q21 0 50 15.5t65 32.5q40 18 106 57q50 30 73.5 68t23.5 81q0 42 -19.5 84.5t-57.5 85.5q-70 79 -156 119q-34 15 -57.5 36t-34.5 63q0 37 20 65t46 50q9 8 -2.5 9.5t-29 4.5t-34 12t-16.5 33zM250 491l46 23q8 0 28 -8.5t41.5 -20.5t41.5 -24t28 -19
q37 -32 59.5 -77t22.5 -89q0 -33 -12.5 -61.5t-34.5 -54.5q-38 -45 -106 -70q-19 -7 -42.5 -15t-43.5 -8q-25 0 -36.5 18t-11.5 59q0 86 5.5 166.5t14.5 180.5z" />
    <glyph glyph-name="FLW219" unicode="&#xdb;" horiz-adv-x="677" 
d="M67 801l1 -27q-2 -6 -2 -11q0 -9 5 -23t10.5 -27.5t10.5 -24t5 -11.5q0 -25 -6 -52t-15 -74q-14 -18 -35 -51.5t-21 -74.5q0 -15 6 -35q43 -129 48 -151q6 -26 8 -68.5t8.5 -83t22 -70t49.5 -29.5q19 0 45 10t56 25t60.5 33t58.5 34q50 30 73.5 68t23.5 81
q0 42 -19.5 84.5t-57.5 85.5q-70 79 -156 119q-34 15 -50 41.5t-36 67.5q-3 24 -5.5 40t-4.5 31.5t-5 36.5t-7 56h-71zM190 514h14h5q9 0 28 -8.5t39 -20t39 -23.5t28 -20q37 -32 59.5 -77t22.5 -89q0 -33 -12.5 -61.5t-34.5 -54.5q-38 -45 -106 -70q-19 -7 -42.5 -15
t-43.5 -8q-48 0 -48 77q0 92 12.5 184.5t39.5 185.5zM655 24l2 -34q-11 -2 -32 -2h-26q-26 0 -44.5 14t-30 37t-16.5 53.5t-5 64.5q0 14 0.5 42.5t0.5 42.5q0 58 15 154q5 36 11 93.5t12 134.5q13 74 72 95q8 -43 8 -99q0 -31 -2 -61t-6 -59l-28 -204q-4 -27 -9.5 -63.5
t-5.5 -80.5q0 -50 18.5 -82t65.5 -46z" />
    <glyph glyph-name="FLW219" unicode="&#x42b;" horiz-adv-x="677" 
d="M67 801l1 -27q-2 -6 -2 -11q0 -9 5 -23t10.5 -27.5t10.5 -24t5 -11.5q0 -25 -6 -52t-15 -74q-14 -18 -35 -51.5t-21 -74.5q0 -15 6 -35q43 -129 48 -151q6 -26 8 -68.5t8.5 -83t22 -70t49.5 -29.5q19 0 45 10t56 25t60.5 33t58.5 34q50 30 73.5 68t23.5 81
q0 42 -19.5 84.5t-57.5 85.5q-70 79 -156 119q-34 15 -50 41.5t-36 67.5q-3 24 -5.5 40t-4.5 31.5t-5 36.5t-7 56h-71zM190 514h14h5q9 0 28 -8.5t39 -20t39 -23.5t28 -20q37 -32 59.5 -77t22.5 -89q0 -33 -12.5 -61.5t-34.5 -54.5q-38 -45 -106 -70q-19 -7 -42.5 -15
t-43.5 -8q-48 0 -48 77q0 92 12.5 184.5t39.5 185.5zM655 24l2 -34q-11 -2 -32 -2h-26q-26 0 -44.5 14t-30 37t-16.5 53.5t-5 64.5q0 14 0.5 42.5t0.5 42.5q0 58 15 154q5 36 11 93.5t12 134.5q13 74 72 95q8 -43 8 -99q0 -31 -2 -61t-6 -59l-28 -204q-4 -27 -9.5 -63.5
t-5.5 -80.5q0 -50 18.5 -82t65.5 -46z" />
    <glyph glyph-name="FLW220" unicode="&#xdc;" horiz-adv-x="499" 
d="M76 801l-8 -27q-2 -6 -2 -11q0 -9 5 -23t10.5 -27.5t10.5 -24t5 -11.5q0 -37 -4 -68t-11 -55q1 2 -8.5 -13t-21.5 -36.5t-22 -44t-10 -35.5q0 -15 6 -35q43 -129 48 -151q6 -26 8 -68.5t8.5 -83t22 -70t49.5 -29.5q19 0 45 10t56 25t60.5 33t58.5 34q50 30 73.5 68
t23.5 81q0 42 -19.5 84.5t-57.5 85.5q-34 39 -75.5 65t-80.5 54q-15 11 -27 21.5t-22 23t-19.5 29t-21.5 40.5q-2 9 -6 49t-12 110h-62zM190 514h14h5q9 0 28 -8.5t39 -20t39 -23.5t28 -20q37 -32 59.5 -77t22.5 -88q0 -64 -47 -117q-38 -45 -106 -70q-19 -7 -42.5 -15
t-43.5 -8q-48 0 -48 76q0 91 12.5 184.5t39.5 186.5z" />
    <glyph glyph-name="FLW220" unicode="&#x42c;" horiz-adv-x="499" 
d="M76 801l-8 -27q-2 -6 -2 -11q0 -9 5 -23t10.5 -27.5t10.5 -24t5 -11.5q0 -37 -4 -68t-11 -55q1 2 -8.5 -13t-21.5 -36.5t-22 -44t-10 -35.5q0 -15 6 -35q43 -129 48 -151q6 -26 8 -68.5t8.5 -83t22 -70t49.5 -29.5q19 0 45 10t56 25t60.5 33t58.5 34q50 30 73.5 68
t23.5 81q0 42 -19.5 84.5t-57.5 85.5q-34 39 -75.5 65t-80.5 54q-15 11 -27 21.5t-22 23t-19.5 29t-21.5 40.5q-2 9 -6 49t-12 110h-62zM190 514h14h5q9 0 28 -8.5t39 -20t39 -23.5t28 -20q37 -32 59.5 -77t22.5 -88q0 -64 -47 -117q-38 -45 -106 -70q-19 -7 -42.5 -15
t-43.5 -8q-48 0 -48 76q0 91 12.5 184.5t39.5 186.5z" />
    <glyph glyph-name="FLW221" unicode="&#xdd;" horiz-adv-x="718" 
d="M514 259l60 -38q2 0 14 1t28 2t22 1q-4 16 -9 32t-13 33q-21 44 -47.5 71t-75.5 49q-15 7 -28 13.5t-26 12.5q-23 9 -48 27.5t-45 18.5q-8 0 -15.5 -2.5t-20.5 -3.5q-14 -1 -15.5 5.5t-1.5 14.5q0 6 8 23t17.5 36l17.5 35t9 20q4 14 7 25.5t5 20.5q28 -14 37 -28t9 -44
q0 -31 6.5 -46.5t29.5 -32.5q53 -37 81 -57t31 -22q33 -25 58.5 -49t43.5 -49q45 -58 45 -123q0 -103 -129 -135q-31 -8 -84 -12t-128 -4q-34 0 -90.5 4.5t-111.5 12.5t-95 19t-40 24q0 9 35 9q5 0 15.5 -2.5t22.5 -5t21.5 -5t10.5 -2.5h27l99 -15q114 -18 188 -18
q47 0 89 8t75 25q42 22 42 78q0 -2 -8.5 -3t-19.5 -3l-45 -8q-8 -2 -22 3t-28 12.5t-24 16.5t-10 15v24q0 11 5.5 14.5t20.5 1.5z" />
    <glyph glyph-name="FLW221" unicode="&#x42d;" horiz-adv-x="718" 
d="M514 259l60 -38q2 0 14 1t28 2t22 1q-4 16 -9 32t-13 33q-21 44 -47.5 71t-75.5 49q-15 7 -28 13.5t-26 12.5q-23 9 -48 27.5t-45 18.5q-8 0 -15.5 -2.5t-20.5 -3.5q-14 -1 -15.5 5.5t-1.5 14.5q0 6 8 23t17.5 36l17.5 35t9 20q4 14 7 25.5t5 20.5q28 -14 37 -28t9 -44
q0 -31 6.5 -46.5t29.5 -32.5q53 -37 81 -57t31 -22q33 -25 58.5 -49t43.5 -49q45 -58 45 -123q0 -103 -129 -135q-31 -8 -84 -12t-128 -4q-34 0 -90.5 4.5t-111.5 12.5t-95 19t-40 24q0 9 35 9q5 0 15.5 -2.5t22.5 -5t21.5 -5t10.5 -2.5h27l99 -15q114 -18 188 -18
q47 0 89 8t75 25q42 22 42 78q0 -2 -8.5 -3t-19.5 -3l-45 -8q-8 -2 -22 3t-28 12.5t-24 16.5t-10 15v24q0 11 5.5 14.5t20.5 1.5z" />
    <glyph glyph-name="FLW222" unicode="&#xde;" horiz-adv-x="923" 
d="M209 196q11 32 24 63.5t30 62.5q62 109 135 128q0 -56 -34 -113q-101 -165 -103 -173q-11 -42 -11 -64q0 -66 74 -66q26 0 60 7q196 37 382 205q72 66 72 150q0 85 -62 138q-59 53 -146 53q-183 0 -314 -41q-24 -7 -38 -18t-23.5 -28.5t-17 -43t-17.5 -60.5l-13 14
q-1 2 -1 5.5v5.5q0 11 4 27t10 32.5t13.5 30.5t14.5 21q34 36 101 56q37 12 83 21.5t100 14.5q19 2 37 3t37 1q126 0 202 -41q95 -51 95 -164q0 -88 -96 -181q-39 -38 -77 -75.5t-87 -59.5q-15 -7 -39 -23t-59 -35q-55 -31 -103.5 -43.5t-81.5 -16.5q-10 -1 -24 -1.5
t-26 -0.5q-30 0 -50 23.5t-32 49.5t-19 44t-12 6l-9 -21l-22 -69q-2 -6 -9 -12.5t-15 -11.5t-15.5 -8t-10.5 -3q-52 0 -74 41.5t-22 107.5v86q0 29 5 67t12 86q5 36 11 93.5t12 134.5q13 74 72 95q8 -43 8 -99q0 -31 -2 -61t-6 -59l-28 -204q-4 -27 -9.5 -64t-5.5 -80
q0 -23 12 -23q9 0 22 10t27.5 24.5l30 30t28.5 25.5z" />
    <glyph glyph-name="FLW222" unicode="&#x42e;" horiz-adv-x="923" 
d="M209 196q11 32 24 63.5t30 62.5q62 109 135 128q0 -56 -34 -113q-101 -165 -103 -173q-11 -42 -11 -64q0 -66 74 -66q26 0 60 7q196 37 382 205q72 66 72 150q0 85 -62 138q-59 53 -146 53q-183 0 -314 -41q-24 -7 -38 -18t-23.5 -28.5t-17 -43t-17.5 -60.5l-13 14
q-1 2 -1 5.5v5.5q0 11 4 27t10 32.5t13.5 30.5t14.5 21q34 36 101 56q37 12 83 21.5t100 14.5q19 2 37 3t37 1q126 0 202 -41q95 -51 95 -164q0 -88 -96 -181q-39 -38 -77 -75.5t-87 -59.5q-15 -7 -39 -23t-59 -35q-55 -31 -103.5 -43.5t-81.5 -16.5q-10 -1 -24 -1.5
t-26 -0.5q-30 0 -50 23.5t-32 49.5t-19 44t-12 6l-9 -21l-22 -69q-2 -6 -9 -12.5t-15 -11.5t-15.5 -8t-10.5 -3q-52 0 -74 41.5t-22 107.5v86q0 29 5 67t12 86q5 36 11 93.5t12 134.5q13 74 72 95q8 -43 8 -99q0 -31 -2 -61t-6 -59l-28 -204q-4 -27 -9.5 -64t-5.5 -80
q0 -23 12 -23q9 0 22 10t27.5 24.5l30 30t28.5 25.5z" />
    <glyph glyph-name="FLW223" unicode="&#xdf;" horiz-adv-x="694" 
d="M590 41l4 47l4 39l12 49q4 20 12.5 79t13.5 181q5 93 25 151q13 39 13 53q0 24 -22 24q-6 0 -28 -10t-48.5 -23t-52 -26t-39.5 -18q-28 -11 -69 -26.5t-96 -38.5q-95 -40 -135 -112q-14 -25 -14 -54q0 -84 122 -151q-33 -49 -90 -84q-18 -11 -63.5 -38t-118.5 -69
q14 -5 37 -5q47 0 107 29q4 2 30.5 17.5t59.5 34t64.5 35t45.5 21.5q50 18 106 18q18 0 31.5 -18t26.5 -40t27.5 -42t34.5 -23zM590 569l-6 -23l-5 -14q-1 -2 -1 0q0 -3 -2 -10.5t-4.5 -14t-4 -11.5t-1.5 -4q-7 -28 -15 -55.5t-13 -54.5q-7 -33 -19 -59.5t-33 -48.5
q-45 -50 -108 -50q-22 0 -44 8q-96 30 -96 105q0 93 176 169q32 14 82 32t94 31z" />
    <glyph glyph-name="FLW223" unicode="&#x42f;" horiz-adv-x="694" 
d="M590 41l4 47l4 39l12 49q4 20 12.5 79t13.5 181q5 93 25 151q13 39 13 53q0 24 -22 24q-6 0 -28 -10t-48.5 -23t-52 -26t-39.5 -18q-28 -11 -69 -26.5t-96 -38.5q-95 -40 -135 -112q-14 -25 -14 -54q0 -84 122 -151q-33 -49 -90 -84q-18 -11 -63.5 -38t-118.5 -69
q14 -5 37 -5q47 0 107 29q4 2 30.5 17.5t59.5 34t64.5 35t45.5 21.5q50 18 106 18q18 0 31.5 -18t26.5 -40t27.5 -42t34.5 -23zM590 569l-6 -23l-5 -14q-1 -2 -1 0q0 -3 -2 -10.5t-4.5 -14t-4 -11.5t-1.5 -4q-7 -28 -15 -55.5t-13 -54.5q-7 -33 -19 -59.5t-33 -48.5
q-45 -50 -108 -50q-22 0 -44 8q-96 30 -96 105q0 93 176 169q32 14 82 32t94 31z" />
    <glyph glyph-name="FLW224" unicode="&#xe0;" horiz-adv-x="820" 
d="M800 123l-12 -34q-31 -36 -70 -69.5t-90 -33.5q-32 0 -61 17t-54 40q-26 23 -35 23q-12 0 -60 -25q-128 -68 -161 -80q-54 -19 -107 -19h-17.5t-28.5 4q-45 8 -64.5 34.5t-19.5 62.5q0 43 30 121q35 92 110 190q77 101 162 151q16 9 30 16l26 13q32 13 55 13
q26 0 39.5 -15t13.5 -55q0 -50 -2 -87t-6 -60q-15 -86 -60 -125q-17 36 -17 83q0 8 1.5 25t3 35.5t3 35.5t1.5 26q0 33 -6 54q-105 -24 -215 -148q-113 -127 -113 -234q0 -96 84 -96q71 0 218 82q37 20 109 124q57 84 121 84q7 0 13.5 -1t14.5 -3q0 -12 -10 -34t-22 -45.5
t-22 -45t-10 -31.5q0 -12 7.5 -25t18.5 -24.5t25 -18.5t26 -7q15 0 37 10.5t44 24.5t41 27.5t29 19.5z" />
    <glyph glyph-name="FLW224" unicode="&#x430;" horiz-adv-x="820" 
d="M800 123l-12 -34q-31 -36 -70 -69.5t-90 -33.5q-32 0 -61 17t-54 40q-26 23 -35 23q-12 0 -60 -25q-128 -68 -161 -80q-54 -19 -107 -19h-17.5t-28.5 4q-45 8 -64.5 34.5t-19.5 62.5q0 43 30 121q35 92 110 190q77 101 162 151q16 9 30 16l26 13q32 13 55 13
q26 0 39.5 -15t13.5 -55q0 -50 -2 -87t-6 -60q-15 -86 -60 -125q-17 36 -17 83q0 8 1.5 25t3 35.5t3 35.5t1.5 26q0 33 -6 54q-105 -24 -215 -148q-113 -127 -113 -234q0 -96 84 -96q71 0 218 82q37 20 109 124q57 84 121 84q7 0 13.5 -1t14.5 -3q0 -12 -10 -34t-22 -45.5
t-22 -45t-10 -31.5q0 -12 7.5 -25t18.5 -24.5t25 -18.5t26 -7q15 0 37 10.5t44 24.5t41 27.5t29 19.5z" />
    <glyph glyph-name="FLW225" unicode="&#xe1;" horiz-adv-x="488" 
d="M130 300l14 14v14q18 50 31.5 87t22.5 59q45 106 104 106q30 0 60 -21q106 -72 106 -225q0 -114 -51 -226q-63 -138 -147 -138q-40 0 -66 25t-50 77q-23 50 -52 64h-13l-13 -13l-14 13v14q-32 32 -37 87.5t-5 120.5v24q0 29 5.5 87t15 128t22 143.5t26.5 134.5
q7 30 17 37l26 18q13 9 34.5 13t47.5 4q34 0 72 -5.5t71 -13.5t56 -17t28 -17q-17 -11 -54.5 -13t-78.5 -4t-77.5 -10t-50.5 -31q-13 -21 -28.5 -43t-29.5 -54.5t-23.5 -78.5t-9.5 -114v-192q0 -44 4 -47q18 -2 37 -7zM253 26h15q15 0 34 18t37 43t31.5 50t18.5 40
q17 54 17 113q0 102 -50 173q-25 35 -53 35q-13 0 -25 -9.5t-22 -24t-18 -32t-14 -34.5q-1 -4 -8 -23t-15 -46.5t-14.5 -59.5t-6.5 -61q0 -44 22 -84.5t51 -97.5z" />
    <glyph glyph-name="FLW225" unicode="&#x431;" horiz-adv-x="488" 
d="M130 300l14 14v14q18 50 31.5 87t22.5 59q45 106 104 106q30 0 60 -21q106 -72 106 -225q0 -114 -51 -226q-63 -138 -147 -138q-40 0 -66 25t-50 77q-23 50 -52 64h-13l-13 -13l-14 13v14q-32 32 -37 87.5t-5 120.5v24q0 29 5.5 87t15 128t22 143.5t26.5 134.5
q7 30 17 37l26 18q13 9 34.5 13t47.5 4q34 0 72 -5.5t71 -13.5t56 -17t28 -17q-17 -11 -54.5 -13t-78.5 -4t-77.5 -10t-50.5 -31q-13 -21 -28.5 -43t-29.5 -54.5t-23.5 -78.5t-9.5 -114v-192q0 -44 4 -47q18 -2 37 -7zM253 26h15q15 0 34 18t37 43t31.5 50t18.5 40
q17 54 17 113q0 102 -50 173q-25 35 -53 35q-13 0 -25 -9.5t-22 -24t-18 -32t-14 -34.5q-1 -4 -8 -23t-15 -46.5t-14.5 -59.5t-6.5 -61q0 -44 22 -84.5t51 -97.5z" />
    <glyph glyph-name="FLW226" unicode="&#xe2;" horiz-adv-x="653" 
d="M406 -30l17 20q13 16 17.5 48t4.5 72q0 14 -0.5 28t-0.5 29q0 10 -3 29t-3 40q0 14 2.5 27t9.5 21q3 3 20.5 14t39 25t42.5 28.5t30 26.5q26 32 38.5 75t12.5 86q0 55 -24 92q-15 22 -32.5 44t-37.5 40t-43 29.5t-48 11.5q-35 0 -70.5 -23.5t-57.5 -50.5
q-79 -96 -79 -302q0 -16 1.5 -33.5t2.5 -34.5q-45 7 -86 13.5t-65 26.5q-54 45 -54 143q-20 -23 -20 -57q0 -44 25.5 -84t62.5 -70q16 -13 32 -22t33 -16q2 -1 15.5 -4.5t32 -10t25.5 -12.5q15 -12 67 -151q18 -46 47 -69q16 -15 46 -29zM293 307l-3 38q-2 20 -3 40.5
t-1 39.5q0 34 5 68.5t20 71.5q10 24 23 49t30 45.5t38 34t45 13.5q27 0 50 -19q34 -28 50.5 -71t16.5 -89q0 -38 -12 -74.5t-34 -64.5q-16 -20 -36 -28.5t-42 -8.5q-23 0 -34.5 8t-22.5 8q-13 0 -31.5 -20.5t-58.5 -40.5zM402 7h-19l-20 16q-10 8 -21 23.5t-20.5 35
t-15.5 41.5t-6 44q0 30 15.5 50t41.5 20q36 0 48.5 -34.5t12.5 -86.5q0 -32 -4.5 -59.5t-11.5 -49.5z" />
    <glyph glyph-name="FLW226" unicode="&#x432;" horiz-adv-x="653" 
d="M406 -30l17 20q13 16 17.5 48t4.5 72q0 14 -0.5 28t-0.5 29q0 10 -3 29t-3 40q0 14 2.5 27t9.5 21q3 3 20.5 14t39 25t42.5 28.5t30 26.5q26 32 38.5 75t12.5 86q0 55 -24 92q-15 22 -32.5 44t-37.5 40t-43 29.5t-48 11.5q-35 0 -70.5 -23.5t-57.5 -50.5
q-79 -96 -79 -302q0 -16 1.5 -33.5t2.5 -34.5q-45 7 -86 13.5t-65 26.5q-54 45 -54 143q-20 -23 -20 -57q0 -44 25.5 -84t62.5 -70q16 -13 32 -22t33 -16q2 -1 15.5 -4.5t32 -10t25.5 -12.5q15 -12 67 -151q18 -46 47 -69q16 -15 46 -29zM293 307l-3 38q-2 20 -3 40.5
t-1 39.5q0 34 5 68.5t20 71.5q10 24 23 49t30 45.5t38 34t45 13.5q27 0 50 -19q34 -28 50.5 -71t16.5 -89q0 -38 -12 -74.5t-34 -64.5q-16 -20 -36 -28.5t-42 -8.5q-23 0 -34.5 8t-22.5 8q-13 0 -31.5 -20.5t-58.5 -40.5zM402 7h-19l-20 16q-10 8 -21 23.5t-20.5 35
t-15.5 41.5t-6 44q0 30 15.5 50t41.5 20q36 0 48.5 -34.5t12.5 -86.5q0 -32 -4.5 -59.5t-11.5 -49.5z" />
    <glyph glyph-name="FLW227" unicode="&#xe3;" horiz-adv-x="655" 
d="M538 518q1 0 13 -5.5t27.5 -13.5t31.5 -17.5t25 -17.5q-126 43 -244 43q-91 0 -166 -30q-68 -27 -92 -109q-18 -57 -18 -150q0 -2 1 -18t2 -35l2 -38t1 -27q0 -44 -11.5 -77t-48.5 -49q-41 179 -41 354q0 81 29 101q3 3 28.5 15.5t56.5 27t58.5 27t34.5 14.5
q23 8 53.5 16.5t66.5 16.5q3 -5 26.5 -9t53.5 -8t61 -6.5t50 -4.5z" />
    <glyph glyph-name="FLW227" unicode="&#x433;" horiz-adv-x="655" 
d="M538 518q1 0 13 -5.5t27.5 -13.5t31.5 -17.5t25 -17.5q-126 43 -244 43q-91 0 -166 -30q-68 -27 -92 -109q-18 -57 -18 -150q0 -2 1 -18t2 -35l2 -38t1 -27q0 -44 -11.5 -77t-48.5 -49q-41 179 -41 354q0 81 29 101q3 3 28.5 15.5t56.5 27t58.5 27t34.5 14.5
q23 8 53.5 16.5t66.5 16.5q3 -5 26.5 -9t53.5 -8t61 -6.5t50 -4.5z" />
    <glyph glyph-name="FLW228" unicode="&#xe4;" horiz-adv-x="706" 
d="M111 -275l-50 -57v-27q0 -19 8.5 -39.5t43.5 -45.5q45 -32 83.5 -48t69.5 -20q19 -3 33.5 -7.5t28.5 -4.5q113 0 190 59q87 66 87 179q0 73 -49 144q-3 5 -19.5 32t-39 59t-47 61t-43.5 37q-31 13 -73 13h-53h-40q-33 0 -63 4.5t-52 17.5q-65 37 -65 84q0 64 107 135
q103 71 256 107q54 12 98 12q41 0 70 -10q21 -7 31.5 -18.5t14.5 -26.5t5 -32t3 -33q2 -5 8 -13t13.5 -17t13 -19t5.5 -19q0 -27 -28 -47.5t-62 -39t-62 -37t-28 -40.5q0 -13 17.5 -51t39 -80t40.5 -78t23 -45q14 -31 21.5 -57t7.5 -54q0 -66 -50 -139q-79 -114 -238 -114
q-138 0 -280 84q-20 12 -33 29t-20.5 36.5t-10.5 39.5t-3 37q0 20 3 34t6 15q36 19 86 58.5t101.5 79t99 69.5t78.5 30q14 0 22 -7q0 -7 -21 -24.5t-53.5 -41t-70.5 -50t-71.5 -49.5t-58.5 -41t-30 -24zM592 328l-15 13q-6 13 -25.5 16t-39.5 3q-84 0 -153 -19
q-31 -8 -64.5 -25.5t-71.5 -43.5q-89 -59 -89 -111q0 -23 17 -39t41 -26.5t51 -15t47 -4.5q110 0 110 101q0 88 54 116q11 5 138 35zM618 218l-13 14q-16 25 -59 25q-30 0 -59 -15.5t-29 -47.5q0 -17 24 -71q90 38 136 95z" />
    <glyph glyph-name="FLW228" unicode="&#x434;" horiz-adv-x="706" 
d="M111 -275l-50 -57v-27q0 -19 8.5 -39.5t43.5 -45.5q45 -32 83.5 -48t69.5 -20q19 -3 33.5 -7.5t28.5 -4.5q113 0 190 59q87 66 87 179q0 73 -49 144q-3 5 -19.5 32t-39 59t-47 61t-43.5 37q-31 13 -73 13h-53h-40q-33 0 -63 4.5t-52 17.5q-65 37 -65 84q0 64 107 135
q103 71 256 107q54 12 98 12q41 0 70 -10q21 -7 31.5 -18.5t14.5 -26.5t5 -32t3 -33q2 -5 8 -13t13.5 -17t13 -19t5.5 -19q0 -27 -28 -47.5t-62 -39t-62 -37t-28 -40.5q0 -13 17.5 -51t39 -80t40.5 -78t23 -45q14 -31 21.5 -57t7.5 -54q0 -66 -50 -139q-79 -114 -238 -114
q-138 0 -280 84q-20 12 -33 29t-20.5 36.5t-10.5 39.5t-3 37q0 20 3 34t6 15q36 19 86 58.5t101.5 79t99 69.5t78.5 30q14 0 22 -7q0 -7 -21 -24.5t-53.5 -41t-70.5 -50t-71.5 -49.5t-58.5 -41t-30 -24zM592 328l-15 13q-6 13 -25.5 16t-39.5 3q-84 0 -153 -19
q-31 -8 -64.5 -25.5t-71.5 -43.5q-89 -59 -89 -111q0 -23 17 -39t41 -26.5t51 -15t47 -4.5q110 0 110 101q0 88 54 116q11 5 138 35zM618 218l-13 14q-16 25 -59 25q-30 0 -59 -15.5t-29 -47.5q0 -17 24 -71q90 38 136 95z" />
    <glyph glyph-name="FLW229" unicode="&#xe5;" horiz-adv-x="835" 
d="M735 65v-13l-11 -15l-20 -10q-15 -7 -40.5 -11t-43.5 -5l-245 -26q-5 -1 -10 0.5t-7 1.5h-10q-15 0 -38.5 2t-49 4.5t-48.5 4.5t-36 2q-26 0 -53 10.5t-54 26.5q-29 16 -39 27.5t-10 29.5q0 42 82 118q58 54 119.5 99.5t126.5 80.5q78 43 150 65t137 22q117 0 160 -51
q20 -24 20 -59q0 -26 -13.5 -56.5t-34.5 -58t-46.5 -50t-49.5 -32.5q-33 -14 -58 -24t-43 -16q-72 -25 -124 -25q-27 0 -72 9t-88.5 25t-76.5 38.5t-35 48.5q15 -9 51 -19t74.5 -18.5t69.5 -15t36 -9.5q24 -8 44 -14.5t39 -6.5q38 0 71.5 11t69.5 26q39 17 66 41.5t49 57.5
q12 19 25 36t13 36q0 42 -36 69.5t-80 27.5q-33 0 -57.5 -7.5t-66.5 -17.5q-70 -17 -125.5 -39t-102.5 -45q-114 -58 -207 -157q-11 -12 -30 -31t-19 -38q0 -26 13 -42t35.5 -25t52.5 -12t63 -3q22 0 57 -8.5t90 -8.5q10 0 21.5 -1t24.5 1q82 13 164.5 22.5t155.5 26.5z" />
    <glyph glyph-name="FLW229" unicode="&#x435;" horiz-adv-x="835" 
d="M735 65v-13l-11 -15l-20 -10q-15 -7 -40.5 -11t-43.5 -5l-245 -26q-5 -1 -10 0.5t-7 1.5h-10q-15 0 -38.5 2t-49 4.5t-48.5 4.5t-36 2q-26 0 -53 10.5t-54 26.5q-29 16 -39 27.5t-10 29.5q0 42 82 118q58 54 119.5 99.5t126.5 80.5q78 43 150 65t137 22q117 0 160 -51
q20 -24 20 -59q0 -26 -13.5 -56.5t-34.5 -58t-46.5 -50t-49.5 -32.5q-33 -14 -58 -24t-43 -16q-72 -25 -124 -25q-27 0 -72 9t-88.5 25t-76.5 38.5t-35 48.5q15 -9 51 -19t74.5 -18.5t69.5 -15t36 -9.5q24 -8 44 -14.5t39 -6.5q38 0 71.5 11t69.5 26q39 17 66 41.5t49 57.5
q12 19 25 36t13 36q0 42 -36 69.5t-80 27.5q-33 0 -57.5 -7.5t-66.5 -17.5q-70 -17 -125.5 -39t-102.5 -45q-114 -58 -207 -157q-11 -12 -30 -31t-19 -38q0 -26 13 -42t35.5 -25t52.5 -12t63 -3q22 0 57 -8.5t90 -8.5q10 0 21.5 -1t24.5 1q82 13 164.5 22.5t155.5 26.5z" />
    <glyph glyph-name="FLW230" unicode="&#xe6;" horiz-adv-x="704" 
d="M67 384q5 0 16.5 -4t24 -9.5t22.5 -10t12 -5.5q14 -5 32 -10.5t56 -10.5q50 -7 76.5 -18.5t50.5 -24.5q1 -1 5.5 -4t4.5 -5q5 15 5.5 51.5t4.5 76.5t15.5 75t38.5 47q6 -33 6 -83q0 -25 -3 -50.5t-3 -50.5v-53q46 43 65.5 59t24.5 20q15 31 25 49.5t15 27.5q20 39 57 39
q-6 -63 -69 -138q-85 -104 -97 -127q12 -3 27 -18t32.5 -35.5t36 -44.5t37.5 -46q5 -6 24 -22t38 -35.5t30.5 -37.5t2.5 -27q-15 -14 -46.5 8.5t-66 59.5t-65.5 76t-46 57q-8 9 -11.5 13.5t-6.5 7.5t-6.5 6l-10.5 9l-12 -32q-5 -16 -6.5 -33t-1.5 -39v-38q0 -21 0.5 -33.5
t2 -21t4 -15t5.5 -14.5q-2 4 0 1.5t4 -8t2 -12t-6 -10.5q-17 -10 -28 -3.5t-18 24t-10 43t-3 53.5v73v65q-10 -4 -17.5 -12t-18 -17t-27.5 -19t-45 -19l-64 -22q-18 -6 -35.5 -10.5t-28.5 -12.5l-49 -35q-11 -8 -20 -12l-9 -4q2 0 -6.5 -1.5t-13.5 17.5q33 43 99 66
q19 7 47 22.5t67 29.5q34 12 60 26.5t41 39.5q-13 9 -45.5 19.5t-67 20t-63 16.5t-34.5 9q-58 23 -85 63q11 23 28 23z" />
    <glyph glyph-name="FLW230" unicode="&#x436;" horiz-adv-x="704" 
d="M67 384q5 0 16.5 -4t24 -9.5t22.5 -10t12 -5.5q14 -5 32 -10.5t56 -10.5q50 -7 76.5 -18.5t50.5 -24.5q1 -1 5.5 -4t4.5 -5q5 15 5.5 51.5t4.5 76.5t15.5 75t38.5 47q6 -33 6 -83q0 -25 -3 -50.5t-3 -50.5v-53q46 43 65.5 59t24.5 20q15 31 25 49.5t15 27.5q20 39 57 39
q-6 -63 -69 -138q-85 -104 -97 -127q12 -3 27 -18t32.5 -35.5t36 -44.5t37.5 -46q5 -6 24 -22t38 -35.5t30.5 -37.5t2.5 -27q-15 -14 -46.5 8.5t-66 59.5t-65.5 76t-46 57q-8 9 -11.5 13.5t-6.5 7.5t-6.5 6l-10.5 9l-12 -32q-5 -16 -6.5 -33t-1.5 -39v-38q0 -21 0.5 -33.5
t2 -21t4 -15t5.5 -14.5q-2 4 0 1.5t4 -8t2 -12t-6 -10.5q-17 -10 -28 -3.5t-18 24t-10 43t-3 53.5v73v65q-10 -4 -17.5 -12t-18 -17t-27.5 -19t-45 -19l-64 -22q-18 -6 -35.5 -10.5t-28.5 -12.5l-49 -35q-11 -8 -20 -12l-9 -4q2 0 -6.5 -1.5t-13.5 17.5q33 43 99 66
q19 7 47 22.5t67 29.5q34 12 60 26.5t41 39.5q-13 9 -45.5 19.5t-67 20t-63 16.5t-34.5 9q-58 23 -85 63q11 23 28 23z" />
    <glyph glyph-name="FLW231" unicode="&#xe7;" horiz-adv-x="706" 
d="M618 218l1 18q3 18 3 31q0 25 -8.5 36t-21.5 25l-15 13q-10 8 -29.5 13.5t-35.5 5.5q-84 0 -153 -19q-13 -3 -26.5 -18.5t-29.5 -33t-34.5 -31t-41.5 -13.5q-6 0 -15.5 2t-18.5 6t-15.5 10t-6.5 14q0 17 27.5 36.5t67 38t83 33.5t75.5 23q54 12 98 12q41 0 70 -10
q49 -16 71.5 -48t22.5 -72v-57q0 -27 -28 -47.5t-62 -39.5t-62 -37.5t-28 -40.5q0 -13 17.5 -51t39 -80t40.5 -78t23 -45q14 -31 21.5 -57t7.5 -54q0 -66 -50 -139q-79 -114 -238 -114q-138 0 -280 84q-20 12 -33 29t-20.5 36.5t-10.5 39.5t-3 37q0 20 3 34t6 15
q27 14 62.5 39.5t75 55t79 58.5t73.5 50t60 29.5t37 -2.5q0 -7 -21 -25t-53.5 -41.5t-70.5 -50t-71.5 -49.5t-58.5 -40.5t-30 -23.5l-50 -59q0 -7 -0.5 -13.5t-0.5 -13.5q0 -19 9 -38.5t44 -44.5q45 -32 83.5 -48t69.5 -20q19 -3 33.5 -7.5t28.5 -4.5q113 0 190 59
q87 66 87 179q0 73 -49 144q-3 5 -19.5 32t-39 59t-47 61t-43.5 37q-31 13 -73 13h-52h-40h-22q-15 0 -29 0.5t-24 3t-13 7t4 13.5q13 15 20.5 21t15.5 6q12 0 31.5 -7t64.5 -7q51 0 81.5 1.5t50 4.5t32 8t28.5 12q46 22 80 45t56 50z" />
    <glyph glyph-name="FLW231" unicode="&#x437;" horiz-adv-x="706" 
d="M618 218l1 18q3 18 3 31q0 25 -8.5 36t-21.5 25l-15 13q-10 8 -29.5 13.5t-35.5 5.5q-84 0 -153 -19q-13 -3 -26.5 -18.5t-29.5 -33t-34.5 -31t-41.5 -13.5q-6 0 -15.5 2t-18.5 6t-15.5 10t-6.5 14q0 17 27.5 36.5t67 38t83 33.5t75.5 23q54 12 98 12q41 0 70 -10
q49 -16 71.5 -48t22.5 -72v-57q0 -27 -28 -47.5t-62 -39.5t-62 -37.5t-28 -40.5q0 -13 17.5 -51t39 -80t40.5 -78t23 -45q14 -31 21.5 -57t7.5 -54q0 -66 -50 -139q-79 -114 -238 -114q-138 0 -280 84q-20 12 -33 29t-20.5 36.5t-10.5 39.5t-3 37q0 20 3 34t6 15
q27 14 62.5 39.5t75 55t79 58.5t73.5 50t60 29.5t37 -2.5q0 -7 -21 -25t-53.5 -41.5t-70.5 -50t-71.5 -49.5t-58.5 -40.5t-30 -23.5l-50 -59q0 -7 -0.5 -13.5t-0.5 -13.5q0 -19 9 -38.5t44 -44.5q45 -32 83.5 -48t69.5 -20q19 -3 33.5 -7.5t28.5 -4.5q113 0 190 59
q87 66 87 179q0 73 -49 144q-3 5 -19.5 32t-39 59t-47 61t-43.5 37q-31 13 -73 13h-52h-40h-22q-15 0 -29 0.5t-24 3t-13 7t4 13.5q13 15 20.5 21t15.5 6q12 0 31.5 -7t64.5 -7q51 0 81.5 1.5t50 4.5t32 8t28.5 12q46 22 80 45t56 50z" />
    <glyph glyph-name="FLW232" unicode="&#xe8;" horiz-adv-x="784" 
d="M630 547l-2 -1q2 -5 2 -14q0 -13 -3.5 -31.5t-9.5 -38t-13 -38t-14 -31.5l-44 -79q-11 -20 -15 -38.5t-4 -33.5q0 -48 45 -92q10 -10 38.5 -17t60 -11.5t58.5 -7.5t35 -6q-10 0 -30 -2t-42 -5t-41.5 -5t-29.5 -2h-12.5t-8.5 1q-23 0 -35.5 3t-26.5 12.5t-33.5 28.5
t-55.5 51q-41 -37 -89 -70.5t-102 -65.5q-14 -9 -33.5 -20.5t-44.5 -25.5q-56 -30 -89 -30q-32 0 -51.5 24.5t-19.5 61.5q0 22 7 43t18 44.5t24 49.5t26 58q19 46 35 82t32 69q11 22 20 41.5t19.5 34.5t24 23.5t32.5 8.5q0 -10 -8 -31t-24.5 -57.5t-41 -90.5t-56.5 -129
q-48 -110 -48 -184q78 0 160 44q143 78 182 138q27 40 27 120q0 70 44 140q4 7 27.5 36.5t65.5 82.5h4q6 0 13 -6t13 -13.5t10 -14zM600 546l-41 -28q-12 -17 -25 -38t-24.5 -42t-18.5 -39.5t-7 -32.5q0 -24 20 -66q53 37 76 108q20 60 20 138z" />
    <glyph glyph-name="FLW232" unicode="&#x438;" horiz-adv-x="784" 
d="M630 547l-2 -1q2 -5 2 -14q0 -13 -3.5 -31.5t-9.5 -38t-13 -38t-14 -31.5l-44 -79q-11 -20 -15 -38.5t-4 -33.5q0 -48 45 -92q10 -10 38.5 -17t60 -11.5t58.5 -7.5t35 -6q-10 0 -30 -2t-42 -5t-41.5 -5t-29.5 -2h-12.5t-8.5 1q-23 0 -35.5 3t-26.5 12.5t-33.5 28.5
t-55.5 51q-41 -37 -89 -70.5t-102 -65.5q-14 -9 -33.5 -20.5t-44.5 -25.5q-56 -30 -89 -30q-32 0 -51.5 24.5t-19.5 61.5q0 22 7 43t18 44.5t24 49.5t26 58q19 46 35 82t32 69q11 22 20 41.5t19.5 34.5t24 23.5t32.5 8.5q0 -10 -8 -31t-24.5 -57.5t-41 -90.5t-56.5 -129
q-48 -110 -48 -184q78 0 160 44q143 78 182 138q27 40 27 120q0 70 44 140q4 7 27.5 36.5t65.5 82.5h4q6 0 13 -6t13 -13.5t10 -14zM600 546l-41 -28q-12 -17 -25 -38t-24.5 -42t-18.5 -39.5t-7 -32.5q0 -24 20 -66q53 37 76 108q20 60 20 138z" />
    <glyph glyph-name="FLW233" unicode="&#xe9;" horiz-adv-x="784" 
d="M630 548l-2 -2q2 -5 2 -14q0 -13 -3.5 -32t-8.5 -38.5t-12.5 -38t-14.5 -31.5l-45 -78q-11 -20 -15 -38.5t-4 -33.5q0 -48 45 -92q10 -10 38.5 -17t60 -11.5t58.5 -7.5t35 -6q-15 0 -39.5 -2.5t-49.5 -5.5t-46 -5t-29 0q-23 0 -35.5 3t-26.5 12.5t-33.5 28.5t-55.5 51
q-41 -37 -89 -70.5t-102 -65.5q-14 -9 -33.5 -20.5t-44.5 -25.5q-56 -30 -89 -30q-32 0 -51.5 24.5t-19.5 61.5q0 44 22.5 89t52.5 106q22 44 35.5 80.5t31.5 70.5q22 43 46 76t50 32q0 -16 -33 -87t-97 -221q-48 -110 -48 -184q78 0 160 44q143 78 182 138q27 40 27 120
q0 70 44 140q4 7 27.5 36.5t65.5 82.5h4q6 0 13 -6t13 -13t10 -13.5zM600 546l-41 -28q-12 -17 -25 -38t-24.5 -42t-18.5 -39.5t-7 -32.5q0 -24 20 -66q53 37 76 108q20 60 20 138zM364 534l70 100q12 16 23.5 18t16.5 -9v0q5 -11 1.5 -31t-14.5 -35l-70 -101
q-11 -15 -23 -16.5t-17 9.5h2q-5 0 -4.5 8.5t3 20t6.5 22t6 14.5z" />
    <glyph glyph-name="FLW233" unicode="&#x439;" horiz-adv-x="784" 
d="M630 548l-2 -2q2 -5 2 -14q0 -13 -3.5 -32t-8.5 -38.5t-12.5 -38t-14.5 -31.5l-45 -78q-11 -20 -15 -38.5t-4 -33.5q0 -48 45 -92q10 -10 38.5 -17t60 -11.5t58.5 -7.5t35 -6q-15 0 -39.5 -2.5t-49.5 -5.5t-46 -5t-29 0q-23 0 -35.5 3t-26.5 12.5t-33.5 28.5t-55.5 51
q-41 -37 -89 -70.5t-102 -65.5q-14 -9 -33.5 -20.5t-44.5 -25.5q-56 -30 -89 -30q-32 0 -51.5 24.5t-19.5 61.5q0 44 22.5 89t52.5 106q22 44 35.5 80.5t31.5 70.5q22 43 46 76t50 32q0 -16 -33 -87t-97 -221q-48 -110 -48 -184q78 0 160 44q143 78 182 138q27 40 27 120
q0 70 44 140q4 7 27.5 36.5t65.5 82.5h4q6 0 13 -6t13 -13t10 -13.5zM600 546l-41 -28q-12 -17 -25 -38t-24.5 -42t-18.5 -39.5t-7 -32.5q0 -24 20 -66q53 37 76 108q20 60 20 138zM364 534l70 100q12 16 23.5 18t16.5 -9v0q5 -11 1.5 -31t-14.5 -35l-70 -101
q-11 -15 -23 -16.5t-17 9.5h2q-5 0 -4.5 8.5t3 20t6.5 22t6 14.5z" />
    <glyph glyph-name="FLW234" unicode="&#xea;" horiz-adv-x="682" 
d="M34 -14v28q-14 31 -14 76q0 6 4 42t12 102q5 47 8 114.5t3 156.5q0 10 -0.5 23.5t-0.5 31.5t-1 31.5t-1 22.5q0 66 12 108q18 55 60 70q2 -11 5 -46t7.5 -76.5t10.5 -79.5t15 -56q31 -57 112 -84q47 -14 100 -14q102 0 173 43q81 49 81 135q26 -29 42 -40
q-70 -109 -222 -157q-22 -7 -56 -16t-78 -19q16 -22 33.5 -37t37 -28t42.5 -26.5t51 -31.5q30 -29 50 -48t30 -30q90 -95 90 -185q0 -23 -6 -50q-5 10 -15 33.5t-22 49t-24 48.5t-21 31q-186 176 -423 274q-4 -14 -6.5 -56t-5 -90.5t-5 -91.5t-5.5 -58q-18 -79 -73 -100z
" />
    <glyph glyph-name="FLW234" unicode="&#x43a;" horiz-adv-x="682" 
d="M34 -14v28q-14 31 -14 76q0 6 4 42t12 102q5 47 8 114.5t3 156.5q0 10 -0.5 23.5t-0.5 31.5t-1 31.5t-1 22.5q0 66 12 108q18 55 60 70q2 -11 5 -46t7.5 -76.5t10.5 -79.5t15 -56q31 -57 112 -84q47 -14 100 -14q102 0 173 43q81 49 81 135q26 -29 42 -40
q-70 -109 -222 -157q-22 -7 -56 -16t-78 -19q16 -22 33.5 -37t37 -28t42.5 -26.5t51 -31.5q30 -29 50 -48t30 -30q90 -95 90 -185q0 -23 -6 -50q-5 10 -15 33.5t-22 49t-24 48.5t-21 31q-186 176 -423 274q-4 -14 -6.5 -56t-5 -90.5t-5 -91.5t-5.5 -58q-18 -79 -73 -100z
" />
    <glyph glyph-name="FLW235" unicode="&#xeb;" horiz-adv-x="514" 
d="M381 382l-30 -23q-32 -25 -71 -66t-76 -89q-15 -20 -23.5 -36.5t-16 -32.5t-16 -33.5t-24.5 -39.5t-35.5 -40.5t-36 -28.5t-25.5 -9.5t-5 15.5q7 7 26 29t40.5 51t42.5 62t32 63q11 27 33 53.5t44 58.5q22 30 45.5 54t45.5 41q54 41 119 53q8 -36 16 -81t15 -99
q7 -52 10 -98t3 -86t-3 -73q-65 32 -78 160q-18 167 -32 195z" />
    <glyph glyph-name="FLW235" unicode="&#x43b;" horiz-adv-x="514" 
d="M381 382l-30 -23q-32 -25 -71 -66t-76 -89q-15 -20 -23.5 -36.5t-16 -32.5t-16 -33.5t-24.5 -39.5t-35.5 -40.5t-36 -28.5t-25.5 -9.5t-5 15.5q7 7 26 29t40.5 51t42.5 62t32 63q11 27 33 53.5t44 58.5q22 30 45.5 54t45.5 41q54 41 119 53q8 -36 16 -81t15 -99
q7 -52 10 -98t3 -86t-3 -73q-65 32 -78 160q-18 167 -32 195z" />
    <glyph glyph-name="FLW236" unicode="&#xec;" horiz-adv-x="736" 
d="M497 300q8 9 26.5 28.5t40.5 39.5t43.5 35t36.5 15q27 0 34.5 -31t7.5 -74v-36v-67q0 -45 7 -87t23 -82q-79 12 -91 107q-3 28 -7.5 69t-11.5 97q-36 -32 -71 -86q-27 -45 -51 -105q-10 -26 -20 -47t-21 -35q-14 -20 -21.5 -26.5t-16.5 -6.5q-4 0 -20.5 3t-23.5 3
q53 154 53 218q0 38 -9 69.5t-31 66.5q-32 -26 -70 -73t-82 -118q-32 -51 -52 -82t-28 -42q-21 -27 -30 -35q-22 -22 -45 -22q-26 0 -36.5 13.5t-10.5 37.5v48v11.5t0.5 3.5t0.5 3.5v11.5q0 22 14 29t41 13q3 -10 6.5 -20.5t5.5 -23.5q51 31 101 100q13 19 35 49t50 69
q49 64 114 95q20 -9 32.5 -17.5t23.5 -23t23 -37t30 -58.5z" />
    <glyph glyph-name="FLW236" unicode="&#x43c;" horiz-adv-x="736" 
d="M497 300q8 9 26.5 28.5t40.5 39.5t43.5 35t36.5 15q27 0 34.5 -31t7.5 -74v-36v-67q0 -45 7 -87t23 -82q-79 12 -91 107q-3 28 -7.5 69t-11.5 97q-36 -32 -71 -86q-27 -45 -51 -105q-10 -26 -20 -47t-21 -35q-14 -20 -21.5 -26.5t-16.5 -6.5q-4 0 -20.5 3t-23.5 3
q53 154 53 218q0 38 -9 69.5t-31 66.5q-32 -26 -70 -73t-82 -118q-32 -51 -52 -82t-28 -42q-21 -27 -30 -35q-22 -22 -45 -22q-26 0 -36.5 13.5t-10.5 37.5v48v11.5t0.5 3.5t0.5 3.5v11.5q0 22 14 29t41 13q3 -10 6.5 -20.5t5.5 -23.5q51 31 101 100q13 19 35 49t50 69
q49 64 114 95q20 -9 32.5 -17.5t23.5 -23t23 -37t30 -58.5z" />
    <glyph glyph-name="FLW237" unicode="&#xed;" horiz-adv-x="502" 
d="M390 696l10 -10v-21q0 -2 3 -12t6 -23.5t3 -18.5v-13q0 -10 -1 -27.5t-2 -34.5t-2 -30.5t-1 -15.5q0 -43 14 -65.5t52 -28.5q12 -7 10 -12t-11 -9.5t-20.5 -8.5t-18.5 -8q-22 -13 -22 -52v-265q-10 -11 -19 3t-16.5 41t-12 62t-4.5 66v32q0 5 0.5 18t0.5 30v8t1 8
q0 29 -11.5 39t-41.5 10h-49q-10 -2 -22 -3t-25 -1q-29 0 -60.5 4t-58.5 10q-6 -22 -9.5 -46t-3.5 -47q0 -20 2.5 -48.5t6 -59t6 -60t2.5 -51.5q0 -35 -8 -43q-20 0 -31.5 11.5t-18 31t-8.5 45.5t-2 54q0 25 1 51t1 50q0 5 -1.5 27t-3 48.5t-3 52t-1.5 36.5q0 24 0.5 69
t4 89.5t12 77.5t23.5 33q6 0 9.5 -16t5.5 -40.5t2.5 -53t0.5 -53.5v-50q0 -8 1 -19t6 -21q8 -16 30 -25.5t50.5 -14.5t60 -6t60.5 -1q35 0 50 11t15 44q0 4 -0.5 14t-1 21t-1.5 20t-1 12v19.5t-1 29.5l-1 38q-2 77 44 98z" />
    <glyph glyph-name="FLW237" unicode="&#x43d;" horiz-adv-x="502" 
d="M390 696l10 -10v-21q0 -2 3 -12t6 -23.5t3 -18.5v-13q0 -10 -1 -27.5t-2 -34.5t-2 -30.5t-1 -15.5q0 -43 14 -65.5t52 -28.5q12 -7 10 -12t-11 -9.5t-20.5 -8.5t-18.5 -8q-22 -13 -22 -52v-265q-10 -11 -19 3t-16.5 41t-12 62t-4.5 66v32q0 5 0.5 18t0.5 30v8t1 8
q0 29 -11.5 39t-41.5 10h-49q-10 -2 -22 -3t-25 -1q-29 0 -60.5 4t-58.5 10q-6 -22 -9.5 -46t-3.5 -47q0 -20 2.5 -48.5t6 -59t6 -60t2.5 -51.5q0 -35 -8 -43q-20 0 -31.5 11.5t-18 31t-8.5 45.5t-2 54q0 25 1 51t1 50q0 5 -1.5 27t-3 48.5t-3 52t-1.5 36.5q0 24 0.5 69
t4 89.5t12 77.5t23.5 33q6 0 9.5 -16t5.5 -40.5t2.5 -53t0.5 -53.5v-50q0 -8 1 -19t6 -21q8 -16 30 -25.5t50.5 -14.5t60 -6t60.5 -1q35 0 50 11t15 44q0 4 -0.5 14t-1 21t-1.5 20t-1 12v19.5t-1 29.5l-1 38q-2 77 44 98z" />
    <glyph glyph-name="FLW238" unicode="&#xee;" horiz-adv-x="720" 
d="M72 341h-13l-14 13q-8 8 -13.5 21t-5.5 50q0 7 -1 21t1 19q0 21 20 34t50.5 21t68 13.5t71.5 12.5q68 14 140 21t147 7q81 0 128 -44q49 -45 49 -126q0 -125 -95 -214q-91 -85 -197 -140q-125 -64 -226 -64q-8 0 -24 -1t-23 -1q-47 0 -81 23t-34 72q0 39 19.5 77t45.5 90
q9 18 21.5 49.5t31 63t42.5 54.5t56 23q-9 -56 -43 -116q-87 -158 -93 -184q-1 -2 -4 -10.5t-6.5 -19.5t-6 -21.5t-2.5 -16.5q0 -25 19 -40.5t48 -15.5q21 0 40.5 4.5t47.5 9.5q152 29 275 116q148 106 148 240q0 94 -70 129q-49 23 -151 23h-34q-74 -3 -129.5 -10
t-94.5 -19q-112 -34 -112 -124v-15q0 -9 4 -25z" />
    <glyph glyph-name="FLW238" unicode="&#x43e;" horiz-adv-x="720" 
d="M72 341h-13l-14 13q-8 8 -13.5 21t-5.5 50q0 7 -1 21t1 19q0 21 20 34t50.5 21t68 13.5t71.5 12.5q68 14 140 21t147 7q81 0 128 -44q49 -45 49 -126q0 -125 -95 -214q-91 -85 -197 -140q-125 -64 -226 -64q-8 0 -24 -1t-23 -1q-47 0 -81 23t-34 72q0 39 19.5 77t45.5 90
q9 18 21.5 49.5t31 63t42.5 54.5t56 23q-9 -56 -43 -116q-87 -158 -93 -184q-1 -2 -4 -10.5t-6.5 -19.5t-6 -21.5t-2.5 -16.5q0 -25 19 -40.5t48 -15.5q21 0 40.5 4.5t47.5 9.5q152 29 275 116q148 106 148 240q0 94 -70 129q-49 23 -151 23h-34q-74 -3 -129.5 -10
t-94.5 -19q-112 -34 -112 -124v-15q0 -9 4 -25z" />
    <glyph glyph-name="FLW239" unicode="&#xef;" horiz-adv-x="551" 
d="M114 177l47 28q206 169 271 169q30 0 42 -23.5t12 -57.5q0 -37 -10 -76t-19 -80q-5 -21 9.5 -43.5t31 -41.5t27.5 -33t0 -19q-61 0 -92.5 17.5t-31.5 58.5l15 170q-6 56 -42 56q-19 0 -44.5 -16t-52 -39t-50 -49.5t-37.5 -47.5l-17 -25.5t-23 -33.5t-22.5 -31t-16.5 -19
q-7 -6 -22 -17.5t-30.5 -21t-27 -12.5t-11.5 10q5 23 8.5 50.5t5.5 57.5q4 73 7.5 117.5t7.5 60.5q2 9 3.5 20.5t4.5 22.5t7 18t12 7q16 0 23 -12.5t9.5 -36t3 -56t2.5 -72.5z" />
    <glyph glyph-name="FLW239" unicode="&#x43f;" horiz-adv-x="551" 
d="M114 177l47 28q206 169 271 169q30 0 42 -23.5t12 -57.5q0 -37 -10 -76t-19 -80q-5 -21 9.5 -43.5t31 -41.5t27.5 -33t0 -19q-61 0 -92.5 17.5t-31.5 58.5l15 170q-6 56 -42 56q-19 0 -44.5 -16t-52 -39t-50 -49.5t-37.5 -47.5l-17 -25.5t-23 -33.5t-22.5 -31t-16.5 -19
q-7 -6 -22 -17.5t-30.5 -21t-27 -12.5t-11.5 10q5 23 8.5 50.5t5.5 57.5q4 73 7.5 117.5t7.5 60.5q2 9 3.5 20.5t4.5 22.5t7 18t12 7q16 0 23 -12.5t9.5 -36t3 -56t2.5 -72.5z" />
    <glyph glyph-name="FLW240" unicode="&#xf0;" horiz-adv-x="695" 
d="M375 -314h-28q-5 -2 -17 -2q-52 0 -134 118q-34 50 -57.5 91t-36.5 76q-9 23 -22.5 57t-30.5 80q-15 40 -22 77.5t-7 69.5q0 126 123 170q78 27 168 27q171 0 282 -78q82 -57 82 -126q0 -117 -98 -182q-86 -56 -208 -56q-66 0 -118 18q3 10 8 23t20 46q39 -62 117 -62
q74 0 145 53q74 57 74 130q0 76 -90 126q-109 60 -230 60q-51 0 -91.5 -12t-74.5 -36q-57 -40 -57 -110q0 -20 3 -47t14 -52t32 -42.5t56 -17.5q7 0 17.5 -14.5t22 -37t24 -49.5t24.5 -52q19 -40 46 -102t64 -144z" />
    <glyph glyph-name="FLW240" unicode="&#x440;" horiz-adv-x="695" 
d="M375 -314h-28q-5 -2 -17 -2q-52 0 -134 118q-34 50 -57.5 91t-36.5 76q-9 23 -22.5 57t-30.5 80q-15 40 -22 77.5t-7 69.5q0 126 123 170q78 27 168 27q171 0 282 -78q82 -57 82 -126q0 -117 -98 -182q-86 -56 -208 -56q-66 0 -118 18q3 10 8 23t20 46q39 -62 117 -62
q74 0 145 53q74 57 74 130q0 76 -90 126q-109 60 -230 60q-51 0 -91.5 -12t-74.5 -36q-57 -40 -57 -110q0 -20 3 -47t14 -52t32 -42.5t56 -17.5q7 0 17.5 -14.5t22 -37t24 -49.5t24.5 -52q19 -40 46 -102t64 -144z" />
    <glyph glyph-name="FLW241" unicode="&#xf1;" horiz-adv-x="830" 
d="M810 150l-27 -27q-11 -11 -33.5 -23t-50.5 -23.5t-56.5 -21t-50.5 -14.5l-184 -42q-49 -11 -92 -16t-81 -5q-23 0 -46.5 2t-46.5 6q-122 24 -122 120q0 65 60 152q52 76 116 124q8 6 33 28t65 60q28 26 55 45t52 31q13 6 29 20.5t33.5 29.5t36 28t37.5 17q0 -83 -15 -173
q-9 -50 -21.5 -91t-28.5 -74q-28 -59 -80 -59h-7.5t-10.5 2l44 200q2 6 0 15t-4 16q-142 -79 -259 -218q-63 -75 -63 -133q0 -26 13.5 -45.5t36.5 -32t53 -18.5t63 -6q57 0 134 20q26 7 62 16.5t83 21.5q31 7 133 68q46 26 73 26q33 0 67 -26z" />
    <glyph glyph-name="FLW241" unicode="&#x441;" horiz-adv-x="830" 
d="M810 150l-27 -27q-11 -11 -33.5 -23t-50.5 -23.5t-56.5 -21t-50.5 -14.5l-184 -42q-49 -11 -92 -16t-81 -5q-23 0 -46.5 2t-46.5 6q-122 24 -122 120q0 65 60 152q52 76 116 124q8 6 33 28t65 60q28 26 55 45t52 31q13 6 29 20.5t33.5 29.5t36 28t37.5 17q0 -83 -15 -173
q-9 -50 -21.5 -91t-28.5 -74q-28 -59 -80 -59h-7.5t-10.5 2l44 200q2 6 0 15t-4 16q-142 -79 -259 -218q-63 -75 -63 -133q0 -26 13.5 -45.5t36.5 -32t53 -18.5t63 -6q57 0 134 20q26 7 62 16.5t83 21.5q31 7 133 68q46 26 73 26q33 0 67 -26z" />
    <glyph glyph-name="FLW242" unicode="&#xf2;" horiz-adv-x="609" 
d="M267 682q7 -29 10.5 -49.5t3.5 -32.5q0 -50 16 -66.5t56 -16.5q13 0 28 1.5t33 2.5l20 4.5t47.5 9.5t55.5 9.5t44 4.5q8 0 8 -2q0 -9 -25.5 -21t-61.5 -24t-74.5 -22t-64.5 -16q-10 -2 -27.5 -5t-35 -9.5t-31.5 -19t-16 -34.5l-40 -396h-55q0 55 9 130q9 86 14 139t5 72
q0 81 -43 103l-39 19.5t-40 25t-31.5 34t-12.5 45.5q0 31 21 48.5t50 17.5q35 0 56.5 -26.5t51.5 -75.5q5 18 11 39.5t13 48.5q6 22 18 38t26 24zM63 587q-20 -19 -20 -36q0 -13 14.5 -22.5t35.5 -14.5t44.5 -7.5t41.5 -2.5q17 0 20 1q-28 39 -53 67t-53 28q-17 0 -30 -13z
" />
    <glyph glyph-name="FLW242" unicode="&#x442;" horiz-adv-x="609" 
d="M267 682q7 -29 10.5 -49.5t3.5 -32.5q0 -50 16 -66.5t56 -16.5q13 0 28 1.5t33 2.5l20 4.5t47.5 9.5t55.5 9.5t44 4.5q8 0 8 -2q0 -9 -25.5 -21t-61.5 -24t-74.5 -22t-64.5 -16q-10 -2 -27.5 -5t-35 -9.5t-31.5 -19t-16 -34.5l-40 -396h-55q0 55 9 130q9 86 14 139t5 72
q0 81 -43 103l-39 19.5t-40 25t-31.5 34t-12.5 45.5q0 31 21 48.5t50 17.5q35 0 56.5 -26.5t51.5 -75.5q5 18 11 39.5t13 48.5q6 22 18 38t26 24zM63 587q-20 -19 -20 -36q0 -13 14.5 -22.5t35.5 -14.5t44.5 -7.5t41.5 -2.5q17 0 20 1q-28 39 -53 67t-53 28q-17 0 -30 -13z
" />
    <glyph glyph-name="FLW243" unicode="&#xf3;" horiz-adv-x="633" 
d="M579 656h26q8 -38 8 -69q0 -62 -34 -135q-11 -23 -27 -57t-36 -79q-33 -74 -33 -152v-478q0 -8 0.5 -26t0.5 -37t0.5 -37t0.5 -26q0 -47 -2 -81t-6 -55q-15 -97 -70 -97q-31 0 -74 32q-39 29 -72 66.5t-62 82.5q-18 28 -40.5 74t-51.5 109q-29 65 -50 115.5t-37 78.5
q29 3 50 5t58 2h13q-5 0 4.5 -8t9.5 -13t-12.5 -9t-50.5 -2q-3 -20 8 -54t26.5 -70t31.5 -68.5t24 -49.5q14 -27 36 -65.5t54 -75.5q69 -79 129 -105q37 109 37 256v103q0 71 -5 113t-5 61v43q0 104 -3 143q-6 75 -24 141q-13 -8 -32.5 -19t-45.5 -25q-45 -26 -86 -26
q-54 0 -78.5 38.5t-24.5 91.5q0 22 11.5 63.5t28.5 83.5t37.5 76.5t38.5 41.5q6 1 8 -17.5t2 -36.5q0 -23 -9 -53.5t-20.5 -58.5t-20.5 -49t-9 -24q0 -106 58 -106q27 0 52.5 10.5t47.5 27.5t39.5 39t28.5 45q1 2 15 44t41 125q34 101 96 153z" />
    <glyph glyph-name="FLW243" unicode="&#x443;" horiz-adv-x="633" 
d="M579 656h26q8 -38 8 -69q0 -62 -34 -135q-11 -23 -27 -57t-36 -79q-33 -74 -33 -152v-478q0 -8 0.5 -26t0.5 -37t0.5 -37t0.5 -26q0 -47 -2 -81t-6 -55q-15 -97 -70 -97q-31 0 -74 32q-39 29 -72 66.5t-62 82.5q-18 28 -40.5 74t-51.5 109q-29 65 -50 115.5t-37 78.5
q29 3 50 5t58 2h13q-5 0 4.5 -8t9.5 -13t-12.5 -9t-50.5 -2q-3 -20 8 -54t26.5 -70t31.5 -68.5t24 -49.5q14 -27 36 -65.5t54 -75.5q69 -79 129 -105q37 109 37 256v103q0 71 -5 113t-5 61v43q0 104 -3 143q-6 75 -24 141q-13 -8 -32.5 -19t-45.5 -25q-45 -26 -86 -26
q-54 0 -78.5 38.5t-24.5 91.5q0 22 11.5 63.5t28.5 83.5t37.5 76.5t38.5 41.5q6 1 8 -17.5t2 -36.5q0 -23 -9 -53.5t-20.5 -58.5t-20.5 -49t-9 -24q0 -106 58 -106q27 0 52.5 10.5t47.5 27.5t39.5 39t28.5 45q1 2 15 44t41 125q34 101 96 153z" />
    <glyph glyph-name="FLW244" unicode="&#xf4;" horiz-adv-x="792" 
d="M110 238q-3 -12 -3 -27q0 -21 12.5 -42t33 -37.5t45 -26.5t48.5 -10h56h57q9 0 11.5 1.5t2.5 5v9t5 12.5v13l-38 10l12 18h40l26 26q9 9 11.5 29.5t2.5 39.5q0 55 -26.5 76t-79.5 21q-5 0 -15.5 -1t-14.5 -1q-56 0 -102 -23q-68 -33 -84 -93zM443 69l24 -15l25 -13
q18 -10 38 -16t51 -6q25 0 50.5 5.5t46 17t33.5 28.5t13 41q0 17 -15 35t-36 33.5t-43 27t-35 15.5q-29 0 -50 -10.5t-38 -30t-32 -48t-32 -64.5zM310 26l-14 15q-12 13 -36 13h-19q-49 0 -87.5 12t-66 31.5t-44 44t-20.5 48.5q-3 18 -3 36q0 94 116 151q93 46 200 46
q33 0 60 -8t52 -23q53 -33 66 -92q3 -15 13.5 -20.5t23.5 -5.5q14 0 30.5 3.5t32.5 7.5t30 5.5t24 -2.5q28 -12 52 -25t34 -32q18 -36 18 -87q0 -31 -9.5 -63t-33 -57.5t-62.5 -42t-99 -16.5q-29 0 -59.5 9t-65.5 9q-26 0 -49 -9t-38 -34q-54 -88 -54 -180v-70
q0 -42 1.5 -77.5t10.5 -74.5q1 -4 1.5 -12.5t-2 -16t-8.5 -13.5t-18 -6q-70 0 -70 94q0 25 4.5 57t4.5 63v58q0 54 30 130q10 28 24 61.5t30 72.5z" />
    <glyph glyph-name="FLW244" unicode="&#x444;" horiz-adv-x="792" 
d="M110 238q-3 -12 -3 -27q0 -21 12.5 -42t33 -37.5t45 -26.5t48.5 -10h56h57q9 0 11.5 1.5t2.5 5v9t5 12.5v13l-38 10l12 18h40l26 26q9 9 11.5 29.5t2.5 39.5q0 55 -26.5 76t-79.5 21q-5 0 -15.5 -1t-14.5 -1q-56 0 -102 -23q-68 -33 -84 -93zM443 69l24 -15l25 -13
q18 -10 38 -16t51 -6q25 0 50.5 5.5t46 17t33.5 28.5t13 41q0 17 -15 35t-36 33.5t-43 27t-35 15.5q-29 0 -50 -10.5t-38 -30t-32 -48t-32 -64.5zM310 26l-14 15q-12 13 -36 13h-19q-49 0 -87.5 12t-66 31.5t-44 44t-20.5 48.5q-3 18 -3 36q0 94 116 151q93 46 200 46
q33 0 60 -8t52 -23q53 -33 66 -92q3 -15 13.5 -20.5t23.5 -5.5q14 0 30.5 3.5t32.5 7.5t30 5.5t24 -2.5q28 -12 52 -25t34 -32q18 -36 18 -87q0 -31 -9.5 -63t-33 -57.5t-62.5 -42t-99 -16.5q-29 0 -59.5 9t-65.5 9q-26 0 -49 -9t-38 -34q-54 -88 -54 -180v-70
q0 -42 1.5 -77.5t10.5 -74.5q1 -4 1.5 -12.5t-2 -16t-8.5 -13.5t-18 -6q-70 0 -70 94q0 25 4.5 57t4.5 63v58q0 54 30 130q10 28 24 61.5t30 72.5z" />
    <glyph glyph-name="FLW245" unicode="&#xf5;" horiz-adv-x="559" 
d="M20 -10l1 26q9 12 32.5 43.5t48.5 65t45 61t23 32.5q17 25 17 62q0 9 -3.5 29.5t-8.5 44.5t-10 47t-8 37q-1 7 -4.5 22.5t-7 32.5t-6.5 33t-3 23q0 43 62 51l3.5 -41t9 -95t13 -105.5t15.5 -72.5q23 17 49 43.5t52 60.5q15 20 37 49.5t53 69.5q51 64 109 91
q0 -84 -87 -182q3 3 -22 -20t-56.5 -57t-58 -72t-26.5 -65q0 -43 39 -94q2 -2 22.5 -25.5t46 -53.5t48 -58.5t27.5 -40.5q-111 39 -206 150q-39 47 -56 47q-16 0 -33.5 -22.5t-38.5 -54.5q-15 -22 -32 -35t-33 -19t-30 -7t-23 -1z" />
    <glyph glyph-name="FLW245" unicode="&#x445;" horiz-adv-x="559" 
d="M20 -10l1 26q9 12 32.5 43.5t48.5 65t45 61t23 32.5q17 25 17 62q0 9 -3.5 29.5t-8.5 44.5t-10 47t-8 37q-1 7 -4.5 22.5t-7 32.5t-6.5 33t-3 23q0 43 62 51l3.5 -41t9 -95t13 -105.5t15.5 -72.5q23 17 49 43.5t52 60.5q15 20 37 49.5t53 69.5q51 64 109 91
q0 -84 -87 -182q3 3 -22 -20t-56.5 -57t-58 -72t-26.5 -65q0 -43 39 -94q2 -2 22.5 -25.5t46 -53.5t48 -58.5t27.5 -40.5q-111 39 -206 150q-39 47 -56 47q-16 0 -33.5 -22.5t-38.5 -54.5q-15 -22 -32 -35t-33 -19t-30 -7t-23 -1z" />
    <glyph glyph-name="FLW246" unicode="&#xf6;" horiz-adv-x="729" 
d="M630 546h-2q2 -5 2 -14q0 -13 -3.5 -31.5t-9 -37.5t-12.5 -37t-14 -31l-45 -81q-11 -20 -15 -38.5t-4 -33.5q0 -24 10.5 -48t34.5 -44q10 -9 31 -3t43 16.5t40 21t23 10.5q0 -12 -10 -29t-24 -33t-29 -27.5t-25 -11.5q-12 0 -19 3.5t-14 8t-14.5 8t-19.5 3.5
q-23 0 -49.5 -29t-53 -63.5t-50 -63.5t-39.5 -29q-6 0 11 28.5t40.5 66.5t44 75.5t20.5 56.5q0 16 -11 20.5t-18 10.5q-41 -37 -89 -70.5t-102 -65.5q-14 -9 -33.5 -20.5t-44.5 -25.5q-56 -30 -89 -30q-32 0 -51.5 24.5t-19.5 61.5q0 22 7 43t18 44.5t24 49.5t26 58
q19 46 34.5 83.5t32.5 67.5q49 86 96 108q0 -17 -33 -87.5t-97 -220.5q-48 -110 -48 -184q78 0 160 44q143 78 182 138q27 40 27 120q0 70 44 140q4 7 27.5 36.5t65.5 82.5h4q6 0 13 -6.5t13 -14t10 -14zM600 546l-41 -28q-10 -18 -23 -38.5t-24.5 -41.5t-19.5 -39.5
t-8 -32.5q0 -24 20 -66q53 37 76 108q20 60 20 138z" />
    <glyph glyph-name="FLW246" unicode="&#x446;" horiz-adv-x="729" 
d="M630 546h-2q2 -5 2 -14q0 -13 -3.5 -31.5t-9 -37.5t-12.5 -37t-14 -31l-45 -81q-11 -20 -15 -38.5t-4 -33.5q0 -24 10.5 -48t34.5 -44q10 -9 31 -3t43 16.5t40 21t23 10.5q0 -12 -10 -29t-24 -33t-29 -27.5t-25 -11.5q-12 0 -19 3.5t-14 8t-14.5 8t-19.5 3.5
q-23 0 -49.5 -29t-53 -63.5t-50 -63.5t-39.5 -29q-6 0 11 28.5t40.5 66.5t44 75.5t20.5 56.5q0 16 -11 20.5t-18 10.5q-41 -37 -89 -70.5t-102 -65.5q-14 -9 -33.5 -20.5t-44.5 -25.5q-56 -30 -89 -30q-32 0 -51.5 24.5t-19.5 61.5q0 22 7 43t18 44.5t24 49.5t26 58
q19 46 34.5 83.5t32.5 67.5q49 86 96 108q0 -17 -33 -87.5t-97 -220.5q-48 -110 -48 -184q78 0 160 44q143 78 182 138q27 40 27 120q0 70 44 140q4 7 27.5 36.5t65.5 82.5h4q6 0 13 -6.5t13 -14t10 -14zM600 546l-41 -28q-10 -18 -23 -38.5t-24.5 -41.5t-19.5 -39.5
t-8 -32.5q0 -24 20 -66q53 37 76 108q20 60 20 138z" />
    <glyph glyph-name="FLW247" unicode="&#xf7;" horiz-adv-x="715" 
d="M643 186l-22 -23q-4 -9 -15.5 -20t-26.5 -22t-30 -20t-26 -14q-55 -23 -141 -23h-24q-4 0 -12 1t-12 1h-8q-49 0 -109 22q-20 8 -44.5 20t-46 27t-36 32.5t-14.5 35.5q0 24 16.5 38.5t43 23.5t59.5 14.5t65 11.5q35 7 85 16t115 20q58 11 97 24q18 6 36.5 27t33.5 45
t24.5 46t9.5 30q0 17 -7.5 12t-20.5 -16.5t-31 -23t-39 -7.5q-5 1 -19.5 4.5t-31 7t-32.5 5.5t-25 1q-37 -5 -70 -13.5t-43 -7.5q-34 5 -58 13t-50 18q-27 11 -51.5 24.5t-44.5 25t-35.5 19.5t-24.5 8q-13 0 -13 -19q0 -4 5 -17t11.5 -28.5t13 -29.5t8.5 -20q3 -11 10 -16
t15 -5q15 0 30 13q11 8 31.5 3t42.5 -14t42 -18t29 -9q24 0 44.5 3.5t40 8.5t39.5 8.5t43 3.5q20 0 44 -4t53 -14q-54 -56 -169 -72q-21 -3 -61 -8t-86 -12t-89.5 -16t-72.5 -19q-35 -13 -52 -28t-17 -36q0 -23 17 -46.5t44 -44.5t60 -38t64 -28q96 -33 194 -33q50 0 95 6
t81 24q18 9 39 21.5t39 27.5t30 31t12 31t-15 27.5t-33.5 18.5t-33.5 4.5t-15 -13.5q18 -10 23 -14.5t22 -11.5z" />
    <glyph glyph-name="FLW247" unicode="&#x447;" horiz-adv-x="715" 
d="M643 186l-22 -23q-4 -9 -15.5 -20t-26.5 -22t-30 -20t-26 -14q-55 -23 -141 -23h-24q-4 0 -12 1t-12 1h-8q-49 0 -109 22q-20 8 -44.5 20t-46 27t-36 32.5t-14.5 35.5q0 24 16.5 38.5t43 23.5t59.5 14.5t65 11.5q35 7 85 16t115 20q58 11 97 24q18 6 36.5 27t33.5 45
t24.5 46t9.5 30q0 17 -7.5 12t-20.5 -16.5t-31 -23t-39 -7.5q-5 1 -19.5 4.5t-31 7t-32.5 5.5t-25 1q-37 -5 -70 -13.5t-43 -7.5q-34 5 -58 13t-50 18q-27 11 -51.5 24.5t-44.5 25t-35.5 19.5t-24.5 8q-13 0 -13 -19q0 -4 5 -17t11.5 -28.5t13 -29.5t8.5 -20q3 -11 10 -16
t15 -5q15 0 30 13q11 8 31.5 3t42.5 -14t42 -18t29 -9q24 0 44.5 3.5t40 8.5t39.5 8.5t43 3.5q20 0 44 -4t53 -14q-54 -56 -169 -72q-21 -3 -61 -8t-86 -12t-89.5 -16t-72.5 -19q-35 -13 -52 -28t-17 -36q0 -23 17 -46.5t44 -44.5t60 -38t64 -28q96 -33 194 -33q50 0 95 6
t81 24q18 9 39 21.5t39 27.5t30 31t12 31t-15 27.5t-33.5 18.5t-33.5 4.5t-15 -13.5q18 -10 23 -14.5t22 -11.5z" />
    <glyph glyph-name="FLW248" unicode="&#xf8;" horiz-adv-x="628" 
d="M584 498h19q5 0 5 -21q0 -18 -3.5 -47.5t-8 -61.5t-9.5 -60.5t-8 -45.5q-11 -55 -29 -109.5t-41 -96.5q-13 -23 -23 -32.5t-21 -9.5q-8 0 -24.5 4t-24.5 4q-14 0 -43.5 -2t-62 -4t-62 -4t-43.5 -2q-2 0 -18 -3t-36 -6.5t-39.5 -6.5t-27.5 -3q-32 0 -48 14.5t-15 38.5
q1 25 5 51.5t9 54.5q11 55 32 121t45 123t47.5 95.5t38.5 38.5q9 0 8 -7.5t-6.5 -18t-12.5 -21.5t-11 -19q-48 -99 -48 -103q-4 -14 -12 -39t-16 -51t-14 -48t-8 -30q-8 -37 -9.5 -61t-1.5 -36q0 -25 14 -35t39 -10q8 0 22.5 1.5t34.5 5.5q11 2 30 3.5t41 8.5
q11 3 21.5 26.5t21 53.5t19.5 60.5t17 49.5q38 94 61.5 143t26.5 60q11 18 17 18t6 -21q0 -17 -8.5 -40t-20.5 -47.5t-24.5 -48t-19.5 -42.5q-7 -18 -14 -43t-15.5 -52l-17 -54t-18.5 -50q32 -5 50 -7t40 -2q54 0 85 25t47 73q10 29 20 63t18 72q3 18 4.5 50.5t3 64t5 55
t11.5 23.5z" />
    <glyph glyph-name="FLW248" unicode="&#x448;" horiz-adv-x="628" 
d="M584 498h19q5 0 5 -21q0 -18 -3.5 -47.5t-8 -61.5t-9.5 -60.5t-8 -45.5q-11 -55 -29 -109.5t-41 -96.5q-13 -23 -23 -32.5t-21 -9.5q-8 0 -24.5 4t-24.5 4q-14 0 -43.5 -2t-62 -4t-62 -4t-43.5 -2q-2 0 -18 -3t-36 -6.5t-39.5 -6.5t-27.5 -3q-32 0 -48 14.5t-15 38.5
q1 25 5 51.5t9 54.5q11 55 32 121t45 123t47.5 95.5t38.5 38.5q9 0 8 -7.5t-6.5 -18t-12.5 -21.5t-11 -19q-48 -99 -48 -103q-4 -14 -12 -39t-16 -51t-14 -48t-8 -30q-8 -37 -9.5 -61t-1.5 -36q0 -25 14 -35t39 -10q8 0 22.5 1.5t34.5 5.5q11 2 30 3.5t41 8.5
q11 3 21.5 26.5t21 53.5t19.5 60.5t17 49.5q38 94 61.5 143t26.5 60q11 18 17 18t6 -21q0 -17 -8.5 -40t-20.5 -47.5t-24.5 -48t-19.5 -42.5q-7 -18 -14 -43t-15.5 -52l-17 -54t-18.5 -50q32 -5 50 -7t40 -2q54 0 85 25t47 73q10 29 20 63t18 72q3 18 4.5 50.5t3 64t5 55
t11.5 23.5z" />
    <glyph glyph-name="FLW249" unicode="&#xf9;" horiz-adv-x="650" 
d="M585 499h15q6 0 6 -22q0 -19 -3.5 -48.5t-8.5 -61t-10 -60t-8 -45.5q-9 -50 -17.5 -85.5t-8.5 -58.5q0 -9 5.5 -10.5t14 -0.5t18.5 3.5t19 2.5q10 0 16.5 -5t6.5 -21q0 -6 -24 -28t-56 -46t-64.5 -42.5t-50.5 -18.5q-12 0 -8 9.5t13.5 21.5t19 22t6.5 10q-9 1 -25.5 4
t-24.5 3q-14 0 -43.5 -2t-62 -4t-62 -4t-43.5 -2q-1 0 -17.5 -3t-37.5 -7t-41 -7t-29 -3q-32 0 -46 15.5t-13 39.5q1 49 12 105q10 56 31 122.5t45 123.5t47 95t38 38q7 0 6 -7t-6 -17.5t-11.5 -21.5t-10.5 -20q-24 -49 -35.5 -75.5t-11.5 -27.5q-4 -14 -11.5 -39t-15.5 -51
t-14 -48t-8 -30q-7 -38 -9 -61.5t-1 -36.5q1 -44 54 -44q20 0 53 4t74 15q11 3 22 26t20.5 53t18 61t16.5 50q37 93 60 143t27 60q8 18 15 18q4 0 6 -6.5t2 -15.5q0 -17 -8.5 -40t-20 -47.5t-23.5 -48t-19 -41.5t-14 -43t-14.5 -52t-16 -54t-17.5 -50q31 -5 48 -7t40 -2
q55 0 85.5 25t46.5 73q19 57 33 136q3 18 5.5 50.5t5.5 63.5t7.5 54.5t12.5 23.5z" />
    <glyph glyph-name="FLW249" unicode="&#x449;" horiz-adv-x="650" 
d="M585 499h15q6 0 6 -22q0 -19 -3.5 -48.5t-8.5 -61t-10 -60t-8 -45.5q-9 -50 -17.5 -85.5t-8.5 -58.5q0 -9 5.5 -10.5t14 -0.5t18.5 3.5t19 2.5q10 0 16.5 -5t6.5 -21q0 -6 -24 -28t-56 -46t-64.5 -42.5t-50.5 -18.5q-12 0 -8 9.5t13.5 21.5t19 22t6.5 10q-9 1 -25.5 4
t-24.5 3q-14 0 -43.5 -2t-62 -4t-62 -4t-43.5 -2q-1 0 -17.5 -3t-37.5 -7t-41 -7t-29 -3q-32 0 -46 15.5t-13 39.5q1 49 12 105q10 56 31 122.5t45 123.5t47 95t38 38q7 0 6 -7t-6 -17.5t-11.5 -21.5t-10.5 -20q-24 -49 -35.5 -75.5t-11.5 -27.5q-4 -14 -11.5 -39t-15.5 -51
t-14 -48t-8 -30q-7 -38 -9 -61.5t-1 -36.5q1 -44 54 -44q20 0 53 4t74 15q11 3 22 26t20.5 53t18 61t16.5 50q37 93 60 143t27 60q8 18 15 18q4 0 6 -6.5t2 -15.5q0 -17 -8.5 -40t-20 -47.5t-23.5 -48t-19 -41.5t-14 -43t-14.5 -52t-16 -54t-17.5 -50q31 -5 48 -7t40 -2
q55 0 85.5 25t46.5 73q19 57 33 136q3 18 5.5 50.5t5.5 63.5t7.5 54.5t12.5 23.5z" />
    <glyph glyph-name="FLW250" unicode="&#xfa;" horiz-adv-x="430" 
d="M408 263q2 -7 2 -14.5v-13.5q0 -37 -20.5 -77t-52.5 -74.5t-71.5 -60t-77.5 -34.5q-4 -1 -12 -1q-27 0 -50 15t-41 38.5t-30 52t-17 54.5q-3 14 -6 33t-3 43q0 34 12 77.5t47 93.5q27 39 41 59.5t14 38.5q0 23 -19 31t-42.5 12t-42.5 10t-19 25q0 8 27 11.5t58 3.5
q22 0 43.5 -2t38.5 -5.5t27 -9t7 -12.5q-5 -13 -17 -43.5t-24.5 -62t-22 -56l-9.5 -24.5l114 -11q128 -13 146 -97zM78 246l-8 -32q-1 -8 0 -18t1 -8q13 -39 21 -54.5t14 -26.5q35 -64 82 -64q21 0 44 13.5t43.5 34.5t37.5 45t26 45q13 29 13 61q0 38 -29 60t-86 22
q-16 0 -34 3.5t-36 3.5q-27 0 -51 -16.5t-38 -68.5z" />
    <glyph glyph-name="FLW250" unicode="&#x44a;" horiz-adv-x="430" 
d="M408 263q2 -7 2 -14.5v-13.5q0 -37 -20.5 -77t-52.5 -74.5t-71.5 -60t-77.5 -34.5q-4 -1 -12 -1q-27 0 -50 15t-41 38.5t-30 52t-17 54.5q-3 14 -6 33t-3 43q0 34 12 77.5t47 93.5q27 39 41 59.5t14 38.5q0 23 -19 31t-42.5 12t-42.5 10t-19 25q0 8 27 11.5t58 3.5
q22 0 43.5 -2t38.5 -5.5t27 -9t7 -12.5q-5 -13 -17 -43.5t-24.5 -62t-22 -56l-9.5 -24.5l114 -11q128 -13 146 -97zM78 246l-8 -32q-1 -8 0 -18t1 -8q13 -39 21 -54.5t14 -26.5q35 -64 82 -64q21 0 44 13.5t43.5 34.5t37.5 45t26 45q13 29 13 61q0 38 -29 60t-86 22
q-16 0 -34 3.5t-36 3.5q-27 0 -51 -16.5t-38 -68.5z" />
    <glyph glyph-name="FLW251" unicode="&#xfb;" horiz-adv-x="691" 
d="M399 262q1 -8 1.5 -15t0.5 -13q0 -38 -20.5 -77.5t-52.5 -74t-71.5 -60t-77.5 -34.5q-4 -1 -12 -1q-27 0 -50 15t-41 38.5t-30 52t-17 54.5q-3 14 -6 33t-3 43q0 35 12 78t47 93t48 89.5t22 66.5q3 9 6.5 23t9 26.5t13.5 21.5t20 8q30 -12 30 -29q0 -7 -14 -40.5
t-30.5 -72.5t-30.5 -73.5t-14 -43.5l114 -11q128 -13 146 -97zM69 245l-9 -33q-1 -8 -1 -16.5t0 -6.5q13 -39 22.5 -55.5t15.5 -27.5q35 -64 82 -64q21 0 44 13.5t43.5 34.5t37.5 45t26 45q13 29 13 61q0 38 -29 60t-86 22q-16 0 -34 3.5t-36 3.5q-27 0 -51 -16t-38 -69z
M466 306l35 109q19 34 36 62.5t39 61.5q1 1 9 8.5t19.5 15.5t24.5 14.5t23 6.5q19 0 19 -26q0 -10 -8.5 -19t-21 -17t-26.5 -17t-24 -20q-17 -19 -34.5 -59t-33.5 -82q-13 -36 -21.5 -70.5t-8.5 -72.5q0 -44 12.5 -85t39.5 -63q4 -3 13.5 -13t18 -20t10.5 -18.5t-9 -8.5
q-24 0 -43.5 12t-34.5 32.5t-25.5 46.5t-17.5 53q-7 31 -7 62q0 21 3 49t13 58z" />
    <glyph glyph-name="FLW251" unicode="&#x44b;" horiz-adv-x="691" 
d="M399 262q1 -8 1.5 -15t0.5 -13q0 -38 -20.5 -77.5t-52.5 -74t-71.5 -60t-77.5 -34.5q-4 -1 -12 -1q-27 0 -50 15t-41 38.5t-30 52t-17 54.5q-3 14 -6 33t-3 43q0 35 12 78t47 93t48 89.5t22 66.5q3 9 6.5 23t9 26.5t13.5 21.5t20 8q30 -12 30 -29q0 -7 -14 -40.5
t-30.5 -72.5t-30.5 -73.5t-14 -43.5l114 -11q128 -13 146 -97zM69 245l-9 -33q-1 -8 -1 -16.5t0 -6.5q13 -39 22.5 -55.5t15.5 -27.5q35 -64 82 -64q21 0 44 13.5t43.5 34.5t37.5 45t26 45q13 29 13 61q0 38 -29 60t-86 22q-16 0 -34 3.5t-36 3.5q-27 0 -51 -16t-38 -69z
M466 306l35 109q19 34 36 62.5t39 61.5q1 1 9 8.5t19.5 15.5t24.5 14.5t23 6.5q19 0 19 -26q0 -10 -8.5 -19t-21 -17t-26.5 -17t-24 -20q-17 -19 -34.5 -59t-33.5 -82q-13 -36 -21.5 -70.5t-8.5 -72.5q0 -44 12.5 -85t39.5 -63q4 -3 13.5 -13t18 -20t10.5 -18.5t-9 -8.5
q-24 0 -43.5 12t-34.5 32.5t-25.5 46.5t-17.5 53q-7 31 -7 62q0 21 3 49t13 58z" />
    <glyph glyph-name="FLW252" unicode="&#xfc;" horiz-adv-x="421" 
d="M399 263q1 -7 1.5 -14.5t0.5 -13.5q0 -37 -20.5 -77t-52.5 -74.5t-71.5 -60t-77.5 -34.5q-4 -1 -12 -1q-27 0 -50 15t-41 38.5t-30 52t-17 54.5q-3 14 -6 33t-3 43q0 34 12 77.5t47 93.5q35 49 48 89t22 67q3 9 6.5 23t9 26.5t13.5 21.5t20 8q30 -12 30 -29
q0 -7 -14 -40.5t-30.5 -72.5t-30.5 -73.5t-14 -43.5l114 -11q128 -13 146 -97zM69 246l-9 -33q-1 -8 -1 -16.5t0 -6.5q13 -39 22.5 -55.5t15.5 -27.5q35 -64 82 -64q21 0 44 13.5t43.5 34.5t37.5 45t26 45q13 29 13 61q0 38 -29 60t-86 22q-16 0 -34 3.5t-36 3.5
q-27 0 -51 -16.5t-38 -68.5z" />
    <glyph glyph-name="FLW252" unicode="&#x44c;" horiz-adv-x="421" 
d="M399 263q1 -7 1.5 -14.5t0.5 -13.5q0 -37 -20.5 -77t-52.5 -74.5t-71.5 -60t-77.5 -34.5q-4 -1 -12 -1q-27 0 -50 15t-41 38.5t-30 52t-17 54.5q-3 14 -6 33t-3 43q0 34 12 77.5t47 93.5q35 49 48 89t22 67q3 9 6.5 23t9 26.5t13.5 21.5t20 8q30 -12 30 -29
q0 -7 -14 -40.5t-30.5 -72.5t-30.5 -73.5t-14 -43.5l114 -11q128 -13 146 -97zM69 246l-9 -33q-1 -8 -1 -16.5t0 -6.5q13 -39 22.5 -55.5t15.5 -27.5q35 -64 82 -64q21 0 44 13.5t43.5 34.5t37.5 45t26 45q13 29 13 61q0 38 -29 60t-86 22q-16 0 -34 3.5t-36 3.5
q-27 0 -51 -16.5t-38 -68.5z" />
    <glyph glyph-name="FLW253" unicode="&#xfd;" horiz-adv-x="543" 
d="M381 220l48 -22q11 2 28 9.5t19 2.5q-12 52 -44 89t-79 51q-11 3 -21.5 7t-20.5 7q-12 3 -29.5 9t-34 11.5t-28 9.5t-10.5 4q-7 3 -5.5 18t7 32.5t11 33t6.5 18.5q2 8 9 10.5t14.5 0t14 -8.5t7.5 -15q2 -27 8.5 -40.5t23.5 -23.5q43 -25 66 -37.5t25 -14.5
q26 -17 47.5 -33.5t36.5 -34.5q18 -22 30.5 -47.5t12.5 -52.5q0 -47 -20 -80t-69 -57q-22 -11 -60 -24t-83.5 -23.5t-95 -17.5t-96.5 -7q-33 0 -55 8t-24 18q0 6 10 9.5t23 5t26.5 2t19.5 0.5h95q44 0 80 4t64 13q36 12 64.5 24t50.5 28q6 4 14 17t12.5 25t2 19t-17.5 1
l-33 -14q-3 1 -18 5t-32.5 11t-17.5 14v20q0 9 9 11.5t9 4.5z" />
    <glyph glyph-name="FLW253" unicode="&#x44d;" horiz-adv-x="543" 
d="M381 220l48 -22q11 2 28 9.5t19 2.5q-12 52 -44 89t-79 51q-11 3 -21.5 7t-20.5 7q-12 3 -29.5 9t-34 11.5t-28 9.5t-10.5 4q-7 3 -5.5 18t7 32.5t11 33t6.5 18.5q2 8 9 10.5t14.5 0t14 -8.5t7.5 -15q2 -27 8.5 -40.5t23.5 -23.5q43 -25 66 -37.5t25 -14.5
q26 -17 47.5 -33.5t36.5 -34.5q18 -22 30.5 -47.5t12.5 -52.5q0 -47 -20 -80t-69 -57q-22 -11 -60 -24t-83.5 -23.5t-95 -17.5t-96.5 -7q-33 0 -55 8t-24 18q0 6 10 9.5t23 5t26.5 2t19.5 0.5h95q44 0 80 4t64 13q36 12 64.5 24t50.5 28q6 4 14 17t12.5 25t2 19t-17.5 1
l-33 -14q-3 1 -18 5t-32.5 11t-17.5 14v20q0 9 9 11.5t9 4.5z" />
    <glyph glyph-name="FLW254" unicode="&#xfe;" horiz-adv-x="761" 
d="M175 170q11 26 23 50.5t27 48.5q56 86 115 101q-3 -43 -33 -89q-91 -131 -91 -137q-13 -32 -13 -55q0 -21 12.5 -34t43.5 -13q10 0 22 1.5t26 3.5q160 31 316 162q30 25 47.5 55.5t17.5 62.5q0 35 -9 61t-33 48q-46 42 -114 42q-37 0 -64.5 -0.5t-51.5 -3.5t-46.5 -8.5
t-49.5 -16.5q-37 -15 -59.5 -49.5t-55.5 -89.5l-5 11q7 27 14.5 52t19.5 46t29.5 37t44.5 23q40 12 97.5 21.5t109.5 9.5q101 0 160 -32q36 -20 51 -52.5t15 -76.5q0 -35 -21 -72t-59 -76q-30 -31 -67.5 -55t-80.5 -53q-11 -7 -28 -16.5t-53 -25.5q-46 -20 -85 -29t-65 -9
h-36q-24 0 -39 17.5t-23.5 36t-13 31.5t-9.5 4l-8 -17l-21 -54q-2 -5 -8.5 -12.5t-14 -14.5t-14 -12t-8.5 -5q-37 0 -52 34.5t-15 77.5v11t1 11q2 26 4 47t5 42t7.5 44.5t10.5 54.5q6 29 13 74t17 106q4 29 21.5 52t40.5 23q12 0 12 -16q0 -13 -4.5 -30.5t-5.5 -31.5
q-2 -24 -6 -48t-8 -47l-33 -161q-1 -4 -5.5 -25.5t-8.5 -45t-4 -42.5t8 -19q7 0 18 7.5t23.5 18t25 23.5t23.5 23z" />
    <glyph glyph-name="FLW254" unicode="&#x44e;" horiz-adv-x="761" 
d="M175 170q11 26 23 50.5t27 48.5q56 86 115 101q-3 -43 -33 -89q-91 -131 -91 -137q-13 -32 -13 -55q0 -21 12.5 -34t43.5 -13q10 0 22 1.5t26 3.5q160 31 316 162q30 25 47.5 55.5t17.5 62.5q0 35 -9 61t-33 48q-46 42 -114 42q-37 0 -64.5 -0.5t-51.5 -3.5t-46.5 -8.5
t-49.5 -16.5q-37 -15 -59.5 -49.5t-55.5 -89.5l-5 11q7 27 14.5 52t19.5 46t29.5 37t44.5 23q40 12 97.5 21.5t109.5 9.5q101 0 160 -32q36 -20 51 -52.5t15 -76.5q0 -35 -21 -72t-59 -76q-30 -31 -67.5 -55t-80.5 -53q-11 -7 -28 -16.5t-53 -25.5q-46 -20 -85 -29t-65 -9
h-36q-24 0 -39 17.5t-23.5 36t-13 31.5t-9.5 4l-8 -17l-21 -54q-2 -5 -8.5 -12.5t-14 -14.5t-14 -12t-8.5 -5q-37 0 -52 34.5t-15 77.5v11t1 11q2 26 4 47t5 42t7.5 44.5t10.5 54.5q6 29 13 74t17 106q4 29 21.5 52t40.5 23q12 0 12 -16q0 -13 -4.5 -30.5t-5.5 -31.5
q-2 -24 -6 -48t-8 -47l-33 -161q-1 -4 -5.5 -25.5t-8.5 -45t-4 -42.5t8 -19q7 0 18 7.5t23.5 18t25 23.5t23.5 23z" />
    <glyph glyph-name="FLW255" unicode="&#xff;" horiz-adv-x="553" 
d="M474 4l32 32l-17 11l-7 22v136l3 9q3 10 9 58t10 140q3 71 19 116q10 27 10 40q0 19 -17 19q-4 0 -21 -8t-37.5 -18t-40 -19.5t-30.5 -13.5q-20 -8 -52.5 -20t-66.5 -28.5t-64.5 -38t-45.5 -48.5q-10 -20 -10 -42q0 -64 93 -115q-13 -19 -30 -43.5t-38 -43.5
q-12 -11 -52.5 -43t-98.5 -81q-3 -7 1.5 -12t11.5 -7.5t14.5 -3.5t11.5 -1q9 0 22 10.5t27.5 24t28.5 27t25 18.5q3 2 20 18t38.5 35t42 35.5t31.5 20.5q39 15 82 15q14 0 25 -34.5t21.5 -74.5t22.5 -70t27 -22zM450 507l10 -11v-10v-43q-4 -23 -3.5 -51t-10.5 -51
q-23 -44 -55.5 -67.5t-84.5 -23.5q-47 0 -77 28t-30 59q0 71 135 129q25 10 53.5 20.5t62.5 20.5z" />
    <glyph glyph-name="FLW255" unicode="&#x44f;" horiz-adv-x="553" 
d="M474 4l32 32l-17 11l-7 22v136l3 9q3 10 9 58t10 140q3 71 19 116q10 27 10 40q0 19 -17 19q-4 0 -21 -8t-37.5 -18t-40 -19.5t-30.5 -13.5q-20 -8 -52.5 -20t-66.5 -28.5t-64.5 -38t-45.5 -48.5q-10 -20 -10 -42q0 -64 93 -115q-13 -19 -30 -43.5t-38 -43.5
q-12 -11 -52.5 -43t-98.5 -81q-3 -7 1.5 -12t11.5 -7.5t14.5 -3.5t11.5 -1q9 0 22 10.5t27.5 24t28.5 27t25 18.5q3 2 20 18t38.5 35t42 35.5t31.5 20.5q39 15 82 15q14 0 25 -34.5t21.5 -74.5t22.5 -70t27 -22zM450 507l10 -11v-10v-43q-4 -23 -3.5 -51t-10.5 -51
q-23 -44 -55.5 -67.5t-84.5 -23.5q-47 0 -77 28t-30 59q0 71 135 129q25 10 53.5 20.5t62.5 20.5z" />
  </font>
</defs>
</svg>
